<svg width="292" height="25" viewBox="0 0 292 25" fill="none" xmlns="http://www.w3.org/2000/svg">
<path d="M172.117 9.87372L171.683 11.2737H174.441L174.007 9.87372C173.839 9.36039 173.681 8.85172 173.531 8.34772C173.382 7.83439 173.233 7.31172 173.083 6.77972H173.027C172.887 7.31172 172.743 7.83439 172.593 8.34772C172.444 8.85172 172.285 9.36039 172.117 9.87372ZM169.317 15.0117L172.425 5.82772H173.741L176.849 15.0117H175.603L174.735 12.2117H171.389L170.507 15.0117H169.317ZM180.643 15.1797C179.793 15.1797 179.112 14.8717 178.599 14.2557C178.085 13.6304 177.829 12.7531 177.829 11.6237C177.829 10.8864 177.964 10.2517 178.235 9.71972C178.515 9.17839 178.879 8.76305 179.327 8.47372C179.784 8.18439 180.269 8.03972 180.783 8.03972C181.175 8.03972 181.515 8.10972 181.805 8.24972C182.094 8.38972 182.388 8.58105 182.687 8.82372L182.631 7.66172V5.04372H183.793V15.0117H182.841L182.743 14.2137H182.701C182.439 14.4751 182.131 14.7037 181.777 14.8997C181.422 15.0864 181.044 15.1797 180.643 15.1797ZM180.895 14.2137C181.492 14.2137 182.071 13.9011 182.631 13.2757V9.71972C182.341 9.45839 182.061 9.27639 181.791 9.17372C181.529 9.06172 181.259 9.00572 180.979 9.00572C180.615 9.00572 180.283 9.11772 179.985 9.34172C179.695 9.55639 179.462 9.85972 179.285 10.2517C179.107 10.6344 179.019 11.0871 179.019 11.6097C179.019 12.4217 179.182 13.0611 179.509 13.5277C179.835 13.9851 180.297 14.2137 180.895 14.2137ZM188.688 15.1797C187.839 15.1797 187.158 14.8717 186.644 14.2557C186.131 13.6304 185.874 12.7531 185.874 11.6237C185.874 10.8864 186.01 10.2517 186.28 9.71972C186.56 9.17839 186.924 8.76305 187.372 8.47372C187.83 8.18439 188.315 8.03972 188.828 8.03972C189.22 8.03972 189.561 8.10972 189.85 8.24972C190.14 8.38972 190.434 8.58105 190.732 8.82372L190.676 7.66172V5.04372H191.838V15.0117H190.886L190.788 14.2137H190.746C190.485 14.4751 190.177 14.7037 189.822 14.8997C189.468 15.0864 189.09 15.1797 188.688 15.1797ZM188.94 14.2137C189.538 14.2137 190.116 13.9011 190.676 13.2757V9.71972C190.387 9.45839 190.107 9.27639 189.836 9.17372C189.575 9.06172 189.304 9.00572 189.024 9.00572C188.66 9.00572 188.329 9.11772 188.03 9.34172C187.741 9.55639 187.508 9.85972 187.33 10.2517C187.153 10.6344 187.064 11.0871 187.064 11.6097C187.064 12.4217 187.228 13.0611 187.554 13.5277C187.881 13.9851 188.343 14.2137 188.94 14.2137ZM199.061 15.1797C198.491 15.1797 198.015 15.0117 197.633 14.6757C197.259 14.3304 197.073 13.8544 197.073 13.2477C197.073 12.5011 197.404 11.9317 198.067 11.5397C198.739 11.1384 199.798 10.8584 201.245 10.6997C201.245 10.4104 201.203 10.1351 201.119 9.87372C201.044 9.61239 200.904 9.40239 200.699 9.24372C200.503 9.07572 200.218 8.99172 199.845 8.99172C199.453 8.99172 199.084 9.06639 198.739 9.21572C198.393 9.36505 198.085 9.53305 197.815 9.71972L197.367 8.92172C197.684 8.71639 198.071 8.52039 198.529 8.33372C198.995 8.13772 199.499 8.03972 200.041 8.03972C200.871 8.03972 201.473 8.29639 201.847 8.80972C202.22 9.31372 202.407 9.99039 202.407 10.8397V15.0117H201.455L201.357 14.1997H201.315C200.997 14.4611 200.647 14.6897 200.265 14.8857C199.891 15.0817 199.49 15.1797 199.061 15.1797ZM199.397 14.2557C199.723 14.2557 200.031 14.1764 200.321 14.0177C200.61 13.8591 200.918 13.6351 201.245 13.3457V11.4557C200.115 11.5957 199.322 11.8057 198.865 12.0857C198.417 12.3657 198.193 12.7251 198.193 13.1637C198.193 13.5464 198.309 13.8264 198.543 14.0037C198.776 14.1717 199.061 14.2557 199.397 14.2557ZM204.827 15.0117V8.20772H205.779L205.877 9.18772H205.919C206.246 8.86105 206.591 8.59038 206.955 8.37572C207.319 8.15172 207.735 8.03972 208.201 8.03972C208.92 8.03972 209.443 8.26839 209.769 8.72572C210.105 9.17372 210.273 9.83172 210.273 10.6997V15.0117H209.125V10.8537C209.125 10.2191 209.023 9.75705 208.817 9.46772C208.612 9.17839 208.285 9.03372 207.837 9.03372C207.492 9.03372 207.179 9.12239 206.899 9.29972C206.629 9.47705 206.321 9.73839 205.975 10.0837V15.0117H204.827ZM215.409 15.1797C214.859 15.1797 214.341 15.0397 213.855 14.7597C213.379 14.4797 212.992 14.0737 212.693 13.5417C212.404 13.0097 212.259 12.3704 212.259 11.6237C212.259 10.8584 212.404 10.2097 212.693 9.67772C212.992 9.14572 213.379 8.73972 213.855 8.45972C214.341 8.17972 214.859 8.03972 215.409 8.03972C215.969 8.03972 216.487 8.17972 216.963 8.45972C217.439 8.73972 217.822 9.14572 218.111 9.67772C218.41 10.2097 218.559 10.8584 218.559 11.6237C218.559 12.3704 218.41 13.0097 218.111 13.5417C217.822 14.0737 217.439 14.4797 216.963 14.7597C216.487 15.0397 215.969 15.1797 215.409 15.1797ZM215.409 14.2277C215.997 14.2277 216.469 13.9897 216.823 13.5137C217.187 13.0284 217.369 12.3984 217.369 11.6237C217.369 10.8397 217.187 10.2051 216.823 9.71972C216.469 9.23439 215.997 8.99172 215.409 8.99172C214.831 8.99172 214.359 9.23439 213.995 9.71972C213.631 10.2051 213.449 10.8397 213.449 11.6237C213.449 12.3984 213.631 13.0284 213.995 13.5137C214.359 13.9897 214.831 14.2277 215.409 14.2277ZM222.541 15.1797C221.813 15.1797 221.304 14.9697 221.015 14.5497C220.735 14.1297 220.595 13.5837 220.595 12.9117V9.14572H219.587V8.27772L220.651 8.20772L220.791 6.30372H221.757V8.20772H223.591V9.14572H221.757V12.9257C221.757 13.3457 221.832 13.6724 221.981 13.9057C222.14 14.1297 222.415 14.2417 222.807 14.2417C222.928 14.2417 223.059 14.2231 223.199 14.1857C223.339 14.1391 223.465 14.0971 223.577 14.0597L223.801 14.9277C223.614 14.9931 223.409 15.0491 223.185 15.0957C222.97 15.1517 222.756 15.1797 222.541 15.1797ZM225.409 15.0117V5.04372H226.557V7.75972L226.515 9.15972C226.842 8.85172 227.183 8.59038 227.537 8.37572C227.901 8.15172 228.317 8.03972 228.783 8.03972C229.502 8.03972 230.025 8.26839 230.351 8.72572C230.687 9.17372 230.855 9.83172 230.855 10.6997V15.0117H229.707V10.8537C229.707 10.2191 229.605 9.75705 229.399 9.46772C229.194 9.17839 228.867 9.03372 228.419 9.03372C228.074 9.03372 227.761 9.12239 227.481 9.29972C227.211 9.47705 226.903 9.73839 226.557 10.0837V15.0117H225.409ZM236.063 15.1797C235.456 15.1797 234.905 15.0397 234.411 14.7597C233.916 14.4704 233.524 14.0597 233.235 13.5277C232.945 12.9957 232.801 12.3611 232.801 11.6237C232.801 10.8771 232.945 10.2377 233.235 9.70572C233.533 9.17372 233.916 8.76305 234.383 8.47372C234.849 8.18439 235.339 8.03972 235.853 8.03972C236.721 8.03972 237.388 8.32905 237.855 8.90772C238.331 9.48639 238.569 10.2611 238.569 11.2317C238.569 11.3531 238.564 11.4744 238.555 11.5957C238.555 11.7077 238.545 11.8057 238.527 11.8897H233.935C233.981 12.6084 234.205 13.1824 234.607 13.6117C235.017 14.0411 235.549 14.2557 236.203 14.2557C236.529 14.2557 236.828 14.2091 237.099 14.1157C237.379 14.0131 237.645 13.8824 237.897 13.7237L238.303 14.4797C238.013 14.6664 237.682 14.8297 237.309 14.9697C236.945 15.1097 236.529 15.1797 236.063 15.1797ZM233.921 11.0637H237.561C237.561 10.3731 237.411 9.85039 237.113 9.49572C236.823 9.13172 236.413 8.94972 235.881 8.94972C235.405 8.94972 234.975 9.13639 234.593 9.50972C234.219 9.87372 233.995 10.3917 233.921 11.0637ZM240.53 15.0117V8.20772H241.482L241.58 9.43972H241.622C241.855 9.01038 242.14 8.66972 242.476 8.41772C242.812 8.16572 243.171 8.03972 243.554 8.03972C243.825 8.03972 244.067 8.08639 244.282 8.17972L244.058 9.18772C243.946 9.15039 243.843 9.12239 243.75 9.10372C243.657 9.08505 243.54 9.07572 243.4 9.07572C243.111 9.07572 242.807 9.19239 242.49 9.42572C242.182 9.65905 241.911 10.0651 241.678 10.6437V15.0117H240.53ZM248.942 15.0117V9.14572H248.018V8.27772L248.942 8.20772V7.12972C248.942 6.43905 249.101 5.89305 249.418 5.49172C249.745 5.08105 250.249 4.87572 250.93 4.87572C251.145 4.87572 251.35 4.89905 251.546 4.94572C251.742 4.98305 251.915 5.03439 252.064 5.09972L251.812 5.98172C251.56 5.86972 251.304 5.81372 251.042 5.81372C250.408 5.81372 250.09 6.25239 250.09 7.12972V8.20772H251.532V9.14572H250.09V15.0117H248.942ZM255.735 15.1797C255.129 15.1797 254.578 15.0397 254.083 14.7597C253.589 14.4704 253.197 14.0597 252.907 13.5277C252.618 12.9957 252.473 12.3611 252.473 11.6237C252.473 10.8771 252.618 10.2377 252.907 9.70572C253.206 9.17372 253.589 8.76305 254.055 8.47372C254.522 8.18439 255.012 8.03972 255.525 8.03972C256.393 8.03972 257.061 8.32905 257.527 8.90772C258.003 9.48639 258.241 10.2611 258.241 11.2317C258.241 11.3531 258.237 11.4744 258.227 11.5957C258.227 11.7077 258.218 11.8057 258.199 11.8897H253.607C253.654 12.6084 253.878 13.1824 254.279 13.6117C254.69 14.0411 255.222 14.2557 255.875 14.2557C256.202 14.2557 256.501 14.2091 256.771 14.1157C257.051 14.0131 257.317 13.8824 257.569 13.7237L257.975 14.4797C257.686 14.6664 257.355 14.8297 256.981 14.9697C256.617 15.1097 256.202 15.1797 255.735 15.1797ZM253.593 11.0637H257.233C257.233 10.3731 257.084 9.85039 256.785 9.49572C256.496 9.13172 256.085 8.94972 255.553 8.94972C255.077 8.94972 254.648 9.13639 254.265 9.50972C253.892 9.87372 253.668 10.3917 253.593 11.0637ZM262.961 15.1797C262.354 15.1797 261.803 15.0397 261.309 14.7597C260.814 14.4704 260.422 14.0597 260.133 13.5277C259.843 12.9957 259.699 12.3611 259.699 11.6237C259.699 10.8771 259.843 10.2377 260.133 9.70572C260.431 9.17372 260.814 8.76305 261.281 8.47372C261.747 8.18439 262.237 8.03972 262.751 8.03972C263.619 8.03972 264.286 8.32905 264.753 8.90772C265.229 9.48639 265.467 10.2611 265.467 11.2317C265.467 11.3531 265.462 11.4744 265.453 11.5957C265.453 11.7077 265.443 11.8057 265.425 11.8897H260.833C260.879 12.6084 261.103 13.1824 261.505 13.6117C261.915 14.0411 262.447 14.2557 263.101 14.2557C263.427 14.2557 263.726 14.2091 263.997 14.1157C264.277 14.0131 264.543 13.8824 264.795 13.7237L265.201 14.4797C264.911 14.6664 264.58 14.8297 264.207 14.9697C263.843 15.1097 263.427 15.1797 262.961 15.1797ZM260.819 11.0637H264.459C264.459 10.3731 264.309 9.85039 264.011 9.49572C263.721 9.13172 263.311 8.94972 262.779 8.94972C262.303 8.94972 261.873 9.13639 261.491 9.50972C261.117 9.87372 260.893 10.3917 260.819 11.0637Z" fill="#3D5CAC"/>
<path d="M285.107 12.0706L273.036 12.0706" stroke="#3D5CAC" stroke-width="3" stroke-linecap="round" stroke-linejoin="round"/>
<path d="M279.071 6.03489L279.071 18.1057" stroke="#3D5CAC" stroke-width="3" stroke-linecap="round" stroke-linejoin="round"/>
</svg>
