<svg width="266" height="23" viewBox="0 0 266 23" fill="none" xmlns="http://www.w3.org/2000/svg">
<path d="M172.117 8.87372L171.683 10.2737H174.441L174.007 8.87372C173.839 8.36039 173.681 7.85172 173.531 7.34772C173.382 6.83439 173.233 6.31172 173.083 5.77972H173.027C172.887 6.31172 172.743 6.83439 172.593 7.34772C172.444 7.85172 172.285 8.36039 172.117 8.87372ZM169.317 14.0117L172.425 4.82772H173.741L176.849 14.0117H175.603L174.735 11.2117H171.389L170.507 14.0117H169.317ZM180.643 14.1797C179.793 14.1797 179.112 13.8717 178.599 13.2557C178.085 12.6304 177.829 11.7531 177.829 10.6237C177.829 9.88639 177.964 9.25172 178.235 8.71972C178.515 8.17839 178.879 7.76305 179.327 7.47372C179.784 7.18439 180.269 7.03972 180.783 7.03972C181.175 7.03972 181.515 7.10972 181.805 7.24972C182.094 7.38972 182.388 7.58105 182.687 7.82372L182.631 6.66172V4.04372H183.793V14.0117H182.841L182.743 13.2137H182.701C182.439 13.4751 182.131 13.7037 181.777 13.8997C181.422 14.0864 181.044 14.1797 180.643 14.1797ZM180.895 13.2137C181.492 13.2137 182.071 12.9011 182.631 12.2757V8.71972C182.341 8.45839 182.061 8.27639 181.791 8.17372C181.529 8.06172 181.259 8.00572 180.979 8.00572C180.615 8.00572 180.283 8.11772 179.985 8.34172C179.695 8.55639 179.462 8.85972 179.285 9.25172C179.107 9.63439 179.019 10.0871 179.019 10.6097C179.019 11.4217 179.182 12.0611 179.509 12.5277C179.835 12.9851 180.297 13.2137 180.895 13.2137ZM188.688 14.1797C187.839 14.1797 187.158 13.8717 186.644 13.2557C186.131 12.6304 185.874 11.7531 185.874 10.6237C185.874 9.88639 186.01 9.25172 186.28 8.71972C186.56 8.17839 186.924 7.76305 187.372 7.47372C187.83 7.18439 188.315 7.03972 188.828 7.03972C189.22 7.03972 189.561 7.10972 189.85 7.24972C190.14 7.38972 190.434 7.58105 190.732 7.82372L190.676 6.66172V4.04372H191.838V14.0117H190.886L190.788 13.2137H190.746C190.485 13.4751 190.177 13.7037 189.822 13.8997C189.468 14.0864 189.09 14.1797 188.688 14.1797ZM188.94 13.2137C189.538 13.2137 190.116 12.9011 190.676 12.2757V8.71972C190.387 8.45839 190.107 8.27639 189.836 8.17372C189.575 8.06172 189.304 8.00572 189.024 8.00572C188.66 8.00572 188.329 8.11772 188.03 8.34172C187.741 8.55639 187.508 8.85972 187.33 9.25172C187.153 9.63439 187.064 10.0871 187.064 10.6097C187.064 11.4217 187.228 12.0611 187.554 12.5277C187.881 12.9851 188.343 13.2137 188.94 13.2137ZM199.061 14.1797C198.491 14.1797 198.015 14.0117 197.633 13.6757C197.259 13.3304 197.073 12.8544 197.073 12.2477C197.073 11.5011 197.404 10.9317 198.067 10.5397C198.739 10.1384 199.798 9.85839 201.245 9.69972C201.245 9.41039 201.203 9.13505 201.119 8.87372C201.044 8.61239 200.904 8.40239 200.699 8.24372C200.503 8.07572 200.218 7.99172 199.845 7.99172C199.453 7.99172 199.084 8.06639 198.739 8.21572C198.393 8.36505 198.085 8.53305 197.815 8.71972L197.367 7.92172C197.684 7.71639 198.071 7.52039 198.529 7.33372C198.995 7.13772 199.499 7.03972 200.041 7.03972C200.871 7.03972 201.473 7.29639 201.847 7.80972C202.22 8.31372 202.407 8.99039 202.407 9.83972V14.0117H201.455L201.357 13.1997H201.315C200.997 13.4611 200.647 13.6897 200.265 13.8857C199.891 14.0817 199.49 14.1797 199.061 14.1797ZM199.397 13.2557C199.723 13.2557 200.031 13.1764 200.321 13.0177C200.61 12.8591 200.918 12.6351 201.245 12.3457V10.4557C200.115 10.5957 199.322 10.8057 198.865 11.0857C198.417 11.3657 198.193 11.7251 198.193 12.1637C198.193 12.5464 198.309 12.8264 198.543 13.0037C198.776 13.1717 199.061 13.2557 199.397 13.2557ZM204.827 14.0117V7.20772H205.779L205.877 8.18772H205.919C206.246 7.86105 206.591 7.59038 206.955 7.37572C207.319 7.15172 207.735 7.03972 208.201 7.03972C208.92 7.03972 209.443 7.26839 209.769 7.72572C210.105 8.17372 210.273 8.83172 210.273 9.69972V14.0117H209.125V9.85372C209.125 9.21905 209.023 8.75705 208.817 8.46772C208.612 8.17839 208.285 8.03372 207.837 8.03372C207.492 8.03372 207.179 8.12239 206.899 8.29972C206.629 8.47705 206.321 8.73839 205.975 9.08372V14.0117H204.827ZM215.409 14.1797C214.859 14.1797 214.341 14.0397 213.855 13.7597C213.379 13.4797 212.992 13.0737 212.693 12.5417C212.404 12.0097 212.259 11.3704 212.259 10.6237C212.259 9.85839 212.404 9.20972 212.693 8.67772C212.992 8.14572 213.379 7.73972 213.855 7.45972C214.341 7.17972 214.859 7.03972 215.409 7.03972C215.969 7.03972 216.487 7.17972 216.963 7.45972C217.439 7.73972 217.822 8.14572 218.111 8.67772C218.41 9.20972 218.559 9.85839 218.559 10.6237C218.559 11.3704 218.41 12.0097 218.111 12.5417C217.822 13.0737 217.439 13.4797 216.963 13.7597C216.487 14.0397 215.969 14.1797 215.409 14.1797ZM215.409 13.2277C215.997 13.2277 216.469 12.9897 216.823 12.5137C217.187 12.0284 217.369 11.3984 217.369 10.6237C217.369 9.83972 217.187 9.20505 216.823 8.71972C216.469 8.23439 215.997 7.99172 215.409 7.99172C214.831 7.99172 214.359 8.23439 213.995 8.71972C213.631 9.20505 213.449 9.83972 213.449 10.6237C213.449 11.3984 213.631 12.0284 213.995 12.5137C214.359 12.9897 214.831 13.2277 215.409 13.2277ZM222.541 14.1797C221.813 14.1797 221.304 13.9697 221.015 13.5497C220.735 13.1297 220.595 12.5837 220.595 11.9117V8.14572H219.587V7.27772L220.651 7.20772L220.791 5.30372H221.757V7.20772H223.591V8.14572H221.757V11.9257C221.757 12.3457 221.832 12.6724 221.981 12.9057C222.14 13.1297 222.415 13.2417 222.807 13.2417C222.928 13.2417 223.059 13.2231 223.199 13.1857C223.339 13.1391 223.465 13.0971 223.577 13.0597L223.801 13.9277C223.614 13.9931 223.409 14.0491 223.185 14.0957C222.97 14.1517 222.756 14.1797 222.541 14.1797ZM225.409 14.0117V4.04372H226.557V6.75972L226.515 8.15972C226.842 7.85172 227.183 7.59038 227.537 7.37572C227.901 7.15172 228.317 7.03972 228.783 7.03972C229.502 7.03972 230.025 7.26839 230.351 7.72572C230.687 8.17372 230.855 8.83172 230.855 9.69972V14.0117H229.707V9.85372C229.707 9.21905 229.605 8.75705 229.399 8.46772C229.194 8.17839 228.867 8.03372 228.419 8.03372C228.074 8.03372 227.761 8.12239 227.481 8.29972C227.211 8.47705 226.903 8.73839 226.557 9.08372V14.0117H225.409ZM236.063 14.1797C235.456 14.1797 234.905 14.0397 234.411 13.7597C233.916 13.4704 233.524 13.0597 233.235 12.5277C232.945 11.9957 232.801 11.3611 232.801 10.6237C232.801 9.87705 232.945 9.23772 233.235 8.70572C233.533 8.17372 233.916 7.76305 234.383 7.47372C234.849 7.18439 235.339 7.03972 235.853 7.03972C236.721 7.03972 237.388 7.32905 237.855 7.90772C238.331 8.48639 238.569 9.26105 238.569 10.2317C238.569 10.3531 238.564 10.4744 238.555 10.5957C238.555 10.7077 238.545 10.8057 238.527 10.8897H233.935C233.981 11.6084 234.205 12.1824 234.607 12.6117C235.017 13.0411 235.549 13.2557 236.203 13.2557C236.529 13.2557 236.828 13.2091 237.099 13.1157C237.379 13.0131 237.645 12.8824 237.897 12.7237L238.303 13.4797C238.013 13.6664 237.682 13.8297 237.309 13.9697C236.945 14.1097 236.529 14.1797 236.063 14.1797ZM233.921 10.0637H237.561C237.561 9.37305 237.411 8.85039 237.113 8.49572C236.823 8.13172 236.413 7.94972 235.881 7.94972C235.405 7.94972 234.975 8.13639 234.593 8.50972C234.219 8.87372 233.995 9.39172 233.921 10.0637ZM240.53 14.0117V7.20772H241.482L241.58 8.43972H241.622C241.855 8.01038 242.14 7.66972 242.476 7.41772C242.812 7.16572 243.171 7.03972 243.554 7.03972C243.825 7.03972 244.067 7.08639 244.282 7.17972L244.058 8.18772C243.946 8.15039 243.843 8.12239 243.75 8.10372C243.657 8.08505 243.54 8.07572 243.4 8.07572C243.111 8.07572 242.807 8.19239 242.49 8.42572C242.182 8.65905 241.911 9.06505 241.678 9.64372V14.0117H240.53ZM248.942 14.0117V8.14572H248.018V7.27772L248.942 7.20772V6.12972C248.942 5.43905 249.101 4.89305 249.418 4.49172C249.745 4.08105 250.249 3.87572 250.93 3.87572C251.145 3.87572 251.35 3.89905 251.546 3.94572C251.742 3.98305 251.915 4.03439 252.064 4.09972L251.812 4.98172C251.56 4.86972 251.304 4.81372 251.042 4.81372C250.408 4.81372 250.09 5.25239 250.09 6.12972V7.20772H251.532V8.14572H250.09V14.0117H248.942ZM255.735 14.1797C255.129 14.1797 254.578 14.0397 254.083 13.7597C253.589 13.4704 253.197 13.0597 252.907 12.5277C252.618 11.9957 252.473 11.3611 252.473 10.6237C252.473 9.87705 252.618 9.23772 252.907 8.70572C253.206 8.17372 253.589 7.76305 254.055 7.47372C254.522 7.18439 255.012 7.03972 255.525 7.03972C256.393 7.03972 257.061 7.32905 257.527 7.90772C258.003 8.48639 258.241 9.26105 258.241 10.2317C258.241 10.3531 258.237 10.4744 258.227 10.5957C258.227 10.7077 258.218 10.8057 258.199 10.8897H253.607C253.654 11.6084 253.878 12.1824 254.279 12.6117C254.69 13.0411 255.222 13.2557 255.875 13.2557C256.202 13.2557 256.501 13.2091 256.771 13.1157C257.051 13.0131 257.317 12.8824 257.569 12.7237L257.975 13.4797C257.686 13.6664 257.355 13.8297 256.981 13.9697C256.617 14.1097 256.202 14.1797 255.735 14.1797ZM253.593 10.0637H257.233C257.233 9.37305 257.084 8.85039 256.785 8.49572C256.496 8.13172 256.085 7.94972 255.553 7.94972C255.077 7.94972 254.648 8.13639 254.265 8.50972C253.892 8.87372 253.668 9.39172 253.593 10.0637ZM262.961 14.1797C262.354 14.1797 261.803 14.0397 261.309 13.7597C260.814 13.4704 260.422 13.0597 260.133 12.5277C259.843 11.9957 259.699 11.3611 259.699 10.6237C259.699 9.87705 259.843 9.23772 260.133 8.70572C260.431 8.17372 260.814 7.76305 261.281 7.47372C261.747 7.18439 262.237 7.03972 262.751 7.03972C263.619 7.03972 264.286 7.32905 264.753 7.90772C265.229 8.48639 265.467 9.26105 265.467 10.2317C265.467 10.3531 265.462 10.4744 265.453 10.5957C265.453 10.7077 265.443 10.8057 265.425 10.8897H260.833C260.879 11.6084 261.103 12.1824 261.505 12.6117C261.915 13.0411 262.447 13.2557 263.101 13.2557C263.427 13.2557 263.726 13.2091 263.997 13.1157C264.277 13.0131 264.543 12.8824 264.795 12.7237L265.201 13.4797C264.911 13.6664 264.58 13.8297 264.207 13.9697C263.843 14.1097 263.427 14.1797 262.961 14.1797ZM260.819 10.0637H264.459C264.459 9.37305 264.309 8.85039 264.011 8.49572C263.721 8.13172 263.311 7.94972 262.779 7.94972C262.303 7.94972 261.873 8.13639 261.491 8.50972C261.117 8.87372 260.893 9.39172 260.819 10.0637Z" fill="#3D5CAC"/>
</svg>
