<svg width="292" height="25" viewBox="0 0 292 25" fill="none" xmlns="http://www.w3.org/2000/svg">
<path d="M140.872 9.87372L140.438 11.2737H143.196L142.762 9.87372C142.594 9.36039 142.435 8.85172 142.286 8.34772C142.136 7.83439 141.987 7.31172 141.838 6.77972H141.782C141.642 7.31172 141.497 7.83439 141.348 8.34772C141.198 8.85172 141.04 9.36039 140.872 9.87372ZM138.072 15.0117L141.18 5.82772H142.496L145.604 15.0117H144.358L143.49 12.2117H140.144L139.262 15.0117H138.072ZM149.397 15.1797C148.548 15.1797 147.866 14.8717 147.353 14.2557C146.84 13.6304 146.583 12.7531 146.583 11.6237C146.583 10.8864 146.718 10.2517 146.989 9.71972C147.269 9.17839 147.633 8.76305 148.081 8.47372C148.538 8.18439 149.024 8.03972 149.537 8.03972C149.929 8.03972 150.27 8.10972 150.559 8.24972C150.848 8.38972 151.142 8.58105 151.441 8.82372L151.385 7.66172V5.04372H152.547V15.0117H151.595L151.497 14.2137H151.455C151.194 14.4751 150.886 14.7037 150.531 14.8997C150.176 15.0864 149.798 15.1797 149.397 15.1797ZM149.649 14.2137C150.246 14.2137 150.825 13.9011 151.385 13.2757V9.71972C151.096 9.45839 150.816 9.27639 150.545 9.17372C150.284 9.06172 150.013 9.00572 149.733 9.00572C149.369 9.00572 149.038 9.11772 148.739 9.34172C148.45 9.55639 148.216 9.85972 148.039 10.2517C147.862 10.6344 147.773 11.0871 147.773 11.6097C147.773 12.4217 147.936 13.0611 148.263 13.5277C148.59 13.9851 149.052 14.2137 149.649 14.2137ZM157.442 15.1797C156.593 15.1797 155.912 14.8717 155.398 14.2557C154.885 13.6304 154.628 12.7531 154.628 11.6237C154.628 10.8864 154.764 10.2517 155.034 9.71972C155.314 9.17839 155.678 8.76305 156.126 8.47372C156.584 8.18439 157.069 8.03972 157.582 8.03972C157.974 8.03972 158.315 8.10972 158.604 8.24972C158.894 8.38972 159.188 8.58105 159.486 8.82372L159.43 7.66172V5.04372H160.592V15.0117H159.64L159.542 14.2137H159.5C159.239 14.4751 158.931 14.7037 158.576 14.8997C158.222 15.0864 157.844 15.1797 157.442 15.1797ZM157.694 14.2137C158.292 14.2137 158.87 13.9011 159.43 13.2757V9.71972C159.141 9.45839 158.861 9.27639 158.59 9.17372C158.329 9.06172 158.058 9.00572 157.778 9.00572C157.414 9.00572 157.083 9.11772 156.784 9.34172C156.495 9.55639 156.262 9.85972 156.084 10.2517C155.907 10.6344 155.818 11.0871 155.818 11.6097C155.818 12.4217 155.982 13.0611 156.308 13.5277C156.635 13.9851 157.097 14.2137 157.694 14.2137ZM167.815 15.1797C167.245 15.1797 166.769 15.0117 166.387 14.6757C166.013 14.3304 165.827 13.8544 165.827 13.2477C165.827 12.5011 166.158 11.9317 166.821 11.5397C167.493 11.1384 168.552 10.8584 169.999 10.6997C169.999 10.4104 169.957 10.1351 169.873 9.87372C169.798 9.61239 169.658 9.40239 169.453 9.24372C169.257 9.07572 168.972 8.99172 168.599 8.99172C168.207 8.99172 167.838 9.06639 167.493 9.21572C167.147 9.36505 166.839 9.53305 166.569 9.71972L166.121 8.92172C166.438 8.71639 166.825 8.52039 167.283 8.33372C167.749 8.13772 168.253 8.03972 168.795 8.03972C169.625 8.03972 170.227 8.29639 170.601 8.80972C170.974 9.31372 171.161 9.99039 171.161 10.8397V15.0117H170.209L170.111 14.1997H170.069C169.751 14.4611 169.401 14.6897 169.019 14.8857C168.645 15.0817 168.244 15.1797 167.815 15.1797ZM168.151 14.2557C168.477 14.2557 168.785 14.1764 169.075 14.0177C169.364 13.8591 169.672 13.6351 169.999 13.3457V11.4557C168.869 11.5957 168.076 11.8057 167.619 12.0857C167.171 12.3657 166.947 12.7251 166.947 13.1637C166.947 13.5464 167.063 13.8264 167.297 14.0037C167.53 14.1717 167.815 14.2557 168.151 14.2557ZM173.582 15.0117V8.20772H174.534L174.632 9.18772H174.674C175 8.86105 175.346 8.59038 175.71 8.37572C176.074 8.15172 176.489 8.03972 176.956 8.03972C177.674 8.03972 178.197 8.26839 178.524 8.72572C178.86 9.17372 179.028 9.83172 179.028 10.6997V15.0117H177.88V10.8537C177.88 10.2191 177.777 9.75705 177.572 9.46772C177.366 9.17839 177.04 9.03372 176.592 9.03372C176.246 9.03372 175.934 9.12239 175.654 9.29972C175.383 9.47705 175.075 9.73839 174.73 10.0837V15.0117H173.582ZM184.164 15.1797C183.613 15.1797 183.095 15.0397 182.61 14.7597C182.134 14.4797 181.746 14.0737 181.448 13.5417C181.158 13.0097 181.014 12.3704 181.014 11.6237C181.014 10.8584 181.158 10.2097 181.448 9.67772C181.746 9.14572 182.134 8.73972 182.61 8.45972C183.095 8.17972 183.613 8.03972 184.164 8.03972C184.724 8.03972 185.242 8.17972 185.718 8.45972C186.194 8.73972 186.576 9.14572 186.866 9.67772C187.164 10.2097 187.314 10.8584 187.314 11.6237C187.314 12.3704 187.164 13.0097 186.866 13.5417C186.576 14.0737 186.194 14.4797 185.718 14.7597C185.242 15.0397 184.724 15.1797 184.164 15.1797ZM184.164 14.2277C184.752 14.2277 185.223 13.9897 185.578 13.5137C185.942 13.0284 186.124 12.3984 186.124 11.6237C186.124 10.8397 185.942 10.2051 185.578 9.71972C185.223 9.23439 184.752 8.99172 184.164 8.99172C183.585 8.99172 183.114 9.23439 182.75 9.71972C182.386 10.2051 182.204 10.8397 182.204 11.6237C182.204 12.3984 182.386 13.0284 182.75 13.5137C183.114 13.9897 183.585 14.2277 184.164 14.2277ZM191.295 15.1797C190.567 15.1797 190.059 14.9697 189.769 14.5497C189.489 14.1297 189.349 13.5837 189.349 12.9117V9.14572H188.341V8.27772L189.405 8.20772L189.545 6.30372H190.511V8.20772H192.345V9.14572H190.511V12.9257C190.511 13.3457 190.586 13.6724 190.735 13.9057C190.894 14.1297 191.169 14.2417 191.561 14.2417C191.683 14.2417 191.813 14.2231 191.953 14.1857C192.093 14.1391 192.219 14.0971 192.331 14.0597L192.555 14.9277C192.369 14.9931 192.163 15.0491 191.939 15.0957C191.725 15.1517 191.51 15.1797 191.295 15.1797ZM194.164 15.0117V5.04372H195.312V7.75972L195.27 9.15972C195.596 8.85172 195.937 8.59038 196.292 8.37572C196.656 8.15172 197.071 8.03972 197.538 8.03972C198.256 8.03972 198.779 8.26839 199.106 8.72572C199.442 9.17372 199.61 9.83172 199.61 10.6997V15.0117H198.462V10.8537C198.462 10.2191 198.359 9.75705 198.154 9.46772C197.948 9.17839 197.622 9.03372 197.174 9.03372C196.828 9.03372 196.516 9.12239 196.236 9.29972C195.965 9.47705 195.657 9.73839 195.312 10.0837V15.0117H194.164ZM204.817 15.1797C204.21 15.1797 203.66 15.0397 203.165 14.7597C202.67 14.4704 202.278 14.0597 201.989 13.5277C201.7 12.9957 201.555 12.3611 201.555 11.6237C201.555 10.8771 201.7 10.2377 201.989 9.70572C202.288 9.17372 202.67 8.76305 203.137 8.47372C203.604 8.18439 204.094 8.03972 204.607 8.03972C205.475 8.03972 206.142 8.32905 206.609 8.90772C207.085 9.48639 207.323 10.2611 207.323 11.2317C207.323 11.3531 207.318 11.4744 207.309 11.5957C207.309 11.7077 207.3 11.8057 207.281 11.8897H202.689C202.736 12.6084 202.96 13.1824 203.361 13.6117C203.772 14.0411 204.304 14.2557 204.957 14.2557C205.284 14.2557 205.582 14.2091 205.853 14.1157C206.133 14.0131 206.399 13.8824 206.651 13.7237L207.057 14.4797C206.768 14.6664 206.436 14.8297 206.063 14.9697C205.699 15.1097 205.284 15.1797 204.817 15.1797ZM202.675 11.0637H206.315C206.315 10.3731 206.166 9.85039 205.867 9.49572C205.578 9.13172 205.167 8.94972 204.635 8.94972C204.159 8.94972 203.73 9.13639 203.347 9.50972C202.974 9.87372 202.75 10.3917 202.675 11.0637ZM209.284 15.0117V8.20772H210.236L210.334 9.43972H210.376C210.61 9.01038 210.894 8.66972 211.23 8.41772C211.566 8.16572 211.926 8.03972 212.308 8.03972C212.579 8.03972 212.822 8.08639 213.036 8.17972L212.812 9.18772C212.7 9.15039 212.598 9.12239 212.504 9.10372C212.411 9.08505 212.294 9.07572 212.154 9.07572C211.865 9.07572 211.562 9.19239 211.244 9.42572C210.936 9.65905 210.666 10.0651 210.432 10.6437V15.0117H209.284ZM218.718 15.1797C218.289 15.1797 217.976 15.0491 217.78 14.7877C217.594 14.5171 217.5 14.1344 217.5 13.6397V5.04372H218.648V13.7237C218.648 13.9011 218.681 14.0317 218.746 14.1157C218.812 14.1904 218.886 14.2277 218.97 14.2277C219.008 14.2277 219.04 14.2277 219.068 14.2277C219.106 14.2184 219.157 14.2091 219.222 14.1997L219.376 15.0677C219.302 15.1051 219.213 15.1331 219.11 15.1517C219.008 15.1704 218.877 15.1797 218.718 15.1797ZM223.995 15.1797C223.444 15.1797 222.926 15.0397 222.441 14.7597C221.965 14.4797 221.578 14.0737 221.279 13.5417C220.99 13.0097 220.845 12.3704 220.845 11.6237C220.845 10.8584 220.99 10.2097 221.279 9.67772C221.578 9.14572 221.965 8.73972 222.441 8.45972C222.926 8.17972 223.444 8.03972 223.995 8.03972C224.555 8.03972 225.073 8.17972 225.549 8.45972C226.025 8.73972 226.408 9.14572 226.697 9.67772C226.996 10.2097 227.145 10.8584 227.145 11.6237C227.145 12.3704 226.996 13.0097 226.697 13.5417C226.408 14.0737 226.025 14.4797 225.549 14.7597C225.073 15.0397 224.555 15.1797 223.995 15.1797ZM223.995 14.2277C224.583 14.2277 225.054 13.9897 225.409 13.5137C225.773 13.0284 225.955 12.3984 225.955 11.6237C225.955 10.8397 225.773 10.2051 225.409 9.71972C225.054 9.23439 224.583 8.99172 223.995 8.99172C223.416 8.99172 222.945 9.23439 222.581 9.71972C222.217 10.2051 222.035 10.8397 222.035 11.6237C222.035 12.3984 222.217 13.0284 222.581 13.5137C222.945 13.9897 223.416 14.2277 223.995 14.2277ZM231.905 15.1797C231.307 15.1797 230.766 15.0397 230.281 14.7597C229.795 14.4797 229.413 14.0737 229.133 13.5417C228.853 13.0097 228.713 12.3704 228.713 11.6237C228.713 10.8584 228.862 10.2097 229.161 9.67772C229.469 9.14572 229.87 8.73972 230.365 8.45972C230.869 8.17972 231.41 8.03972 231.989 8.03972C232.437 8.03972 232.819 8.11905 233.137 8.27772C233.463 8.43639 233.743 8.62305 233.977 8.83772L233.389 9.59372C233.193 9.41639 232.983 9.27172 232.759 9.15972C232.544 9.04772 232.301 8.99172 232.031 8.99172C231.62 8.99172 231.251 9.10372 230.925 9.32772C230.607 9.54239 230.355 9.85039 230.169 10.2517C229.991 10.6437 229.903 11.1011 229.903 11.6237C229.903 12.3984 230.094 13.0284 230.477 13.5137C230.869 13.9897 231.377 14.2277 232.003 14.2277C232.32 14.2277 232.614 14.1624 232.885 14.0317C233.155 13.8917 233.393 13.7284 233.599 13.5417L234.103 14.3117C233.795 14.5824 233.454 14.7971 233.081 14.9557C232.707 15.1051 232.315 15.1797 231.905 15.1797ZM237.313 15.1797C236.743 15.1797 236.267 15.0117 235.885 14.6757C235.511 14.3304 235.325 13.8544 235.325 13.2477C235.325 12.5011 235.656 11.9317 236.319 11.5397C236.991 11.1384 238.05 10.8584 239.497 10.6997C239.497 10.4104 239.455 10.1351 239.371 9.87372C239.296 9.61239 239.156 9.40239 238.951 9.24372C238.755 9.07572 238.47 8.99172 238.097 8.99172C237.705 8.99172 237.336 9.06639 236.991 9.21572C236.645 9.36505 236.337 9.53305 236.067 9.71972L235.619 8.92172C235.936 8.71639 236.323 8.52039 236.781 8.33372C237.247 8.13772 237.751 8.03972 238.293 8.03972C239.123 8.03972 239.725 8.29639 240.099 8.80972C240.472 9.31372 240.659 9.99039 240.659 10.8397V15.0117H239.707L239.609 14.1997H239.567C239.249 14.4611 238.899 14.6897 238.517 14.8857C238.143 15.0817 237.742 15.1797 237.313 15.1797ZM237.649 14.2557C237.975 14.2557 238.283 14.1764 238.573 14.0177C238.862 13.8591 239.17 13.6351 239.497 13.3457V11.4557C238.367 11.5957 237.574 11.8057 237.117 12.0857C236.669 12.3657 236.445 12.7251 236.445 13.1637C236.445 13.5464 236.561 13.8264 236.795 14.0037C237.028 14.1717 237.313 14.2557 237.649 14.2557ZM245.03 15.1797C244.302 15.1797 243.793 14.9697 243.504 14.5497C243.224 14.1297 243.084 13.5837 243.084 12.9117V9.14572H242.076V8.27772L243.14 8.20772L243.28 6.30372H244.246V8.20772H246.08V9.14572H244.246V12.9257C244.246 13.3457 244.321 13.6724 244.47 13.9057C244.629 14.1297 244.904 14.2417 245.296 14.2417C245.417 14.2417 245.548 14.2231 245.688 14.1857C245.828 14.1391 245.954 14.0971 246.066 14.0597L246.29 14.9277C246.103 14.9931 245.898 15.0491 245.674 15.0957C245.459 15.1517 245.245 15.1797 245.03 15.1797ZM247.899 15.0117V8.20772H249.047V15.0117H247.899ZM248.487 6.80772C248.263 6.80772 248.076 6.74239 247.927 6.61172C247.787 6.47172 247.717 6.28505 247.717 6.05172C247.717 5.82772 247.787 5.64572 247.927 5.50572C248.076 5.36572 248.263 5.29572 248.487 5.29572C248.711 5.29572 248.893 5.36572 249.033 5.50572C249.182 5.64572 249.257 5.82772 249.257 6.05172C249.257 6.28505 249.182 6.47172 249.033 6.61172C248.893 6.74239 248.711 6.80772 248.487 6.80772ZM254.27 15.1797C253.719 15.1797 253.201 15.0397 252.716 14.7597C252.24 14.4797 251.853 14.0737 251.554 13.5417C251.265 13.0097 251.12 12.3704 251.12 11.6237C251.12 10.8584 251.265 10.2097 251.554 9.67772C251.853 9.14572 252.24 8.73972 252.716 8.45972C253.201 8.17972 253.719 8.03972 254.27 8.03972C254.83 8.03972 255.348 8.17972 255.824 8.45972C256.3 8.73972 256.683 9.14572 256.972 9.67772C257.271 10.2097 257.42 10.8584 257.42 11.6237C257.42 12.3704 257.271 13.0097 256.972 13.5417C256.683 14.0737 256.3 14.4797 255.824 14.7597C255.348 15.0397 254.83 15.1797 254.27 15.1797ZM254.27 14.2277C254.858 14.2277 255.329 13.9897 255.684 13.5137C256.048 13.0284 256.23 12.3984 256.23 11.6237C256.23 10.8397 256.048 10.2051 255.684 9.71972C255.329 9.23439 254.858 8.99172 254.27 8.99172C253.691 8.99172 253.22 9.23439 252.856 9.71972C252.492 10.2051 252.31 10.8397 252.31 11.6237C252.31 12.3984 252.492 13.0284 252.856 13.5137C253.22 13.9897 253.691 14.2277 254.27 14.2277ZM259.492 15.0117V8.20772H260.444L260.542 9.18772H260.584C260.91 8.86105 261.256 8.59038 261.62 8.37572C261.984 8.15172 262.399 8.03972 262.866 8.03972C263.584 8.03972 264.107 8.26839 264.434 8.72572C264.77 9.17372 264.938 9.83172 264.938 10.6997V15.0117H263.79V10.8537C263.79 10.2191 263.687 9.75705 263.482 9.46772C263.276 9.17839 262.95 9.03372 262.502 9.03372C262.156 9.03372 261.844 9.12239 261.564 9.29972C261.293 9.47705 260.985 9.73839 260.64 10.0837V15.0117H259.492Z" fill="#3D5CAC"/>
<path d="M285.107 12.0706L273.036 12.0706" stroke="#3D5CAC" strokeWidth="3" stroke-linecap="round" stroke-linejoin="round"/>
<path d="M279.071 6.03489L279.071 18.1057" stroke="#3D5CAC" strokeWidth="3" stroke-linecap="round" stroke-linejoin="round"/>
</svg>
