<svg width="21" height="23" viewBox="0 0 21 23" fill="none" xmlns="http://www.w3.org/2000/svg">
<path d="M6.78261 20.04C6.57589 20.0372 6.3784 19.9503 6.23221 19.7979C6.08602 19.6455 6.0027 19.4395 6 19.224V1.816C6 1.59958 6.08245 1.39203 6.22922 1.239C6.37599 1.08597 6.57505 1 6.78261 1C6.99017 1 7.18923 1.08597 7.336 1.239C7.48276 1.39203 7.56522 1.59958 7.56522 1.816V19.224C7.56251 19.4395 7.47919 19.6455 7.33301 19.7979C7.18682 19.9503 6.98933 20.0372 6.78261 20.04Z" fill="#160449" stroke="#160449"/>
<path d="M8.56522 17.697H1.78261C1.57505 17.697 1.37599 17.611 1.22922 17.458C1.08245 17.305 1 17.0974 1 16.881C1 16.6646 1.08245 16.457 1.22922 16.304C1.37599 16.151 1.57505 16.065 1.78261 16.065H8.56522C9.25552 16.1292 9.94247 15.9088 10.4789 15.4513C11.5504 14.5372 11.5504 12.6969 10.4789 11.7828C9.94247 11.3252 9.25552 11.1049 8.56522 11.169H5.43478C4.88642 11.2059 4.33648 11.1295 3.81651 10.9442C3.29654 10.7589 2.81677 10.4684 2.40473 10.0893C1.9927 9.71025 1.65651 9.25008 1.41545 8.73521C1.17439 8.22034 1.03321 7.66091 1 7.08901C1.03321 6.51712 1.17439 5.95769 1.41545 5.44282C1.65651 4.92795 1.9927 4.46778 2.40473 4.08871C2.81677 3.70963 3.29654 3.41912 3.81651 3.23384C4.33648 3.04856 4.88642 2.97216 5.43478 3.00901H11.1739C11.3815 3.00901 11.5805 3.09499 11.7273 3.24801C11.8741 3.40104 11.9565 3.6086 11.9565 3.82501C11.9565 4.04143 11.8741 4.24898 11.7273 4.40201C11.5805 4.55504 11.3815 4.64101 11.1739 4.64101H5.43478C4.74448 4.57687 4.05753 4.79719 3.52115 5.25478C2.44963 6.16888 2.44963 8.00915 3.52115 8.92325C4.05753 9.38084 4.74448 9.60116 5.43478 9.53701H8.56522C9.11358 9.50016 9.66352 9.57656 10.1835 9.76184C10.7035 9.94712 11.1832 10.2376 11.5953 10.6167C12.0073 10.9958 12.3435 11.4559 12.5846 11.9708C12.8256 12.4857 12.9668 13.0451 13 13.617C12.9668 14.1889 12.8256 14.7483 12.5846 15.2632C12.3435 15.7781 12.0073 16.2382 11.5953 16.6173C11.1832 16.9964 10.7035 17.2869 10.1835 17.4722C9.66352 17.6575 9.11358 17.7339 8.56522 17.697Z" fill="#160449" stroke="#160449"/>
<path d="M14 12L14 20" stroke="#F2F2F2" strokeWidth="6" strokeLinecap="round"/>
<path d="M18 16L10 16" stroke="#F2F2F2" strokeWidth="6" strokeLinecap="round"/>
<path d="M14 12L14 20" stroke="#160449" strokeWidth="2.5" strokeLinecap="round"/>
<path d="M18 16L10 16" stroke="#160449" strokeWidth="2.5" strokeLinecap="round"/>
</svg>
