<svg width="334" height="62" viewBox="0 0 334 62" fill="none" xmlns="http://www.w3.org/2000/svg">
<g filter="url(#filter0_dd_3789_16631)">
<rect x="3" y="3" width="328" height="54" rx="15" fill="#F2F2F2"/>
<rect x="36" y="3" width="261" height="54" rx="10" fill="#F2F2F2"/>
<rect width="24" height="24" transform="translate(51 18)" fill="#F2F2F2"/>
<path fillRule="evenodd" clipRule="evenodd" d="M74.04 30.2605C74.04 29.445 73.9668 28.6609 73.8309 27.9082H63V32.3566H69.1891C68.9225 33.7941 68.1123 35.0121 66.8943 35.8275V38.713H70.6109C72.7855 36.7109 74.04 33.7627 74.04 30.2605Z" fill="#4285F4"/>
<path fillRule="evenodd" clipRule="evenodd" d="M62.9999 41.5005C66.1049 41.5005 68.7081 40.4708 70.6108 38.7144L66.8942 35.829C65.8645 36.519 64.5472 36.9267 62.9999 36.9267C60.0047 36.9267 57.4695 34.9037 56.5651 32.1855H52.7231V35.1651C54.6154 38.9235 58.5045 41.5005 62.9999 41.5005Z" fill="#34A853"/>
<path fillRule="evenodd" clipRule="evenodd" d="M56.5652 32.1855C56.3352 31.4955 56.2045 30.7584 56.2045 30.0005C56.2045 29.2425 56.3352 28.5055 56.5652 27.8155V24.8359H52.7232C51.9443 26.3884 51.5 28.1448 51.5 30.0005C51.5 31.8562 51.9443 33.6125 52.7232 35.165L56.5652 32.1855Z" fill="#FBBC05"/>
<path fillRule="evenodd" clipRule="evenodd" d="M62.9999 23.0739C64.6883 23.0739 66.2042 23.6541 67.3961 24.7936L70.6945 21.4952C68.7029 19.6395 66.0997 18.5 62.9999 18.5C58.5045 18.5 54.6154 21.077 52.7231 24.8355L56.5651 27.815C57.4695 25.0968 60.0047 23.0739 62.9999 23.0739Z" fill="#EA4335"/>
<path d="M99.8438 31.3711H102.285C102.207 32.3021 101.947 33.1322 101.504 33.8613C101.061 34.584 100.439 35.1536 99.6387 35.5703C98.8379 35.987 97.8646 36.1953 96.7188 36.1953C95.8398 36.1953 95.0488 36.0391 94.3457 35.7266C93.6426 35.4076 93.0404 34.9583 92.5391 34.3789C92.0378 33.793 91.6536 33.0866 91.3867 32.2598C91.1263 31.4329 90.9961 30.5085 90.9961 29.4863V28.3047C90.9961 27.2826 91.1296 26.3581 91.3965 25.5312C91.6699 24.7044 92.0605 23.998 92.5684 23.4121C93.0762 22.8197 93.6849 22.3672 94.3945 22.0547C95.1107 21.7422 95.9147 21.5859 96.8066 21.5859C97.9395 21.5859 98.8965 21.7943 99.6777 22.2109C100.459 22.6276 101.064 23.2038 101.494 23.9395C101.93 24.6751 102.197 25.5182 102.295 26.4688H99.8535C99.7884 25.8568 99.6452 25.3327 99.4238 24.8965C99.209 24.4603 98.89 24.1283 98.4668 23.9004C98.0436 23.666 97.4902 23.5488 96.8066 23.5488C96.2467 23.5488 95.7585 23.653 95.3418 23.8613C94.9251 24.0697 94.5768 24.3757 94.2969 24.7793C94.0169 25.1829 93.8053 25.681 93.6621 26.2734C93.5254 26.8594 93.457 27.5299 93.457 28.2852V29.4863C93.457 30.2025 93.5189 30.8535 93.6426 31.4395C93.7728 32.0189 93.9681 32.5169 94.2285 32.9336C94.4954 33.3503 94.834 33.6725 95.2441 33.9004C95.6543 34.1283 96.1458 34.2422 96.7188 34.2422C97.4154 34.2422 97.9785 34.1315 98.4082 33.9102C98.8444 33.6888 99.1732 33.3665 99.3945 32.9434C99.6224 32.5137 99.7721 31.9896 99.8438 31.3711ZM103.828 30.834V30.6094C103.828 29.8477 103.939 29.1413 104.16 28.4902C104.382 27.8327 104.701 27.263 105.117 26.7812C105.54 26.293 106.055 25.9154 106.66 25.6484C107.272 25.375 107.962 25.2383 108.73 25.2383C109.505 25.2383 110.195 25.375 110.801 25.6484C111.413 25.9154 111.93 26.293 112.354 26.7812C112.777 27.263 113.099 27.8327 113.32 28.4902C113.542 29.1413 113.652 29.8477 113.652 30.6094V30.834C113.652 31.5957 113.542 32.3021 113.32 32.9531C113.099 33.6042 112.777 34.1738 112.354 34.6621C111.93 35.1439 111.416 35.5215 110.811 35.7949C110.205 36.0618 109.518 36.1953 108.75 36.1953C107.975 36.1953 107.282 36.0618 106.67 35.7949C106.064 35.5215 105.55 35.1439 105.127 34.6621C104.704 34.1738 104.382 33.6042 104.16 32.9531C103.939 32.3021 103.828 31.5957 103.828 30.834ZM106.182 30.6094V30.834C106.182 31.3092 106.23 31.7585 106.328 32.1816C106.426 32.6048 106.579 32.9759 106.787 33.2949C106.995 33.6139 107.262 33.8646 107.588 34.0469C107.913 34.2292 108.301 34.3203 108.75 34.3203C109.186 34.3203 109.564 34.2292 109.883 34.0469C110.208 33.8646 110.475 33.6139 110.684 33.2949C110.892 32.9759 111.045 32.6048 111.143 32.1816C111.247 31.7585 111.299 31.3092 111.299 30.834V30.6094C111.299 30.1406 111.247 29.6979 111.143 29.2812C111.045 28.8581 110.889 28.4837 110.674 28.1582C110.465 27.8327 110.199 27.5788 109.873 27.3965C109.554 27.2077 109.173 27.1133 108.73 27.1133C108.288 27.1133 107.904 27.2077 107.578 27.3965C107.259 27.5788 106.995 27.8327 106.787 28.1582C106.579 28.4837 106.426 28.8581 106.328 29.2812C106.23 29.6979 106.182 30.1406 106.182 30.6094ZM117.959 27.6895V36H115.605V25.4336H117.822L117.959 27.6895ZM117.539 30.3262L116.777 30.3164C116.784 29.5677 116.888 28.8809 117.09 28.2559C117.298 27.6309 117.585 27.0938 117.949 26.6445C118.32 26.1953 118.763 25.8503 119.277 25.6094C119.792 25.362 120.365 25.2383 120.996 25.2383C121.504 25.2383 121.963 25.3099 122.373 25.4531C122.79 25.5898 123.145 25.8145 123.438 26.127C123.737 26.4395 123.965 26.8464 124.121 27.3477C124.277 27.8424 124.355 28.4512 124.355 29.1738V36H121.992V29.1641C121.992 28.6562 121.917 28.2559 121.768 27.9629C121.624 27.6634 121.413 27.4518 121.133 27.3281C120.859 27.1979 120.518 27.1328 120.107 27.1328C119.704 27.1328 119.342 27.2174 119.023 27.3867C118.704 27.556 118.434 27.7871 118.213 28.0801C117.998 28.373 117.832 28.7116 117.715 29.0957C117.598 29.4798 117.539 29.89 117.539 30.3262ZM131.602 25.4336V27.1523H125.645V25.4336H131.602ZM127.363 22.8457H129.717V33.0801C129.717 33.4056 129.762 33.6562 129.854 33.832C129.951 34.0013 130.085 34.1152 130.254 34.1738C130.423 34.2324 130.622 34.2617 130.85 34.2617C131.012 34.2617 131.169 34.252 131.318 34.2324C131.468 34.2129 131.589 34.1934 131.68 34.1738L131.689 35.9707C131.494 36.0293 131.266 36.0814 131.006 36.127C130.752 36.1725 130.459 36.1953 130.127 36.1953C129.587 36.1953 129.108 36.1009 128.691 35.9121C128.275 35.7168 127.949 35.401 127.715 34.9648C127.48 34.5286 127.363 33.9492 127.363 33.2266V22.8457ZM135.938 25.4336V36H133.574V25.4336H135.938ZM133.418 22.6602C133.418 22.3021 133.535 22.0059 133.77 21.7715C134.01 21.5306 134.342 21.4102 134.766 21.4102C135.182 21.4102 135.511 21.5306 135.752 21.7715C135.993 22.0059 136.113 22.3021 136.113 22.6602C136.113 23.0117 135.993 23.3047 135.752 23.5391C135.511 23.7734 135.182 23.8906 134.766 23.8906C134.342 23.8906 134.01 23.7734 133.77 23.5391C133.535 23.3047 133.418 23.0117 133.418 22.6602ZM140.85 27.6895V36H138.496V25.4336H140.713L140.85 27.6895ZM140.43 30.3262L139.668 30.3164C139.674 29.5677 139.779 28.8809 139.98 28.2559C140.189 27.6309 140.475 27.0938 140.84 26.6445C141.211 26.1953 141.654 25.8503 142.168 25.6094C142.682 25.362 143.255 25.2383 143.887 25.2383C144.395 25.2383 144.854 25.3099 145.264 25.4531C145.68 25.5898 146.035 25.8145 146.328 26.127C146.628 26.4395 146.855 26.8464 147.012 27.3477C147.168 27.8424 147.246 28.4512 147.246 29.1738V36H144.883V29.1641C144.883 28.6562 144.808 28.2559 144.658 27.9629C144.515 27.6634 144.303 27.4518 144.023 27.3281C143.75 27.1979 143.408 27.1328 142.998 27.1328C142.594 27.1328 142.233 27.2174 141.914 27.3867C141.595 27.556 141.325 27.7871 141.104 28.0801C140.889 28.373 140.723 28.7116 140.605 29.0957C140.488 29.4798 140.43 29.89 140.43 30.3262ZM156.006 33.5098V25.4336H158.369V36H156.143L156.006 33.5098ZM156.338 31.3125L157.129 31.293C157.129 32.0026 157.051 32.6569 156.895 33.2559C156.738 33.8483 156.497 34.3659 156.172 34.8086C155.846 35.2448 155.43 35.5866 154.922 35.834C154.414 36.0749 153.805 36.1953 153.096 36.1953C152.581 36.1953 152.109 36.1204 151.68 35.9707C151.25 35.821 150.879 35.5898 150.566 35.2773C150.26 34.9648 150.023 34.5579 149.854 34.0566C149.684 33.5553 149.6 32.9564 149.6 32.2598V25.4336H151.953V32.2793C151.953 32.6634 151.999 32.9857 152.09 33.2461C152.181 33.5 152.305 33.7051 152.461 33.8613C152.617 34.0176 152.799 34.1283 153.008 34.1934C153.216 34.2585 153.438 34.291 153.672 34.291C154.342 34.291 154.87 34.1608 155.254 33.9004C155.645 33.6335 155.921 33.2754 156.084 32.8262C156.253 32.377 156.338 31.8724 156.338 31.3125ZM165.439 36.1953C164.658 36.1953 163.952 36.0684 163.32 35.8145C162.695 35.554 162.161 35.1927 161.719 34.7305C161.283 34.2682 160.947 33.7246 160.713 33.0996C160.479 32.4746 160.361 31.8008 160.361 31.0781V30.6875C160.361 29.8607 160.482 29.112 160.723 28.4414C160.964 27.7708 161.299 27.1979 161.729 26.7227C162.158 26.2409 162.666 25.873 163.252 25.6191C163.838 25.3652 164.473 25.2383 165.156 25.2383C165.911 25.2383 166.572 25.3652 167.139 25.6191C167.705 25.873 168.174 26.2311 168.545 26.6934C168.923 27.1491 169.202 27.6927 169.385 28.3242C169.574 28.9557 169.668 29.6523 169.668 30.4141V31.4199H161.504V29.7305H167.344V29.5449C167.331 29.1217 167.246 28.7246 167.09 28.3535C166.94 27.9824 166.709 27.6829 166.396 27.4551C166.084 27.2272 165.667 27.1133 165.146 27.1133C164.756 27.1133 164.408 27.1979 164.102 27.3672C163.802 27.5299 163.551 27.7676 163.35 28.0801C163.148 28.3926 162.992 28.7702 162.881 29.2129C162.777 29.6491 162.725 30.1406 162.725 30.6875V31.0781C162.725 31.5404 162.786 31.9701 162.91 32.3672C163.04 32.7578 163.229 33.0996 163.477 33.3926C163.724 33.6855 164.023 33.9167 164.375 34.0859C164.727 34.2487 165.127 34.3301 165.576 34.3301C166.143 34.3301 166.647 34.2161 167.09 33.9883C167.533 33.7604 167.917 33.4382 168.242 33.0215L169.482 34.2227C169.255 34.5547 168.958 34.8737 168.594 35.1797C168.229 35.4792 167.783 35.7233 167.256 35.9121C166.735 36.1009 166.13 36.1953 165.439 36.1953ZM179.355 33.6562L181.797 25.4336H183.301L182.891 27.8945L180.43 36H179.082L179.355 33.6562ZM177.92 25.4336L179.824 33.6953L179.98 36H178.477L175.615 25.4336H177.92ZM185.586 33.5977L187.432 25.4336H189.727L186.875 36H185.371L185.586 33.5977ZM183.555 25.4336L185.967 33.5586L186.27 36H184.922L182.432 27.8848L182.021 25.4336H183.555ZM193.848 25.4336V36H191.484V25.4336H193.848ZM191.328 22.6602C191.328 22.3021 191.445 22.0059 191.68 21.7715C191.921 21.5306 192.253 21.4102 192.676 21.4102C193.092 21.4102 193.421 21.5306 193.662 21.7715C193.903 22.0059 194.023 22.3021 194.023 22.6602C194.023 23.0117 193.903 23.3047 193.662 23.5391C193.421 23.7734 193.092 23.8906 192.676 23.8906C192.253 23.8906 191.921 23.7734 191.68 23.5391C191.445 23.3047 191.328 23.0117 191.328 22.6602ZM201.27 25.4336V27.1523H195.312V25.4336H201.27ZM197.031 22.8457H199.385V33.0801C199.385 33.4056 199.43 33.6562 199.521 33.832C199.619 34.0013 199.753 34.1152 199.922 34.1738C200.091 34.2324 200.29 34.2617 200.518 34.2617C200.68 34.2617 200.837 34.252 200.986 34.2324C201.136 34.2129 201.257 34.1934 201.348 34.1738L201.357 35.9707C201.162 36.0293 200.934 36.0814 200.674 36.127C200.42 36.1725 200.127 36.1953 199.795 36.1953C199.255 36.1953 198.776 36.1009 198.359 35.9121C197.943 35.7168 197.617 35.401 197.383 34.9648C197.148 34.5286 197.031 33.9492 197.031 33.2266V22.8457ZM205.41 21V36H203.066V21H205.41ZM205 30.3262L204.238 30.3164C204.245 29.5872 204.346 28.9134 204.541 28.2949C204.743 27.6764 205.023 27.1393 205.381 26.6836C205.745 26.2214 206.182 25.8665 206.689 25.6191C207.197 25.3652 207.76 25.2383 208.379 25.2383C208.9 25.2383 209.368 25.3099 209.785 25.4531C210.208 25.5964 210.573 25.8275 210.879 26.1465C211.185 26.459 211.416 26.8691 211.572 27.377C211.735 27.8783 211.816 28.4902 211.816 29.2129V36H209.453V29.1934C209.453 28.6855 209.378 28.2819 209.229 27.9824C209.085 27.6829 208.874 27.4681 208.594 27.3379C208.314 27.2012 207.972 27.1328 207.568 27.1328C207.145 27.1328 206.771 27.2174 206.445 27.3867C206.126 27.556 205.859 27.7871 205.645 28.0801C205.43 28.373 205.267 28.7116 205.156 29.0957C205.052 29.4798 205 29.89 205 30.3262ZM230.332 28.7344V34.1641C230.13 34.431 229.814 34.724 229.385 35.043C228.962 35.3555 228.398 35.6257 227.695 35.8535C226.992 36.0814 226.117 36.1953 225.068 36.1953C224.176 36.1953 223.359 36.0456 222.617 35.7461C221.875 35.4401 221.234 34.9941 220.693 34.4082C220.16 33.8223 219.746 33.1094 219.453 32.2695C219.16 31.4232 219.014 30.4596 219.014 29.3789V28.3926C219.014 27.3184 219.147 26.3613 219.414 25.5215C219.688 24.6751 220.078 23.959 220.586 23.373C221.094 22.7871 221.706 22.3444 222.422 22.0449C223.145 21.7389 223.962 21.5859 224.873 21.5859C226.038 21.5859 227.002 21.7812 227.764 22.1719C228.532 22.556 229.124 23.0898 229.541 23.7734C229.958 24.457 230.221 25.2383 230.332 26.1172H227.93C227.852 25.6224 227.699 25.1797 227.471 24.7891C227.249 24.3984 226.93 24.0924 226.514 23.8711C226.104 23.6432 225.57 23.5293 224.912 23.5293C224.346 23.5293 223.848 23.6367 223.418 23.8516C222.988 24.0664 222.63 24.3822 222.344 24.7988C222.064 25.2155 221.852 25.7233 221.709 26.3223C221.566 26.9212 221.494 27.6048 221.494 28.373V29.3789C221.494 30.1602 221.576 30.8535 221.738 31.459C221.908 32.0645 222.148 32.5755 222.461 32.9922C222.78 33.4089 223.167 33.7246 223.623 33.9395C224.079 34.1478 224.593 34.252 225.166 34.252C225.726 34.252 226.185 34.2064 226.543 34.1152C226.901 34.0176 227.184 33.9036 227.393 33.7734C227.607 33.6367 227.773 33.5065 227.891 33.3828V30.5605H224.932V28.7344H230.332ZM232.363 30.834V30.6094C232.363 29.8477 232.474 29.1413 232.695 28.4902C232.917 27.8327 233.236 27.263 233.652 26.7812C234.076 26.293 234.59 25.9154 235.195 25.6484C235.807 25.375 236.497 25.2383 237.266 25.2383C238.04 25.2383 238.73 25.375 239.336 25.6484C239.948 25.9154 240.465 26.293 240.889 26.7812C241.312 27.263 241.634 27.8327 241.855 28.4902C242.077 29.1413 242.188 29.8477 242.188 30.6094V30.834C242.188 31.5957 242.077 32.3021 241.855 32.9531C241.634 33.6042 241.312 34.1738 240.889 34.6621C240.465 35.1439 239.951 35.5215 239.346 35.7949C238.74 36.0618 238.053 36.1953 237.285 36.1953C236.51 36.1953 235.817 36.0618 235.205 35.7949C234.6 35.5215 234.085 35.1439 233.662 34.6621C233.239 34.1738 232.917 33.6042 232.695 32.9531C232.474 32.3021 232.363 31.5957 232.363 30.834ZM234.717 30.6094V30.834C234.717 31.3092 234.766 31.7585 234.863 32.1816C234.961 32.6048 235.114 32.9759 235.322 33.2949C235.531 33.6139 235.798 33.8646 236.123 34.0469C236.449 34.2292 236.836 34.3203 237.285 34.3203C237.721 34.3203 238.099 34.2292 238.418 34.0469C238.743 33.8646 239.01 33.6139 239.219 33.2949C239.427 32.9759 239.58 32.6048 239.678 32.1816C239.782 31.7585 239.834 31.3092 239.834 30.834V30.6094C239.834 30.1406 239.782 29.6979 239.678 29.2812C239.58 28.8581 239.424 28.4837 239.209 28.1582C239.001 27.8327 238.734 27.5788 238.408 27.3965C238.089 27.2077 237.708 27.1133 237.266 27.1133C236.823 27.1133 236.439 27.2077 236.113 27.3965C235.794 27.5788 235.531 27.8327 235.322 28.1582C235.114 28.4837 234.961 28.8581 234.863 29.2812C234.766 29.6979 234.717 30.1406 234.717 30.6094ZM243.711 30.834V30.6094C243.711 29.8477 243.822 29.1413 244.043 28.4902C244.264 27.8327 244.583 27.263 245 26.7812C245.423 26.293 245.938 25.9154 246.543 25.6484C247.155 25.375 247.845 25.2383 248.613 25.2383C249.388 25.2383 250.078 25.375 250.684 25.6484C251.296 25.9154 251.813 26.293 252.236 26.7812C252.66 27.263 252.982 27.8327 253.203 28.4902C253.424 29.1413 253.535 29.8477 253.535 30.6094V30.834C253.535 31.5957 253.424 32.3021 253.203 32.9531C252.982 33.6042 252.66 34.1738 252.236 34.6621C251.813 35.1439 251.299 35.5215 250.693 35.7949C250.088 36.0618 249.401 36.1953 248.633 36.1953C247.858 36.1953 247.165 36.0618 246.553 35.7949C245.947 35.5215 245.433 35.1439 245.01 34.6621C244.587 34.1738 244.264 33.6042 244.043 32.9531C243.822 32.3021 243.711 31.5957 243.711 30.834ZM246.064 30.6094V30.834C246.064 31.3092 246.113 31.7585 246.211 32.1816C246.309 32.6048 246.462 32.9759 246.67 33.2949C246.878 33.6139 247.145 33.8646 247.471 34.0469C247.796 34.2292 248.184 34.3203 248.633 34.3203C249.069 34.3203 249.447 34.2292 249.766 34.0469C250.091 33.8646 250.358 33.6139 250.566 33.2949C250.775 32.9759 250.928 32.6048 251.025 32.1816C251.13 31.7585 251.182 31.3092 251.182 30.834V30.6094C251.182 30.1406 251.13 29.6979 251.025 29.2812C250.928 28.8581 250.771 28.4837 250.557 28.1582C250.348 27.8327 250.081 27.5788 249.756 27.3965C249.437 27.2077 249.056 27.1133 248.613 27.1133C248.171 27.1133 247.786 27.2077 247.461 27.3965C247.142 27.5788 246.878 27.8327 246.67 28.1582C246.462 28.4837 246.309 28.8581 246.211 29.2812C246.113 29.6979 246.064 30.1406 246.064 30.6094ZM262.275 25.4336H264.414V35.707C264.414 36.6576 264.212 37.4648 263.809 38.1289C263.405 38.793 262.842 39.2975 262.119 39.6426C261.396 39.9941 260.56 40.1699 259.609 40.1699C259.206 40.1699 258.757 40.1113 258.262 39.9941C257.773 39.877 257.298 39.6882 256.836 39.4277C256.38 39.1738 255.999 38.8385 255.693 38.4219L256.797 37.0352C257.174 37.4844 257.591 37.8132 258.047 38.0215C258.503 38.2298 258.981 38.334 259.482 38.334C260.023 38.334 260.482 38.2331 260.859 38.0312C261.243 37.8359 261.54 37.5462 261.748 37.1621C261.956 36.778 262.061 36.3092 262.061 35.7559V27.8262L262.275 25.4336ZM255.098 30.834V30.6289C255.098 29.8281 255.195 29.099 255.391 28.4414C255.586 27.7773 255.866 27.2077 256.23 26.7324C256.595 26.2507 257.038 25.8828 257.559 25.6289C258.079 25.3685 258.669 25.2383 259.326 25.2383C260.01 25.2383 260.592 25.362 261.074 25.6094C261.562 25.8568 261.969 26.2116 262.295 26.6738C262.62 27.1296 262.874 27.6764 263.057 28.3145C263.245 28.946 263.385 29.6491 263.477 30.4238V31.0781C263.392 31.8333 263.249 32.5234 263.047 33.1484C262.845 33.7734 262.578 34.3138 262.246 34.7695C261.914 35.2253 261.504 35.5768 261.016 35.8242C260.534 36.0716 259.964 36.1953 259.307 36.1953C258.662 36.1953 258.079 36.0618 257.559 35.7949C257.044 35.528 256.602 35.1536 256.23 34.6719C255.866 34.1901 255.586 33.6237 255.391 32.9727C255.195 32.3151 255.098 31.6022 255.098 30.834ZM257.451 30.6289V30.834C257.451 31.3158 257.497 31.765 257.588 32.1816C257.686 32.5983 257.832 32.9661 258.027 33.2852C258.229 33.5977 258.483 33.8451 258.789 34.0273C259.102 34.2031 259.469 34.291 259.893 34.291C260.446 34.291 260.898 34.1738 261.25 33.9395C261.608 33.7051 261.882 33.3893 262.07 32.9922C262.266 32.5885 262.402 32.1393 262.48 31.6445V29.877C262.441 29.4928 262.36 29.1348 262.236 28.8027C262.119 28.4707 261.96 28.181 261.758 27.9336C261.556 27.6797 261.302 27.4844 260.996 27.3477C260.69 27.2044 260.329 27.1328 259.912 27.1328C259.489 27.1328 259.121 27.224 258.809 27.4062C258.496 27.5885 258.239 27.8392 258.037 28.1582C257.842 28.4772 257.695 28.8483 257.598 29.2715C257.5 29.6947 257.451 30.1471 257.451 30.6289ZM269.375 21V36H267.012V21H269.375ZM276.611 36.1953C275.83 36.1953 275.124 36.0684 274.492 35.8145C273.867 35.554 273.333 35.1927 272.891 34.7305C272.454 34.2682 272.119 33.7246 271.885 33.0996C271.65 32.4746 271.533 31.8008 271.533 31.0781V30.6875C271.533 29.8607 271.654 29.112 271.895 28.4414C272.135 27.7708 272.471 27.1979 272.9 26.7227C273.33 26.2409 273.838 25.873 274.424 25.6191C275.01 25.3652 275.645 25.2383 276.328 25.2383C277.083 25.2383 277.744 25.3652 278.311 25.6191C278.877 25.873 279.346 26.2311 279.717 26.6934C280.094 27.1491 280.374 27.6927 280.557 28.3242C280.745 28.9557 280.84 29.6523 280.84 30.4141V31.4199H272.676V29.7305H278.516V29.5449C278.503 29.1217 278.418 28.7246 278.262 28.3535C278.112 27.9824 277.881 27.6829 277.568 27.4551C277.256 27.2272 276.839 27.1133 276.318 27.1133C275.928 27.1133 275.579 27.1979 275.273 27.3672C274.974 27.5299 274.723 27.7676 274.521 28.0801C274.32 28.3926 274.163 28.7702 274.053 29.2129C273.949 29.6491 273.896 30.1406 273.896 30.6875V31.0781C273.896 31.5404 273.958 31.9701 274.082 32.3672C274.212 32.7578 274.401 33.0996 274.648 33.3926C274.896 33.6855 275.195 33.9167 275.547 34.0859C275.898 34.2487 276.299 34.3301 276.748 34.3301C277.314 34.3301 277.819 34.2161 278.262 33.9883C278.704 33.7604 279.089 33.4382 279.414 33.0215L280.654 34.2227C280.426 34.5547 280.13 34.8737 279.766 35.1797C279.401 35.4792 278.955 35.7233 278.428 35.9121C277.907 36.1009 277.301 36.1953 276.611 36.1953Z" fill="black" fill-opacity="0.54"/>
</g>
<defs>
<filter id="filter0_dd_3789_16631" x="0" y="0" width="334" height="62" filterUnits="userSpaceOnUse" color-interpolation-filters="sRGB">
<feFlood flood-opacity="0" result="BackgroundImageFix"/>
<feColorMatrix in="SourceAlpha" type="matrix" values="0 0 0 0 0 0 0 0 0 0 0 0 0 0 0 0 0 0 127 0" result="hardAlpha"/>
<feOffset dy="2"/>
<feGaussianBlur stdDeviation="1.5"/>
<feColorMatrix type="matrix" values="0 0 0 0 0 0 0 0 0 0 0 0 0 0 0 0 0 0 0.168 0"/>
<feBlend mode="normal" in2="BackgroundImageFix" result="effect1_dropShadow_3789_16631"/>
<feColorMatrix in="SourceAlpha" type="matrix" values="0 0 0 0 0 0 0 0 0 0 0 0 0 0 0 0 0 0 127 0" result="hardAlpha"/>
<feOffset/>
<feGaussianBlur stdDeviation="1.5"/>
<feColorMatrix type="matrix" values="0 0 0 0 0 0 0 0 0 0 0 0 0 0 0 0 0 0 0.084 0"/>
<feBlend mode="normal" in2="effect1_dropShadow_3789_16631" result="effect2_dropShadow_3789_16631"/>
<feBlend mode="normal" in="SourceGraphic" in2="effect2_dropShadow_3789_16631" result="shape"/>
</filter>
</defs>
</svg>
