<svg width="27" height="33" viewBox="0 0 27 33" fill="none" xmlns="http://www.w3.org/2000/svg">
<path fill-rule="evenodd" clip-rule="evenodd" d="M0.524145 10.9441C0 12.1293 0 13.4777 0 16.1743V24.5962C0 28.3412 0 30.2138 1.11869 31.3772C2.2327 32.5358 4.02282 32.5406 7.59375 32.5406V22.6102C7.59375 20.9984 8.85987 19.6241 10.5035 19.6241H16.2326C17.8762 19.6241 19.1424 20.9984 19.1424 22.6102V32.5406C22.7133 32.5406 24.5034 32.5358 25.6174 31.3772C26.7361 30.2138 26.7361 28.3412 26.7361 24.5962V16.1743C26.7361 13.4777 26.7361 12.1293 26.212 10.9441C25.6878 9.75895 24.7035 8.88147 22.7348 7.12651L20.825 5.42413C17.2666 2.25205 15.4874 0.666016 13.3681 0.666016C11.2487 0.666016 9.46949 2.25205 5.91107 5.42413L4.00135 7.12651C2.03264 8.88147 1.04829 9.75895 0.524145 10.9441ZM17.1424 32.5406V22.6102C17.1424 22.0283 16.6985 21.6241 16.2326 21.6241H10.5035C10.0377 21.6241 9.59375 22.0283 9.59375 22.6102V32.5406H17.1424Z" fill="#3D5CAC"/>
</svg>
