<svg width="193" height="35" viewBox="0 0 193 35" fill="none" xmlns="http://www.w3.org/2000/svg">
<rect x="0.5" y="0.5" width="192" height="34" rx="4.5" stroke="#3D5CAC" strokeLinecap="round" stroke-dasharray="5 5"/>
<path d="M57.8801 17.862L57.4461 19.262H60.2041L59.7701 17.862C59.6021 17.3487 59.4434 16.84 59.2941 16.336C59.1448 15.8227 58.9954 15.3 58.8461 14.768H58.7901C58.6501 15.3 58.5054 15.8227 58.3561 16.336C58.2068 16.84 58.0481 17.3487 57.8801 17.862ZM55.0801 23L58.1881 13.816H59.5041L62.6121 23H61.3661L60.4981 20.2H57.1521L56.2701 23H55.0801ZM66.1253 23.168C65.276 23.168 64.5947 22.86 64.0813 22.244C63.568 21.6187 63.3113 20.7413 63.3113 19.612C63.3113 18.8747 63.4467 18.24 63.7173 17.708C63.9973 17.1667 64.3613 16.7513 64.8093 16.462C65.2667 16.1727 65.752 16.028 66.2653 16.028C66.6573 16.028 66.998 16.098 67.2873 16.238C67.5767 16.378 67.8707 16.5693 68.1693 16.812L68.1133 15.65V13.032H69.2753V23H68.3233L68.2253 22.202H68.1833C67.922 22.4633 67.614 22.692 67.2593 22.888C66.9047 23.0747 66.5267 23.168 66.1253 23.168ZM66.3773 22.202C66.9747 22.202 67.5533 21.8893 68.1133 21.264V17.708C67.824 17.4467 67.544 17.2647 67.2733 17.162C67.012 17.05 66.7413 16.994 66.4613 16.994C66.0973 16.994 65.766 17.106 65.4673 17.33C65.178 17.5447 64.9447 17.848 64.7673 18.24C64.59 18.6227 64.5013 19.0753 64.5013 19.598C64.5013 20.41 64.6647 21.0493 64.9913 21.516C65.318 21.9733 65.78 22.202 66.3773 22.202ZM73.8909 23.168C73.0416 23.168 72.3603 22.86 71.8469 22.244C71.3336 21.6187 71.0769 20.7413 71.0769 19.612C71.0769 18.8747 71.2123 18.24 71.4829 17.708C71.7629 17.1667 72.1269 16.7513 72.5749 16.462C73.0323 16.1727 73.5176 16.028 74.0309 16.028C74.4229 16.028 74.7636 16.098 75.0529 16.238C75.3423 16.378 75.6363 16.5693 75.9349 16.812L75.8789 15.65V13.032H77.0409V23H76.0889L75.9909 22.202H75.9489C75.6876 22.4633 75.3796 22.692 75.0249 22.888C74.6703 23.0747 74.2923 23.168 73.8909 23.168ZM74.1429 22.202C74.7403 22.202 75.3189 21.8893 75.8789 21.264V17.708C75.5896 17.4467 75.3096 17.2647 75.0389 17.162C74.7776 17.05 74.5069 16.994 74.2269 16.994C73.8629 16.994 73.5316 17.106 73.2329 17.33C72.9436 17.5447 72.7103 17.848 72.5329 18.24C72.3556 18.6227 72.2669 19.0753 72.2669 19.598C72.2669 20.41 72.4303 21.0493 72.7569 21.516C73.0836 21.9733 73.5456 22.202 74.1429 22.202ZM82.2473 23V13.816H84.9773C85.6026 13.816 86.1486 13.8907 86.6153 14.04C87.0913 14.1893 87.46 14.4273 87.7213 14.754C87.992 15.0807 88.1273 15.5147 88.1273 16.056C88.1273 16.5133 88.0106 16.9287 87.7773 17.302C87.5533 17.666 87.222 17.918 86.7833 18.058V18.114C87.334 18.2167 87.782 18.45 88.1273 18.814C88.482 19.178 88.6593 19.6773 88.6593 20.312C88.6593 20.9093 88.51 21.4087 88.2113 21.81C87.922 22.2113 87.516 22.51 86.9933 22.706C86.4706 22.902 85.864 23 85.1733 23H82.2473ZM83.4093 17.722H84.7673C85.5513 17.722 86.116 17.5867 86.4613 17.316C86.8066 17.0453 86.9793 16.6767 86.9793 16.21C86.9793 15.678 86.7973 15.3 86.4333 15.076C86.0786 14.852 85.542 14.74 84.8233 14.74H83.4093V17.722ZM83.4093 22.076H85.0053C85.7986 22.076 86.4146 21.9313 86.8533 21.642C87.292 21.3433 87.5113 20.886 87.5113 20.27C87.5113 19.7007 87.292 19.2853 86.8533 19.024C86.424 18.7533 85.808 18.618 85.0053 18.618H83.4093V22.076ZM92.3538 23.168C91.6351 23.168 91.1078 22.944 90.7718 22.496C90.4358 22.0387 90.2678 21.376 90.2678 20.508V16.196H91.4298V20.354C91.4298 20.9887 91.5278 21.4507 91.7238 21.74C91.9291 22.0293 92.2558 22.174 92.7038 22.174C93.0584 22.174 93.3711 22.0853 93.6418 21.908C93.9218 21.7213 94.2204 21.4273 94.5378 21.026V16.196H95.6858V23H94.7338L94.6358 21.936H94.5938C94.2764 22.3093 93.9404 22.608 93.5858 22.832C93.2311 23.056 92.8204 23.168 92.3538 23.168ZM99.759 23.168C99.2737 23.168 98.8117 23.0793 98.373 22.902C97.9343 22.7153 97.5517 22.4913 97.225 22.23L97.799 21.46C98.0977 21.6933 98.4057 21.8893 98.723 22.048C99.0403 22.1973 99.3997 22.272 99.801 22.272C100.249 22.272 100.585 22.1693 100.809 21.964C101.033 21.7493 101.145 21.4973 101.145 21.208C101.145 20.9747 101.066 20.7787 100.907 20.62C100.758 20.4613 100.562 20.3307 100.319 20.228C100.086 20.116 99.843 20.0133 99.591 19.92C99.2737 19.7987 98.961 19.6633 98.653 19.514C98.345 19.3553 98.093 19.1547 97.897 18.912C97.701 18.66 97.603 18.3427 97.603 17.96C97.603 17.4093 97.8083 16.952 98.219 16.588C98.639 16.2147 99.2177 16.028 99.955 16.028C100.375 16.028 100.767 16.1027 101.131 16.252C101.495 16.4013 101.808 16.5833 102.069 16.798L101.509 17.526C101.276 17.3487 101.033 17.204 100.781 17.092C100.529 16.98 100.254 16.924 99.955 16.924C99.5257 16.924 99.2083 17.022 99.003 17.218C98.807 17.414 98.709 17.6427 98.709 17.904C98.709 18.1187 98.779 18.296 98.919 18.436C99.059 18.5667 99.241 18.6833 99.465 18.786C99.689 18.8793 99.927 18.9773 100.179 19.08C100.506 19.2013 100.828 19.3413 101.145 19.5C101.462 19.6493 101.724 19.8547 101.929 20.116C102.144 20.368 102.251 20.7087 102.251 21.138C102.251 21.502 102.153 21.838 101.957 22.146C101.77 22.454 101.49 22.7013 101.117 22.888C100.753 23.0747 100.3 23.168 99.759 23.168ZM103.846 23V16.196H104.994V23H103.846ZM104.434 14.796C104.21 14.796 104.024 14.7307 103.874 14.6C103.734 14.46 103.664 14.2733 103.664 14.04C103.664 13.816 103.734 13.634 103.874 13.494C104.024 13.354 104.21 13.284 104.434 13.284C104.658 13.284 104.84 13.354 104.98 13.494C105.13 13.634 105.204 13.816 105.204 14.04C105.204 14.2733 105.13 14.46 104.98 14.6C104.84 14.7307 104.658 14.796 104.434 14.796ZM107.292 23V16.196H108.244L108.342 17.176H108.384C108.71 16.8493 109.056 16.5787 109.42 16.364C109.784 16.14 110.199 16.028 110.666 16.028C111.384 16.028 111.907 16.2567 112.234 16.714C112.57 17.162 112.738 17.82 112.738 18.688V23H111.59V18.842C111.59 18.2073 111.487 17.7453 111.282 17.456C111.076 17.1667 110.75 17.022 110.302 17.022C109.956 17.022 109.644 17.1107 109.364 17.288C109.093 17.4653 108.785 17.7267 108.44 18.072V23H107.292ZM117.706 23.168C117.099 23.168 116.548 23.028 116.054 22.748C115.559 22.4587 115.167 22.048 114.878 21.516C114.588 20.984 114.444 20.3493 114.444 19.612C114.444 18.8653 114.588 18.226 114.878 17.694C115.176 17.162 115.559 16.7513 116.026 16.462C116.492 16.1727 116.982 16.028 117.496 16.028C118.364 16.028 119.031 16.3173 119.498 16.896C119.974 17.4747 120.212 18.2493 120.212 19.22C120.212 19.3413 120.207 19.4627 120.198 19.584C120.198 19.696 120.188 19.794 120.17 19.878H115.578C115.624 20.5967 115.848 21.1707 116.25 21.6C116.66 22.0293 117.192 22.244 117.846 22.244C118.172 22.244 118.471 22.1973 118.742 22.104C119.022 22.0013 119.288 21.8707 119.54 21.712L119.946 22.468C119.656 22.6547 119.325 22.818 118.952 22.958C118.588 23.098 118.172 23.168 117.706 23.168ZM115.564 19.052H119.204C119.204 18.3613 119.054 17.8387 118.756 17.484C118.466 17.12 118.056 16.938 117.524 16.938C117.048 16.938 116.618 17.1247 116.236 17.498C115.862 17.862 115.638 18.38 115.564 19.052ZM123.671 23.168C123.186 23.168 122.724 23.0793 122.285 22.902C121.846 22.7153 121.464 22.4913 121.137 22.23L121.711 21.46C122.01 21.6933 122.318 21.8893 122.635 22.048C122.952 22.1973 123.312 22.272 123.713 22.272C124.161 22.272 124.497 22.1693 124.721 21.964C124.945 21.7493 125.057 21.4973 125.057 21.208C125.057 20.9747 124.978 20.7787 124.819 20.62C124.67 20.4613 124.474 20.3307 124.231 20.228C123.998 20.116 123.755 20.0133 123.503 19.92C123.186 19.7987 122.873 19.6633 122.565 19.514C122.257 19.3553 122.005 19.1547 121.809 18.912C121.613 18.66 121.515 18.3427 121.515 17.96C121.515 17.4093 121.72 16.952 122.131 16.588C122.551 16.2147 123.13 16.028 123.867 16.028C124.287 16.028 124.679 16.1027 125.043 16.252C125.407 16.4013 125.72 16.5833 125.981 16.798L125.421 17.526C125.188 17.3487 124.945 17.204 124.693 17.092C124.441 16.98 124.166 16.924 123.867 16.924C123.438 16.924 123.12 17.022 122.915 17.218C122.719 17.414 122.621 17.6427 122.621 17.904C122.621 18.1187 122.691 18.296 122.831 18.436C122.971 18.5667 123.153 18.6833 123.377 18.786C123.601 18.8793 123.839 18.9773 124.091 19.08C124.418 19.2013 124.74 19.3413 125.057 19.5C125.374 19.6493 125.636 19.8547 125.841 20.116C126.056 20.368 126.163 20.7087 126.163 21.138C126.163 21.502 126.065 21.838 125.869 22.146C125.682 22.454 125.402 22.7013 125.029 22.888C124.665 23.0747 124.212 23.168 123.671 23.168ZM129.536 23.168C129.051 23.168 128.589 23.0793 128.15 22.902C127.712 22.7153 127.329 22.4913 127.002 22.23L127.576 21.46C127.875 21.6933 128.183 21.8893 128.5 22.048C128.818 22.1973 129.177 22.272 129.578 22.272C130.026 22.272 130.362 22.1693 130.586 21.964C130.81 21.7493 130.922 21.4973 130.922 21.208C130.922 20.9747 130.843 20.7787 130.684 20.62C130.535 20.4613 130.339 20.3307 130.096 20.228C129.863 20.116 129.62 20.0133 129.368 19.92C129.051 19.7987 128.738 19.6633 128.43 19.514C128.122 19.3553 127.87 19.1547 127.674 18.912C127.478 18.66 127.38 18.3427 127.38 17.96C127.38 17.4093 127.586 16.952 127.996 16.588C128.416 16.2147 128.995 16.028 129.732 16.028C130.152 16.028 130.544 16.1027 130.908 16.252C131.272 16.4013 131.585 16.5833 131.846 16.798L131.286 17.526C131.053 17.3487 130.81 17.204 130.558 17.092C130.306 16.98 130.031 16.924 129.732 16.924C129.303 16.924 128.986 17.022 128.78 17.218C128.584 17.414 128.486 17.6427 128.486 17.904C128.486 18.1187 128.556 18.296 128.696 18.436C128.836 18.5667 129.018 18.6833 129.242 18.786C129.466 18.8793 129.704 18.9773 129.956 19.08C130.283 19.2013 130.605 19.3413 130.922 19.5C131.24 19.6493 131.501 19.8547 131.706 20.116C131.921 20.368 132.028 20.7087 132.028 21.138C132.028 21.502 131.93 21.838 131.734 22.146C131.548 22.454 131.268 22.7013 130.894 22.888C130.53 23.0747 130.078 23.168 129.536 23.168ZM136.538 23V13.816H137.7V22.006H141.718V23H136.538ZM145.717 23.168C145.166 23.168 144.648 23.028 144.163 22.748C143.687 22.468 143.3 22.062 143.001 21.53C142.712 20.998 142.567 20.3587 142.567 19.612C142.567 18.8467 142.712 18.198 143.001 17.666C143.3 17.134 143.687 16.728 144.163 16.448C144.648 16.168 145.166 16.028 145.717 16.028C146.277 16.028 146.795 16.168 147.271 16.448C147.747 16.728 148.13 17.134 148.419 17.666C148.718 18.198 148.867 18.8467 148.867 19.612C148.867 20.3587 148.718 20.998 148.419 21.53C148.13 22.062 147.747 22.468 147.271 22.748C146.795 23.028 146.277 23.168 145.717 23.168ZM145.717 22.216C146.305 22.216 146.776 21.978 147.131 21.502C147.495 21.0167 147.677 20.3867 147.677 19.612C147.677 18.828 147.495 18.1933 147.131 17.708C146.776 17.2227 146.305 16.98 145.717 16.98C145.138 16.98 144.667 17.2227 144.303 17.708C143.939 18.1933 143.757 18.828 143.757 19.612C143.757 20.3867 143.939 21.0167 144.303 21.502C144.667 21.978 145.138 22.216 145.717 22.216ZM152.955 26.136C152.124 26.136 151.447 25.9773 150.925 25.66C150.402 25.3427 150.141 24.89 150.141 24.302C150.141 24.0127 150.229 23.7327 150.407 23.462C150.584 23.2007 150.827 22.9673 151.135 22.762V22.706C150.967 22.6033 150.822 22.4587 150.701 22.272C150.589 22.0853 150.533 21.8613 150.533 21.6C150.533 21.3107 150.612 21.0587 150.771 20.844C150.929 20.6293 151.097 20.4613 151.275 20.34V20.284C151.051 20.0973 150.845 19.8453 150.659 19.528C150.481 19.2107 150.393 18.8513 150.393 18.45C150.393 17.9553 150.509 17.526 150.743 17.162C150.976 16.798 151.289 16.518 151.681 16.322C152.073 16.126 152.497 16.028 152.955 16.028C153.141 16.028 153.319 16.0467 153.487 16.084C153.655 16.112 153.799 16.1493 153.921 16.196H156.287V17.078H154.887C155.045 17.2273 155.176 17.428 155.279 17.68C155.391 17.9227 155.447 18.1887 155.447 18.478C155.447 18.9633 155.335 19.3833 155.111 19.738C154.887 20.0927 154.588 20.368 154.215 20.564C153.841 20.7507 153.421 20.844 152.955 20.844C152.591 20.844 152.25 20.7647 151.933 20.606C151.811 20.7087 151.709 20.8253 151.625 20.956C151.541 21.0773 151.499 21.2313 151.499 21.418C151.499 21.6327 151.583 21.81 151.751 21.95C151.928 22.09 152.245 22.16 152.703 22.16H154.019C154.812 22.16 155.405 22.2907 155.797 22.552C156.198 22.804 156.399 23.2147 156.399 23.784C156.399 24.204 156.259 24.5913 155.979 24.946C155.699 25.3007 155.302 25.5853 154.789 25.8C154.275 26.024 153.664 26.136 152.955 26.136ZM152.955 20.074C153.347 20.074 153.683 19.9293 153.963 19.64C154.252 19.3413 154.397 18.9447 154.397 18.45C154.397 17.9553 154.257 17.568 153.977 17.288C153.697 17.008 153.356 16.868 152.955 16.868C152.553 16.868 152.213 17.008 151.933 17.288C151.653 17.568 151.513 17.9553 151.513 18.45C151.513 18.9447 151.653 19.3413 151.933 19.64C152.222 19.9293 152.563 20.074 152.955 20.074ZM153.123 25.338C153.776 25.338 154.299 25.1933 154.691 24.904C155.083 24.624 155.279 24.3067 155.279 23.952C155.279 23.6347 155.157 23.4153 154.915 23.294C154.681 23.1727 154.345 23.112 153.907 23.112H152.731C152.6 23.112 152.455 23.1027 152.297 23.084C152.147 23.0653 151.998 23.0373 151.849 23C151.606 23.1773 151.429 23.364 151.317 23.56C151.205 23.756 151.149 23.952 151.149 24.148C151.149 24.512 151.321 24.8013 151.667 25.016C152.021 25.2307 152.507 25.338 153.123 25.338ZM160.168 23.168C159.617 23.168 159.099 23.028 158.614 22.748C158.138 22.468 157.751 22.062 157.452 21.53C157.163 20.998 157.018 20.3587 157.018 19.612C157.018 18.8467 157.163 18.198 157.452 17.666C157.751 17.134 158.138 16.728 158.614 16.448C159.099 16.168 159.617 16.028 160.168 16.028C160.728 16.028 161.246 16.168 161.722 16.448C162.198 16.728 162.581 17.134 162.87 17.666C163.169 18.198 163.318 18.8467 163.318 19.612C163.318 20.3587 163.169 20.998 162.87 21.53C162.581 22.062 162.198 22.468 161.722 22.748C161.246 23.028 160.728 23.168 160.168 23.168ZM160.168 22.216C160.756 22.216 161.227 21.978 161.582 21.502C161.946 21.0167 162.128 20.3867 162.128 19.612C162.128 18.828 161.946 18.1933 161.582 17.708C161.227 17.2227 160.756 16.98 160.168 16.98C159.589 16.98 159.118 17.2227 158.754 17.708C158.39 18.1933 158.208 18.828 158.208 19.612C158.208 20.3867 158.39 21.0167 158.754 21.502C159.118 21.978 159.589 22.216 160.168 22.216Z" fill="#3D5CAC"/>
<path d="M13.7807 25.0263C13.291 25.0263 12.8717 24.8518 12.5226 24.5028C12.1736 24.1538 11.9994 23.7347 12 23.2456V10.7807C12 10.291 12.1745 9.87165 12.5235 9.52264C12.8725 9.17362 13.2916 8.99941 13.7807 9H26.2456C26.7353 9 27.1547 9.17451 27.5037 9.52353C27.8527 9.87255 28.0269 10.2916 28.0263 10.7807V23.2456C28.0263 23.7353 27.8518 24.1547 27.5028 24.5037C27.1538 24.8527 26.7347 25.0269 26.2456 25.0263H13.7807ZM14.6711 21.4649H25.3553L22.0164 17.0132L19.3454 20.5746L17.3421 17.9035L14.6711 21.4649Z" fill="#3D5CAC"/>
</svg>
