<svg width="193" height="35" viewBox="0 0 193 35" fill="none" xmlns="http://www.w3.org/2000/svg">
<rect x="0.5" y="0.5" width="192" height="34" rx="4.5" stroke="#3D5CAC" stroke-linecap="round" stroke-dasharray="5 5"/>
<path d="M54.9377 23V13.816H56.1417L59.4597 19.584L60.4537 21.488H60.5097C60.4817 21.0213 60.4491 20.5407 60.4117 20.046C60.3837 19.542 60.3697 19.0473 60.3697 18.562V13.816H61.4757V23H60.2717L56.9397 17.218L55.9457 15.328H55.8897C55.9271 15.7853 55.9597 16.2567 55.9877 16.742C56.0251 17.2273 56.0437 17.7127 56.0437 18.198V23H54.9377ZM66.6482 23.168C66.0415 23.168 65.4909 23.028 64.9962 22.748C64.5015 22.4587 64.1095 22.048 63.8202 21.516C63.5309 20.984 63.3862 20.3493 63.3862 19.612C63.3862 18.8653 63.5309 18.226 63.8202 17.694C64.1189 17.162 64.5015 16.7513 64.9682 16.462C65.4349 16.1727 65.9249 16.028 66.4382 16.028C67.3062 16.028 67.9735 16.3173 68.4402 16.896C68.9162 17.4747 69.1542 18.2493 69.1542 19.22C69.1542 19.3413 69.1495 19.4627 69.1402 19.584C69.1402 19.696 69.1309 19.794 69.1122 19.878H64.5202C64.5669 20.5967 64.7909 21.1707 65.1922 21.6C65.6029 22.0293 66.1349 22.244 66.7882 22.244C67.1149 22.244 67.4135 22.1973 67.6842 22.104C67.9642 22.0013 68.2302 21.8707 68.4822 21.712L68.8882 22.468C68.5989 22.6547 68.2675 22.818 67.8942 22.958C67.5302 23.098 67.1149 23.168 66.6482 23.168ZM64.5062 19.052H68.1462C68.1462 18.3613 67.9969 17.8387 67.6982 17.484C67.4089 17.12 66.9982 16.938 66.4662 16.938C65.9902 16.938 65.5609 17.1247 65.1782 17.498C64.8049 17.862 64.5809 18.38 64.5062 19.052ZM71.9819 23L70.0919 16.196H71.2679L72.2759 20.13C72.3505 20.4473 72.4205 20.7647 72.4859 21.082C72.5512 21.39 72.6165 21.7027 72.6819 22.02H72.7379C72.8125 21.7027 72.8872 21.39 72.9619 21.082C73.0365 20.7647 73.1159 20.4473 73.1999 20.13L74.2499 16.196H75.3699L76.4339 20.13C76.5179 20.4473 76.5972 20.7647 76.6719 21.082C76.7559 21.39 76.8352 21.7027 76.9099 22.02H76.9659C77.0405 21.7027 77.1105 21.39 77.1759 21.082C77.2505 20.7647 77.3205 20.4473 77.3859 20.13L78.3799 16.196H79.4719L77.6519 23H76.2519L75.2719 19.346C75.1879 19.0193 75.1085 18.6973 75.0339 18.38C74.9685 18.0627 74.8939 17.7313 74.8099 17.386H74.7539C74.6792 17.7313 74.6045 18.0673 74.5299 18.394C74.4552 18.7113 74.3712 19.0333 74.2779 19.36L73.3259 23H71.9819ZM83.8674 23V13.816H86.4854C87.1761 13.816 87.7781 13.9 88.2914 14.068C88.8048 14.236 89.2061 14.5207 89.4954 14.922C89.7848 15.314 89.9294 15.846 89.9294 16.518C89.9294 17.4793 89.6168 18.1933 88.9914 18.66C88.3661 19.1267 87.5494 19.36 86.5414 19.36H85.0294V23H83.8674ZM85.0294 18.408H86.4014C87.2041 18.408 87.7968 18.2587 88.1794 17.96C88.5714 17.652 88.7674 17.1713 88.7674 16.518C88.7674 15.8553 88.5621 15.398 88.1514 15.146C87.7501 14.8847 87.1481 14.754 86.3454 14.754H85.0294V18.408ZM91.6851 23V16.196H92.6371L92.7351 17.428H92.7771C93.0104 16.9987 93.2951 16.658 93.6311 16.406C93.9671 16.154 94.3264 16.028 94.7091 16.028C94.9798 16.028 95.2224 16.0747 95.4371 16.168L95.2131 17.176C95.1011 17.1387 94.9984 17.1107 94.9051 17.092C94.8118 17.0733 94.6951 17.064 94.5551 17.064C94.2658 17.064 93.9624 17.1807 93.6451 17.414C93.3371 17.6473 93.0664 18.0533 92.8331 18.632V23H91.6851ZM99.0479 23.168C98.4972 23.168 97.9792 23.028 97.4939 22.748C97.0179 22.468 96.6306 22.062 96.3319 21.53C96.0426 20.998 95.8979 20.3587 95.8979 19.612C95.8979 18.8467 96.0426 18.198 96.3319 17.666C96.6306 17.134 97.0179 16.728 97.4939 16.448C97.9792 16.168 98.4972 16.028 99.0479 16.028C99.6079 16.028 100.126 16.168 100.602 16.448C101.078 16.728 101.461 17.134 101.75 17.666C102.049 18.198 102.198 18.8467 102.198 19.612C102.198 20.3587 102.049 20.998 101.75 21.53C101.461 22.062 101.078 22.468 100.602 22.748C100.126 23.028 99.6079 23.168 99.0479 23.168ZM99.0479 22.216C99.6359 22.216 100.107 21.978 100.462 21.502C100.826 21.0167 101.008 20.3867 101.008 19.612C101.008 18.828 100.826 18.1933 100.462 17.708C100.107 17.2227 99.6359 16.98 99.0479 16.98C98.4692 16.98 97.9979 17.2227 97.6339 17.708C97.2699 18.1933 97.0879 18.828 97.0879 19.612C97.0879 20.3867 97.2699 21.0167 97.6339 21.502C97.9979 21.978 98.4692 22.216 99.0479 22.216ZM104.186 23V17.134H103.262V16.266L104.186 16.196V15.118C104.186 14.4273 104.344 13.8813 104.662 13.48C104.988 13.0693 105.492 12.864 106.174 12.864C106.388 12.864 106.594 12.8873 106.79 12.934C106.986 12.9713 107.158 13.0227 107.308 13.088L107.056 13.97C106.804 13.858 106.547 13.802 106.286 13.802C105.651 13.802 105.334 14.2407 105.334 15.118V16.196H106.776V17.134H105.334V23H104.186ZM108.078 23V16.196H109.226V23H108.078ZM108.666 14.796C108.442 14.796 108.255 14.7307 108.106 14.6C107.966 14.46 107.896 14.2733 107.896 14.04C107.896 13.816 107.966 13.634 108.106 13.494C108.255 13.354 108.442 13.284 108.666 13.284C108.89 13.284 109.072 13.354 109.212 13.494C109.361 13.634 109.436 13.816 109.436 14.04C109.436 14.2733 109.361 14.46 109.212 14.6C109.072 14.7307 108.89 14.796 108.666 14.796ZM112.741 23.168C112.312 23.168 111.999 23.0373 111.803 22.776C111.616 22.5053 111.523 22.1227 111.523 21.628V13.032H112.671V21.712C112.671 21.8893 112.704 22.02 112.769 22.104C112.834 22.1787 112.909 22.216 112.993 22.216C113.03 22.216 113.063 22.216 113.091 22.216C113.128 22.2067 113.18 22.1973 113.245 22.188L113.399 23.056C113.324 23.0933 113.236 23.1213 113.133 23.14C113.03 23.1587 112.9 23.168 112.741 23.168ZM117.849 23.168C117.243 23.168 116.692 23.028 116.197 22.748C115.703 22.4587 115.311 22.048 115.021 21.516C114.732 20.984 114.587 20.3493 114.587 19.612C114.587 18.8653 114.732 18.226 115.021 17.694C115.32 17.162 115.703 16.7513 116.169 16.462C116.636 16.1727 117.126 16.028 117.639 16.028C118.507 16.028 119.175 16.3173 119.641 16.896C120.117 17.4747 120.355 18.2493 120.355 19.22C120.355 19.3413 120.351 19.4627 120.341 19.584C120.341 19.696 120.332 19.794 120.313 19.878H115.721C115.768 20.5967 115.992 21.1707 116.393 21.6C116.804 22.0293 117.336 22.244 117.989 22.244C118.316 22.244 118.615 22.1973 118.885 22.104C119.165 22.0013 119.431 21.8707 119.683 21.712L120.089 22.468C119.8 22.6547 119.469 22.818 119.095 22.958C118.731 23.098 118.316 23.168 117.849 23.168ZM115.707 19.052H119.347C119.347 18.3613 119.198 17.8387 118.899 17.484C118.61 17.12 118.199 16.938 117.667 16.938C117.191 16.938 116.762 17.1247 116.379 17.498C116.006 17.862 115.782 18.38 115.707 19.052ZM124.951 23V13.816H127.569C128.26 13.816 128.862 13.9 129.375 14.068C129.889 14.236 130.29 14.5207 130.579 14.922C130.869 15.314 131.013 15.846 131.013 16.518C131.013 17.4793 130.701 18.1933 130.075 18.66C129.45 19.1267 128.633 19.36 127.625 19.36H126.113V23H124.951ZM126.113 18.408H127.485C128.288 18.408 128.881 18.2587 129.263 17.96C129.655 17.652 129.851 17.1713 129.851 16.518C129.851 15.8553 129.646 15.398 129.235 15.146C128.834 14.8847 128.232 14.754 127.429 14.754H126.113V18.408ZM132.769 23V16.196H133.917V23H132.769ZM133.357 14.796C133.133 14.796 132.946 14.7307 132.797 14.6C132.657 14.46 132.587 14.2733 132.587 14.04C132.587 13.816 132.657 13.634 132.797 13.494C132.946 13.354 133.133 13.284 133.357 13.284C133.581 13.284 133.763 13.354 133.903 13.494C134.052 13.634 134.127 13.816 134.127 14.04C134.127 14.2733 134.052 14.46 133.903 14.6C133.763 14.7307 133.581 14.796 133.357 14.796ZM138.902 23.168C138.305 23.168 137.764 23.028 137.278 22.748C136.793 22.468 136.41 22.062 136.13 21.53C135.85 20.998 135.71 20.3587 135.71 19.612C135.71 18.8467 135.86 18.198 136.158 17.666C136.466 17.134 136.868 16.728 137.362 16.448C137.866 16.168 138.408 16.028 138.986 16.028C139.434 16.028 139.817 16.1073 140.134 16.266C140.461 16.4247 140.741 16.6113 140.974 16.826L140.386 17.582C140.19 17.4047 139.98 17.26 139.756 17.148C139.542 17.036 139.299 16.98 139.028 16.98C138.618 16.98 138.249 17.092 137.922 17.316C137.605 17.5307 137.353 17.8387 137.166 18.24C136.989 18.632 136.9 19.0893 136.9 19.612C136.9 20.3867 137.092 21.0167 137.474 21.502C137.866 21.978 138.375 22.216 139 22.216C139.318 22.216 139.612 22.1507 139.882 22.02C140.153 21.88 140.391 21.7167 140.596 21.53L141.1 22.3C140.792 22.5707 140.452 22.7853 140.078 22.944C139.705 23.0933 139.313 23.168 138.902 23.168ZM144.604 23.168C143.876 23.168 143.368 22.958 143.078 22.538C142.798 22.118 142.658 21.572 142.658 20.9V17.134H141.65V16.266L142.714 16.196L142.854 14.292H143.82V16.196H145.654V17.134H143.82V20.914C143.82 21.334 143.895 21.6607 144.044 21.894C144.203 22.118 144.478 22.23 144.87 22.23C144.992 22.23 145.122 22.2113 145.262 22.174C145.402 22.1273 145.528 22.0853 145.64 22.048L145.864 22.916C145.678 22.9813 145.472 23.0373 145.248 23.084C145.034 23.14 144.819 23.168 144.604 23.168ZM149.181 23.168C148.462 23.168 147.935 22.944 147.599 22.496C147.263 22.0387 147.095 21.376 147.095 20.508V16.196H148.257V20.354C148.257 20.9887 148.355 21.4507 148.551 21.74C148.756 22.0293 149.083 22.174 149.531 22.174C149.886 22.174 150.198 22.0853 150.469 21.908C150.749 21.7213 151.048 21.4273 151.365 21.026V16.196H152.513V23H151.561L151.463 21.936H151.421C151.104 22.3093 150.768 22.608 150.413 22.832C150.058 23.056 149.648 23.168 149.181 23.168ZM154.808 23V16.196H155.76L155.858 17.428H155.9C156.133 16.9987 156.418 16.658 156.754 16.406C157.09 16.154 157.449 16.028 157.832 16.028C158.103 16.028 158.345 16.0747 158.56 16.168L158.336 17.176C158.224 17.1387 158.121 17.1107 158.028 17.092C157.935 17.0733 157.818 17.064 157.678 17.064C157.389 17.064 157.085 17.1807 156.768 17.414C156.46 17.6473 156.189 18.0533 155.956 18.632V23H154.808ZM162.283 23.168C161.676 23.168 161.126 23.028 160.631 22.748C160.136 22.4587 159.744 22.048 159.455 21.516C159.166 20.984 159.021 20.3493 159.021 19.612C159.021 18.8653 159.166 18.226 159.455 17.694C159.754 17.162 160.136 16.7513 160.603 16.462C161.07 16.1727 161.56 16.028 162.073 16.028C162.941 16.028 163.608 16.3173 164.075 16.896C164.551 17.4747 164.789 18.2493 164.789 19.22C164.789 19.3413 164.784 19.4627 164.775 19.584C164.775 19.696 164.766 19.794 164.747 19.878H160.155C160.202 20.5967 160.426 21.1707 160.827 21.6C161.238 22.0293 161.77 22.244 162.423 22.244C162.75 22.244 163.048 22.1973 163.319 22.104C163.599 22.0013 163.865 21.8707 164.117 21.712L164.523 22.468C164.234 22.6547 163.902 22.818 163.529 22.958C163.165 23.098 162.75 23.168 162.283 23.168ZM160.141 19.052H163.781C163.781 18.3613 163.632 17.8387 163.333 17.484C163.044 17.12 162.633 16.938 162.101 16.938C161.625 16.938 161.196 17.1247 160.813 17.498C160.44 17.862 160.216 18.38 160.141 19.052Z" fill="#3D5CAC"/>
<path d="M13.7807 25.0263C13.291 25.0263 12.8717 24.8518 12.5226 24.5028C12.1736 24.1538 11.9994 23.7347 12 23.2456V10.7807C12 10.291 12.1745 9.87165 12.5235 9.52264C12.8725 9.17362 13.2916 8.99941 13.7807 9H26.2456C26.7353 9 27.1547 9.17451 27.5037 9.52353C27.8527 9.87255 28.0269 10.2916 28.0263 10.7807V23.2456C28.0263 23.7353 27.8518 24.1547 27.5028 24.5037C27.1538 24.8527 26.7347 25.0269 26.2456 25.0263H13.7807ZM14.6711 21.4649H25.3553L22.0164 17.0132L19.3454 20.5746L17.3421 17.9035L14.6711 21.4649Z" fill="#3D5CAC"/>
</svg>
