<svg width="28" height="28" viewBox="0 0 28 28" fill="none" xmlns="http://www.w3.org/2000/svg">
<path d="M7.84987 2.70316L9.78687 2.11916C10.4261 1.92673 11.1136 1.97342 11.721 2.25052C12.3284 2.52763 12.8142 3.01622 13.0879 3.62516L14.4459 6.64516C14.6816 7.16908 14.7473 7.75367 14.6337 8.31684C14.5202 8.88 14.2331 9.39348 13.8129 9.78516L11.7459 11.7112C11.4689 11.9742 11.6789 12.9992 12.6909 14.7532C13.7039 16.5082 14.4869 17.2022 14.8479 17.0942L17.5559 16.2662C18.1048 16.0983 18.6925 16.1063 19.2366 16.2893C19.7807 16.4722 20.2539 16.8208 20.5899 17.2862L22.5199 19.9612C22.9097 20.5013 23.0902 21.1646 23.0278 21.8279C22.9655 22.4911 22.6645 23.1091 22.1809 23.5672L20.6889 24.9802C20.2072 25.4363 19.6132 25.7565 18.9674 25.9081C18.3216 26.0597 17.6472 26.0373 17.0129 25.8432C13.8869 24.8862 10.9919 22.0462 8.28887 17.3632C5.57987 12.6732 4.55687 8.71716 5.26987 5.48516C5.41367 4.83391 5.72856 4.2328 6.18206 3.74379C6.63557 3.25478 7.21129 2.89556 7.84987 2.70316Z" fill="white"/>
</svg>
