<svg width="370" height="43" viewBox="0 0 370 43" fill="none" xmlns="http://www.w3.org/2000/svg">
<path d="M133.5 21.5H157.254C158.69 21.5 159.277 21.5026 159.753 21.5589C163.656 22.0208 166.733 25.0981 167.195 29.0009C167.251 29.4766 167.254 30.064 167.254 31.5C167.254 32.936 167.251 33.5234 167.195 33.9991C166.733 37.9019 163.656 40.9792 159.753 41.4411C159.277 41.4974 158.69 41.5 157.254 41.5H133.5C132.064 41.5 131.477 41.4974 131.001 41.4411C127.098 40.9792 124.021 37.9019 123.559 33.9991C123.503 33.5234 123.5 32.936 123.5 31.5C123.5 30.064 123.503 29.4766 123.559 29.0009C124.021 25.0981 127.098 22.0208 131.001 21.5589C131.477 21.5026 132.064 21.5 133.5 21.5Z" fill="#3D5CAC" stroke="#3D5CAC" stroke-width="3"/>
<path d="M142.197 36V34.824C142.953 34.1053 143.62 33.4567 144.199 32.878C144.787 32.29 145.244 31.7533 145.571 31.268C145.897 30.7733 146.061 30.316 146.061 29.896C146.061 29.4573 145.944 29.126 145.711 28.902C145.487 28.6687 145.183 28.552 144.801 28.552C144.483 28.552 144.194 28.6453 143.933 28.832C143.681 29.0093 143.443 29.2193 143.219 29.462L142.099 28.356C142.537 27.8893 142.985 27.5393 143.443 27.306C143.9 27.0633 144.446 26.942 145.081 26.942C145.669 26.942 146.182 27.0587 146.621 27.292C147.059 27.5253 147.4 27.8567 147.643 28.286C147.895 28.706 148.021 29.2007 148.021 29.77C148.021 30.2647 147.881 30.7733 147.601 31.296C147.33 31.8093 146.98 32.3273 146.551 32.85C146.121 33.3633 145.664 33.872 145.179 34.376C145.403 34.348 145.655 34.3247 145.935 34.306C146.215 34.278 146.457 34.264 146.663 34.264H148.455V36H142.197Z" fill="#3D5CAC"/>
<path d="M142.197 36V34.824C142.953 34.1053 143.62 33.4567 144.199 32.878C144.787 32.29 145.244 31.7533 145.571 31.268C145.897 30.7733 146.061 30.316 146.061 29.896C146.061 29.4573 145.944 29.126 145.711 28.902C145.487 28.6687 145.183 28.552 144.801 28.552C144.483 28.552 144.194 28.6453 143.933 28.832C143.681 29.0093 143.443 29.2193 143.219 29.462L142.099 28.356C142.537 27.8893 142.985 27.5393 143.443 27.306C143.9 27.0633 144.446 26.942 145.081 26.942C145.669 26.942 146.182 27.0587 146.621 27.292C147.059 27.5253 147.4 27.8567 147.643 28.286C147.895 28.706 148.021 29.2007 148.021 29.77C148.021 30.2647 147.881 30.7733 147.601 31.296C147.33 31.8093 146.98 32.3273 146.551 32.85C146.121 33.3633 145.664 33.872 145.179 34.376C145.403 34.348 145.655 34.3247 145.935 34.306C146.215 34.278 146.457 34.264 146.663 34.264H148.455V36H142.197Z" fill="white"/>
<path d="M292.6 21.5H316.354C317.79 21.5 318.377 21.5026 318.853 21.5589C322.756 22.0208 325.833 25.0981 326.295 29.0009C326.351 29.4766 326.354 30.064 326.354 31.5C326.354 32.936 326.351 33.5234 326.295 33.9991C325.833 37.9019 322.756 40.9792 318.853 41.4411C318.377 41.4974 317.79 41.5 316.354 41.5H292.6C291.164 41.5 290.577 41.4974 290.101 41.4411C286.198 40.9792 283.121 37.9019 282.659 33.9991C282.603 33.5234 282.6 32.936 282.6 31.5C282.6 30.064 282.603 29.4766 282.659 29.0009C283.121 25.0981 286.198 22.0208 290.101 21.5589C290.577 21.5026 291.164 21.5 292.6 21.5Z" fill="#3D5CAC" stroke="#3D5CAC" stroke-width="3"/>
<path d="M303.018 32.304H304.894V30.862C304.894 30.5727 304.904 30.2413 304.922 29.868C304.95 29.4853 304.969 29.154 304.978 28.874H304.922C304.81 29.1167 304.694 29.364 304.572 29.616C304.451 29.868 304.325 30.12 304.194 30.372L303.018 32.304ZM304.894 36V33.872H301.044V32.458L304.292 27.11H306.812V32.304H307.834V33.872H306.812V36H304.894Z" fill="white"/>
<path d="M212.6 21.5H236.354C237.79 21.5 238.377 21.5026 238.853 21.5589C242.756 22.0208 245.833 25.0981 246.295 29.0009C246.351 29.4766 246.354 30.064 246.354 31.5C246.354 32.936 246.351 33.5234 246.295 33.9991C245.833 37.9019 242.756 40.9792 238.853 41.4411C238.377 41.4974 237.79 41.5 236.354 41.5H212.6C211.164 41.5 210.577 41.4974 210.101 41.4411C206.198 40.9792 203.121 37.9019 202.659 33.9991C202.603 33.5234 202.6 32.936 202.6 31.5C202.6 30.064 202.603 29.4766 202.659 29.0009C203.121 25.0981 206.198 22.0208 210.101 21.5589C210.577 21.5026 211.164 21.5 212.6 21.5Z" fill="#3D5CAC" stroke="#3D5CAC" stroke-width="3"/>
<path d="M224.181 36.168C223.462 36.168 222.846 36.0513 222.333 35.818C221.829 35.5847 221.413 35.2813 221.087 34.908L222.039 33.606C222.309 33.8673 222.608 34.082 222.935 34.25C223.261 34.418 223.611 34.502 223.985 34.502C224.423 34.502 224.773 34.4133 225.035 34.236C225.296 34.0493 225.427 33.788 225.427 33.452C225.427 33.1907 225.361 32.9667 225.231 32.78C225.1 32.584 224.862 32.4347 224.517 32.332C224.171 32.2293 223.677 32.178 223.033 32.178V30.722C223.835 30.722 224.386 30.6147 224.685 30.4C224.983 30.176 225.133 29.8867 225.133 29.532C225.133 29.224 225.039 28.986 224.853 28.818C224.666 28.6407 224.395 28.552 224.041 28.552C223.723 28.552 223.434 28.622 223.173 28.762C222.921 28.902 222.655 29.0933 222.375 29.336L221.339 28.076C221.749 27.7213 222.183 27.446 222.641 27.25C223.098 27.0447 223.597 26.942 224.139 26.942C225.053 26.942 225.791 27.1567 226.351 27.586C226.92 28.006 227.205 28.6033 227.205 29.378C227.205 29.8353 227.074 30.2273 226.813 30.554C226.561 30.8807 226.197 31.1467 225.721 31.352V31.408C226.234 31.5573 226.654 31.814 226.981 32.178C227.317 32.5327 227.485 32.9993 227.485 33.578C227.485 34.1287 227.331 34.6 227.023 34.992C226.724 35.3747 226.323 35.6687 225.819 35.874C225.324 36.07 224.778 36.168 224.181 36.168Z" fill="white"/>
<path d="M224.181 36.168C223.462 36.168 222.846 36.0513 222.333 35.818C221.829 35.5847 221.413 35.2813 221.087 34.908L222.039 33.606C222.309 33.8673 222.608 34.082 222.935 34.25C223.261 34.418 223.611 34.502 223.985 34.502C224.423 34.502 224.773 34.4133 225.035 34.236C225.296 34.0493 225.427 33.788 225.427 33.452C225.427 33.1907 225.361 32.9667 225.231 32.78C225.1 32.584 224.862 32.4347 224.517 32.332C224.171 32.2293 223.677 32.178 223.033 32.178V30.722C223.835 30.722 224.386 30.6147 224.685 30.4C224.983 30.176 225.133 29.8867 225.133 29.532C225.133 29.224 225.039 28.986 224.853 28.818C224.666 28.6407 224.395 28.552 224.041 28.552C223.723 28.552 223.434 28.622 223.173 28.762C222.921 28.902 222.655 29.0933 222.375 29.336L221.339 28.076C221.749 27.7213 222.183 27.446 222.641 27.25C223.098 27.0447 223.597 26.942 224.139 26.942C225.053 26.942 225.791 27.1567 226.351 27.586C226.92 28.006 227.205 28.6033 227.205 29.378C227.205 29.8353 227.074 30.2273 226.813 30.554C226.561 30.8807 226.197 31.1467 225.721 31.352V31.408C226.234 31.5573 226.654 31.814 226.981 32.178C227.317 32.5327 227.485 32.9993 227.485 33.578C227.485 34.1287 227.331 34.6 227.023 34.992C226.724 35.3747 226.323 35.6687 225.819 35.874C225.324 36.07 224.778 36.168 224.181 36.168Z" fill="white"/>
<path d="M88 32H123.419" stroke="#3D5CAC" stroke-width="3"/>
<path d="M53.5 21.5H77.2539C78.6899 21.5 79.2773 21.5026 79.753 21.5589C83.6558 22.0208 86.7331 25.0981 87.195 29.0009C87.2513 29.4766 87.2539 30.064 87.2539 31.5C87.2539 32.936 87.2513 33.5234 87.195 33.9991C86.7331 37.9019 83.6558 40.9792 79.753 41.4411C79.2773 41.4974 78.6899 41.5 77.2539 41.5H53.5C52.064 41.5 51.4766 41.4974 51.0009 41.4411C47.0981 40.9792 44.0208 37.9019 43.5589 33.9991C43.5026 33.5234 43.5 32.936 43.5 31.5C43.5 30.064 43.5026 29.4766 43.5589 29.0009C44.0208 25.0981 47.0981 22.0208 51.0009 21.5589C51.4766 21.5026 52.064 21.5 53.5 21.5Z" fill="#3D5CAC" stroke="#3D5CAC" stroke-width="3"/>
<path d="M62.6587 36V34.334H64.5907V29.196H62.9247V27.922C63.41 27.8287 63.8207 27.7167 64.1567 27.586C64.4927 27.4553 64.8194 27.2967 65.1367 27.11H66.6487V34.334H68.3147V36H62.6587Z" fill="#3D5CAC"/>
<path d="M62.6586 36V34.334H64.5906V29.196H62.9246V27.922C63.4099 27.8287 63.8206 27.7167 64.1566 27.586C64.4926 27.4553 64.8192 27.2967 65.1366 27.11H66.6486V34.334H68.3146V36H62.6586Z" fill="white"/>
<path d="M47.3106 15V5.872H49.4246L51.8046 10.408L52.7006 12.424H52.7566C52.7193 11.9387 52.6679 11.3973 52.6026 10.8C52.5373 10.2027 52.5046 9.63333 52.5046 9.092V5.872H54.4646V15H52.3506L49.9706 10.45L49.0746 8.462H49.0186C49.0653 8.966 49.1166 9.50733 49.1726 10.086C49.2379 10.6647 49.2706 11.2247 49.2706 11.766V15H47.3106ZM58.4831 15.168C57.8485 15.168 57.3445 14.9673 56.9711 14.566C56.5978 14.1553 56.4111 13.656 56.4111 13.068C56.4111 12.34 56.7191 11.7707 57.3351 11.36C57.9511 10.9493 58.9451 10.674 60.3171 10.534C60.2985 10.226 60.2051 9.98333 60.0371 9.806C59.8785 9.61933 59.6078 9.526 59.2251 9.526C58.9358 9.526 58.6418 9.582 58.3431 9.694C58.0445 9.806 57.7271 9.96 57.3911 10.156L56.6491 8.798C57.0878 8.52733 57.5545 8.308 58.0491 8.14C58.5531 7.972 59.0758 7.888 59.6171 7.888C60.5038 7.888 61.1851 8.14467 61.6611 8.658C62.1371 9.17133 62.3751 9.96 62.3751 11.024V15H60.6951L60.5551 14.286H60.4991C60.2098 14.5473 59.8971 14.762 59.5611 14.93C59.2345 15.0887 58.8751 15.168 58.4831 15.168ZM59.1831 13.572C59.4165 13.572 59.6171 13.5207 59.7851 13.418C59.9625 13.306 60.1398 13.1613 60.3171 12.984V11.766C59.5891 11.8593 59.0851 12.0087 58.8051 12.214C58.5251 12.41 58.3851 12.6433 58.3851 12.914C58.3851 13.138 58.4551 13.306 58.5951 13.418C58.7445 13.5207 58.9405 13.572 59.1831 13.572ZM64.396 15V8.056H66.076L66.216 8.952H66.272C66.5613 8.66267 66.8693 8.41533 67.196 8.21C67.5226 7.99533 67.9146 7.888 68.372 7.888C68.8666 7.888 69.2633 7.99067 69.562 8.196C69.87 8.392 70.1126 8.67667 70.29 9.05C70.598 8.73267 70.9246 8.462 71.27 8.238C71.6153 8.00467 72.0166 7.888 72.474 7.888C73.2206 7.888 73.7666 8.14 74.112 8.644C74.4666 9.13867 74.644 9.82 74.644 10.688V15H72.586V10.954C72.586 10.45 72.516 10.1047 72.376 9.918C72.2453 9.73133 72.0306 9.638 71.732 9.638C71.3866 9.638 70.99 9.862 70.542 10.31V15H68.484V10.954C68.484 10.45 68.414 10.1047 68.274 9.918C68.1433 9.73133 67.9286 9.638 67.63 9.638C67.2846 9.638 66.8926 9.862 66.454 10.31V15H64.396ZM79.7879 15.168C79.1252 15.168 78.5279 15.0233 77.9959 14.734C77.4639 14.4447 77.0439 14.0293 76.7359 13.488C76.4279 12.9467 76.2739 12.2933 76.2739 11.528C76.2739 10.772 76.4279 10.1233 76.7359 9.582C77.0532 9.04067 77.4639 8.62533 77.9679 8.336C78.4719 8.03733 78.9992 7.888 79.5499 7.888C80.2125 7.888 80.7585 8.03733 81.1879 8.336C81.6265 8.62533 81.9532 9.022 82.1679 9.526C82.3919 10.0207 82.5039 10.5853 82.5039 11.22C82.5039 11.3973 82.4945 11.5747 82.4759 11.752C82.4572 11.92 82.4385 12.046 82.4199 12.13H78.2619C78.3552 12.634 78.5652 13.0073 78.8919 13.25C79.2185 13.4833 79.6105 13.6 80.0679 13.6C80.5625 13.6 81.0619 13.446 81.5659 13.138L82.2519 14.384C81.8972 14.6267 81.5005 14.818 81.0619 14.958C80.6232 15.098 80.1985 15.168 79.7879 15.168ZM78.2479 10.772H80.7539C80.7539 10.3893 80.6605 10.0767 80.4739 9.834C80.2965 9.582 80.0025 9.456 79.5919 9.456C79.2745 9.456 78.9899 9.568 78.7379 9.792C78.4859 10.0067 78.3225 10.3333 78.2479 10.772Z" fill="#3D5CAC"/>
<path d="M103.646 14V4.872H106.768C107.403 4.872 107.972 4.942 108.476 5.082C108.98 5.21267 109.382 5.44133 109.68 5.768C109.979 6.09467 110.128 6.552 110.128 7.14C110.128 7.54133 110.021 7.938 109.806 8.33C109.601 8.71267 109.312 8.974 108.938 9.114V9.17C109.405 9.29133 109.792 9.52933 110.1 9.884C110.418 10.2293 110.576 10.7053 110.576 11.312C110.576 11.9373 110.418 12.446 110.1 12.838C109.783 13.23 109.358 13.524 108.826 13.72C108.294 13.9067 107.697 14 107.034 14H103.646ZM105.704 8.526H106.67C107.174 8.526 107.538 8.428 107.762 8.232C107.996 8.036 108.112 7.77467 108.112 7.448C108.112 7.09333 107.996 6.84133 107.762 6.692C107.529 6.54267 107.17 6.468 106.684 6.468H105.704V8.526ZM105.704 12.404H106.866C107.996 12.404 108.56 11.9933 108.56 11.172C108.56 10.7707 108.42 10.486 108.14 10.318C107.86 10.1407 107.436 10.052 106.866 10.052H105.704V12.404ZM114.321 14.168C113.565 14.168 113.014 13.9207 112.669 13.426C112.333 12.922 112.165 12.236 112.165 11.368V7.056H114.223V11.102C114.223 11.5967 114.293 11.942 114.433 12.138C114.573 12.3247 114.792 12.418 115.091 12.418C115.352 12.418 115.572 12.3573 115.749 12.236C115.926 12.1147 116.118 11.9187 116.323 11.648V7.056H118.381V14H116.701L116.547 13.034H116.505C116.216 13.3793 115.898 13.6547 115.553 13.86C115.208 14.0653 114.797 14.168 114.321 14.168ZM122.516 14.168C122.059 14.168 121.587 14.0793 121.102 13.902C120.626 13.7247 120.211 13.4913 119.856 13.202L120.78 11.914C121.097 12.1473 121.401 12.3293 121.69 12.46C121.989 12.5813 122.283 12.642 122.572 12.642C122.88 12.642 123.104 12.5907 123.244 12.488C123.384 12.376 123.454 12.2313 123.454 12.054C123.454 11.8953 123.384 11.7647 123.244 11.662C123.113 11.5593 122.941 11.466 122.726 11.382C122.511 11.2887 122.283 11.1953 122.04 11.102C121.76 10.99 121.48 10.85 121.2 10.682C120.929 10.514 120.701 10.2993 120.514 10.038C120.327 9.76733 120.234 9.44067 120.234 9.058C120.234 8.414 120.477 7.89133 120.962 7.49C121.457 7.08867 122.101 6.888 122.894 6.888C123.426 6.888 123.893 6.98133 124.294 7.168C124.705 7.34533 125.055 7.546 125.344 7.77L124.42 9.002C124.177 8.81533 123.935 8.67067 123.692 8.568C123.449 8.46533 123.207 8.414 122.964 8.414C122.432 8.414 122.166 8.596 122.166 8.96C122.166 9.184 122.297 9.35667 122.558 9.478C122.829 9.59 123.141 9.71133 123.496 9.842C123.795 9.94467 124.084 10.08 124.364 10.248C124.653 10.4067 124.891 10.6213 125.078 10.892C125.274 11.1533 125.372 11.4987 125.372 11.928C125.372 12.5533 125.129 13.0853 124.644 13.524C124.159 13.9533 123.449 14.168 122.516 14.168ZM126.959 14V7.056H129.017V14H126.959ZM127.981 6.034C127.636 6.034 127.356 5.936 127.141 5.74C126.926 5.544 126.819 5.28267 126.819 4.956C126.819 4.62933 126.926 4.368 127.141 4.172C127.356 3.976 127.636 3.878 127.981 3.878C128.326 3.878 128.606 3.976 128.821 4.172C129.036 4.368 129.143 4.62933 129.143 4.956C129.143 5.28267 129.036 5.544 128.821 5.74C128.606 5.936 128.326 6.034 127.981 6.034ZM131.108 14V7.056H132.788L132.928 7.938H132.984C133.283 7.658 133.609 7.41533 133.964 7.21C134.328 6.99533 134.743 6.888 135.21 6.888C135.966 6.888 136.512 7.14 136.848 7.644C137.193 8.13867 137.366 8.82 137.366 9.688V14H135.308V9.954C135.308 9.45 135.238 9.10467 135.098 8.918C134.967 8.73133 134.753 8.638 134.454 8.638C134.193 8.638 133.969 8.69867 133.782 8.82C133.595 8.932 133.39 9.09533 133.166 9.31V14H131.108ZM142.508 14.168C141.845 14.168 141.248 14.0233 140.716 13.734C140.184 13.4447 139.764 13.0293 139.456 12.488C139.148 11.9467 138.994 11.2933 138.994 10.528C138.994 9.772 139.148 9.12333 139.456 8.582C139.773 8.04067 140.184 7.62533 140.688 7.336C141.192 7.03733 141.719 6.888 142.27 6.888C142.932 6.888 143.478 7.03733 143.908 7.336C144.346 7.62533 144.673 8.022 144.888 8.526C145.112 9.02067 145.224 9.58533 145.224 10.22C145.224 10.3973 145.214 10.5747 145.196 10.752C145.177 10.92 145.158 11.046 145.14 11.13H140.982C141.075 11.634 141.285 12.0073 141.612 12.25C141.938 12.4833 142.33 12.6 142.788 12.6C143.282 12.6 143.782 12.446 144.286 12.138L144.972 13.384C144.617 13.6267 144.22 13.818 143.782 13.958C143.343 14.098 142.918 14.168 142.508 14.168ZM140.968 9.772H143.474C143.474 9.38933 143.38 9.07667 143.194 8.834C143.016 8.582 142.722 8.456 142.312 8.456C141.994 8.456 141.71 8.568 141.458 8.792C141.206 9.00667 141.042 9.33333 140.968 9.772ZM148.97 14.168C148.513 14.168 148.041 14.0793 147.556 13.902C147.08 13.7247 146.665 13.4913 146.31 13.202L147.234 11.914C147.551 12.1473 147.855 12.3293 148.144 12.46C148.443 12.5813 148.737 12.642 149.026 12.642C149.334 12.642 149.558 12.5907 149.698 12.488C149.838 12.376 149.908 12.2313 149.908 12.054C149.908 11.8953 149.838 11.7647 149.698 11.662C149.567 11.5593 149.395 11.466 149.18 11.382C148.965 11.2887 148.737 11.1953 148.494 11.102C148.214 10.99 147.934 10.85 147.654 10.682C147.383 10.514 147.155 10.2993 146.968 10.038C146.781 9.76733 146.688 9.44067 146.688 9.058C146.688 8.414 146.931 7.89133 147.416 7.49C147.911 7.08867 148.555 6.888 149.348 6.888C149.88 6.888 150.347 6.98133 150.748 7.168C151.159 7.34533 151.509 7.546 151.798 7.77L150.874 9.002C150.631 8.81533 150.389 8.67067 150.146 8.568C149.903 8.46533 149.661 8.414 149.418 8.414C148.886 8.414 148.62 8.596 148.62 8.96C148.62 9.184 148.751 9.35667 149.012 9.478C149.283 9.59 149.595 9.71133 149.95 9.842C150.249 9.94467 150.538 10.08 150.818 10.248C151.107 10.4067 151.345 10.6213 151.532 10.892C151.728 11.1533 151.826 11.4987 151.826 11.928C151.826 12.5533 151.583 13.0853 151.098 13.524C150.613 13.9533 149.903 14.168 148.97 14.168ZM155.457 14.168C155 14.168 154.528 14.0793 154.043 13.902C153.567 13.7247 153.152 13.4913 152.797 13.202L153.721 11.914C154.038 12.1473 154.342 12.3293 154.631 12.46C154.93 12.5813 155.224 12.642 155.513 12.642C155.821 12.642 156.045 12.5907 156.185 12.488C156.325 12.376 156.395 12.2313 156.395 12.054C156.395 11.8953 156.325 11.7647 156.185 11.662C156.054 11.5593 155.882 11.466 155.667 11.382C155.452 11.2887 155.224 11.1953 154.981 11.102C154.701 10.99 154.421 10.85 154.141 10.682C153.87 10.514 153.642 10.2993 153.455 10.038C153.268 9.76733 153.175 9.44067 153.175 9.058C153.175 8.414 153.418 7.89133 153.903 7.49C154.398 7.08867 155.042 6.888 155.835 6.888C156.367 6.888 156.834 6.98133 157.235 7.168C157.646 7.34533 157.996 7.546 158.285 7.77L157.361 9.002C157.118 8.81533 156.876 8.67067 156.633 8.568C156.39 8.46533 156.148 8.414 155.905 8.414C155.373 8.414 155.107 8.596 155.107 8.96C155.107 9.184 155.238 9.35667 155.499 9.478C155.77 9.59 156.082 9.71133 156.437 9.842C156.736 9.94467 157.025 10.08 157.305 10.248C157.594 10.4067 157.832 10.6213 158.019 10.892C158.215 11.1533 158.313 11.4987 158.313 11.928C158.313 12.5533 158.07 13.0853 157.585 13.524C157.1 13.9533 156.39 14.168 155.457 14.168ZM163.151 14V4.872H165.209V14H163.151ZM167.474 14V7.056H169.154L169.294 7.938H169.35C169.648 7.658 169.975 7.41533 170.33 7.21C170.694 6.99533 171.109 6.888 171.576 6.888C172.332 6.888 172.878 7.14 173.214 7.644C173.559 8.13867 173.732 8.82 173.732 9.688V14H171.674V9.954C171.674 9.45 171.604 9.10467 171.464 8.918C171.333 8.73133 171.118 8.638 170.82 8.638C170.558 8.638 170.334 8.69867 170.148 8.82C169.961 8.932 169.756 9.09533 169.532 9.31V14H167.474ZM176.115 14V8.666H175.191V7.14L176.115 7.07V6.692C176.115 6.19733 176.199 5.74933 176.367 5.348C176.535 4.94667 176.806 4.62467 177.179 4.382C177.553 4.13933 178.052 4.018 178.677 4.018C178.967 4.018 179.233 4.046 179.475 4.102C179.718 4.158 179.914 4.214 180.063 4.27L179.685 5.782C179.564 5.73533 179.443 5.70267 179.321 5.684C179.2 5.656 179.083 5.642 178.971 5.642C178.719 5.642 178.523 5.72133 178.383 5.88C178.243 6.02933 178.173 6.28133 178.173 6.636V7.056H179.419V8.666H178.173V14H176.115ZM183.662 14.168C183.074 14.168 182.519 14.028 181.996 13.748C181.483 13.4587 181.067 13.0433 180.75 12.502C180.433 11.9513 180.274 11.2933 180.274 10.528C180.274 9.75333 180.433 9.09533 180.75 8.554C181.067 8.01267 181.483 7.602 181.996 7.322C182.519 7.03267 183.074 6.888 183.662 6.888C184.25 6.888 184.801 7.03267 185.314 7.322C185.827 7.602 186.243 8.01267 186.56 8.554C186.877 9.09533 187.036 9.75333 187.036 10.528C187.036 11.2933 186.877 11.9513 186.56 12.502C186.243 13.0433 185.827 13.4587 185.314 13.748C184.801 14.028 184.25 14.168 183.662 14.168ZM183.662 12.502C184.082 12.502 184.399 12.3247 184.614 11.97C184.829 11.606 184.936 11.1253 184.936 10.528C184.936 9.92133 184.829 9.44067 184.614 9.086C184.399 8.73133 184.082 8.554 183.662 8.554C183.233 8.554 182.911 8.73133 182.696 9.086C182.491 9.44067 182.388 9.92133 182.388 10.528C182.388 11.1253 182.491 11.606 182.696 11.97C182.911 12.3247 183.233 12.502 183.662 12.502Z" fill="#3D5CAC"/>
<path d="M168 32H203.419" stroke="#3D5CAC" stroke-width="3"/>
<path d="M197.279 14V4.872H200.415C201.087 4.872 201.694 4.96533 202.235 5.152C202.786 5.32933 203.225 5.63267 203.551 6.062C203.878 6.49133 204.041 7.07467 204.041 7.812C204.041 8.52133 203.878 9.10467 203.551 9.562C203.225 10.0193 202.791 10.36 202.249 10.584C201.708 10.7987 201.115 10.906 200.471 10.906H199.337V14H197.279ZM199.337 9.268H200.345C201.465 9.268 202.025 8.78267 202.025 7.812C202.025 7.336 201.876 7 201.577 6.804C201.279 6.608 200.849 6.51 200.289 6.51H199.337V9.268ZM207.003 14.168C206.368 14.168 205.864 13.9673 205.491 13.566C205.117 13.1553 204.931 12.656 204.931 12.068C204.931 11.34 205.239 10.7707 205.855 10.36C206.471 9.94933 207.465 9.674 208.837 9.534C208.818 9.226 208.725 8.98333 208.557 8.806C208.398 8.61933 208.127 8.526 207.745 8.526C207.455 8.526 207.161 8.582 206.863 8.694C206.564 8.806 206.247 8.96 205.911 9.156L205.169 7.798C205.607 7.52733 206.074 7.308 206.569 7.14C207.073 6.972 207.595 6.888 208.137 6.888C209.023 6.888 209.705 7.14467 210.181 7.658C210.657 8.17133 210.895 8.96 210.895 10.024V14H209.215L209.075 13.286H209.019C208.729 13.5473 208.417 13.762 208.081 13.93C207.754 14.0887 207.395 14.168 207.003 14.168ZM207.703 12.572C207.936 12.572 208.137 12.5207 208.305 12.418C208.482 12.306 208.659 12.1613 208.837 11.984V10.766C208.109 10.8593 207.605 11.0087 207.325 11.214C207.045 11.41 206.905 11.6433 206.905 11.914C206.905 12.138 206.975 12.306 207.115 12.418C207.264 12.5207 207.46 12.572 207.703 12.572ZM213.685 16.716C213.48 16.716 213.298 16.702 213.139 16.674C212.99 16.646 212.845 16.6133 212.705 16.576L213.069 15.008C213.135 15.0173 213.209 15.0313 213.293 15.05C213.377 15.078 213.457 15.092 213.531 15.092C213.877 15.092 214.143 15.008 214.329 14.84C214.516 14.672 214.656 14.4527 214.749 14.182L214.847 13.818L212.173 7.056H214.245L215.239 10.038C215.342 10.3553 215.435 10.6773 215.519 11.004C215.603 11.3307 215.692 11.6667 215.785 12.012H215.841C215.916 11.6853 215.991 11.3587 216.065 11.032C216.149 10.696 216.233 10.3647 216.317 10.038L217.157 7.056H219.131L216.723 14.07C216.509 14.6487 216.271 15.134 216.009 15.526C215.748 15.9273 215.431 16.226 215.057 16.422C214.693 16.618 214.236 16.716 213.685 16.716ZM220.496 14V7.056H222.176L222.316 7.952H222.372C222.662 7.66267 222.97 7.41533 223.296 7.21C223.623 6.99533 224.015 6.888 224.472 6.888C224.967 6.888 225.364 6.99067 225.662 7.196C225.97 7.392 226.213 7.67667 226.39 8.05C226.698 7.73267 227.025 7.462 227.37 7.238C227.716 7.00467 228.117 6.888 228.574 6.888C229.321 6.888 229.867 7.14 230.212 7.644C230.567 8.13867 230.744 8.82 230.744 9.688V14H228.686V9.954C228.686 9.45 228.616 9.10467 228.476 8.918C228.346 8.73133 228.131 8.638 227.832 8.638C227.487 8.638 227.09 8.862 226.642 9.31V14H224.584V9.954C224.584 9.45 224.514 9.10467 224.374 8.918C224.244 8.73133 224.029 8.638 223.73 8.638C223.385 8.638 222.993 8.862 222.554 9.31V14H220.496ZM235.888 14.168C235.225 14.168 234.628 14.0233 234.096 13.734C233.564 13.4447 233.144 13.0293 232.836 12.488C232.528 11.9467 232.374 11.2933 232.374 10.528C232.374 9.772 232.528 9.12333 232.836 8.582C233.153 8.04067 233.564 7.62533 234.068 7.336C234.572 7.03733 235.099 6.888 235.65 6.888C236.313 6.888 236.859 7.03733 237.288 7.336C237.727 7.62533 238.053 8.022 238.268 8.526C238.492 9.02067 238.604 9.58533 238.604 10.22C238.604 10.3973 238.595 10.5747 238.576 10.752C238.557 10.92 238.539 11.046 238.52 11.13H234.362C234.455 11.634 234.665 12.0073 234.992 12.25C235.319 12.4833 235.711 12.6 236.168 12.6C236.663 12.6 237.162 12.446 237.666 12.138L238.352 13.384C237.997 13.6267 237.601 13.818 237.162 13.958C236.723 14.098 236.299 14.168 235.888 14.168ZM234.348 9.772H236.854C236.854 9.38933 236.761 9.07667 236.574 8.834C236.397 8.582 236.103 8.456 235.692 8.456C235.375 8.456 235.09 8.568 234.838 8.792C234.586 9.00667 234.423 9.33333 234.348 9.772ZM240.306 14V7.056H241.986L242.126 7.938H242.182C242.481 7.658 242.808 7.41533 243.162 7.21C243.526 6.99533 243.942 6.888 244.408 6.888C245.164 6.888 245.71 7.14 246.046 7.644C246.392 8.13867 246.564 8.82 246.564 9.688V14H244.506V9.954C244.506 9.45 244.436 9.10467 244.296 8.918C244.166 8.73133 243.951 8.638 243.652 8.638C243.391 8.638 243.167 8.69867 242.98 8.82C242.794 8.932 242.588 9.09533 242.364 9.31V14H240.306ZM251.272 14.168C250.413 14.168 249.797 13.9207 249.424 13.426C249.06 12.9313 248.878 12.2827 248.878 11.48V8.666H247.926V7.14L248.99 7.056L249.228 5.208H250.936V7.056H252.602V8.666H250.936V11.452C250.936 11.844 251.015 12.1287 251.174 12.306C251.342 12.474 251.561 12.558 251.832 12.558C251.944 12.558 252.056 12.544 252.168 12.516C252.289 12.488 252.397 12.4553 252.49 12.418L252.812 13.916C252.635 13.972 252.415 14.028 252.154 14.084C251.902 14.14 251.608 14.168 251.272 14.168Z" fill="#3D5CAC"/>
<path d="M248 32H283.419" stroke="#3D5CAC" stroke-width="3"/>
<path d="M263.246 14V4.872H266.382C267.054 4.872 267.661 4.96533 268.202 5.152C268.753 5.32933 269.191 5.63267 269.518 6.062C269.845 6.49133 270.008 7.07467 270.008 7.812C270.008 8.52133 269.845 9.10467 269.518 9.562C269.191 10.0193 268.757 10.36 268.216 10.584C267.675 10.7987 267.082 10.906 266.438 10.906H265.304V14H263.246ZM265.304 9.268H266.312C267.432 9.268 267.992 8.78267 267.992 7.812C267.992 7.336 267.843 7 267.544 6.804C267.245 6.608 266.816 6.51 266.256 6.51H265.304V9.268ZM274.505 14.168C273.842 14.168 273.245 14.0233 272.713 13.734C272.181 13.4447 271.761 13.0293 271.453 12.488C271.145 11.9467 270.991 11.2933 270.991 10.528C270.991 9.772 271.145 9.12333 271.453 8.582C271.77 8.04067 272.181 7.62533 272.685 7.336C273.189 7.03733 273.716 6.888 274.267 6.888C274.93 6.888 275.476 7.03733 275.905 7.336C276.344 7.62533 276.67 8.022 276.885 8.526C277.109 9.02067 277.221 9.58533 277.221 10.22C277.221 10.3973 277.212 10.5747 277.193 10.752C277.174 10.92 277.156 11.046 277.137 11.13H272.979C273.072 11.634 273.282 12.0073 273.609 12.25C273.936 12.4833 274.328 12.6 274.785 12.6C275.28 12.6 275.779 12.446 276.283 12.138L276.969 13.384C276.614 13.6267 276.218 13.818 275.779 13.958C275.34 14.098 274.916 14.168 274.505 14.168ZM272.965 9.772H275.471C275.471 9.38933 275.378 9.07667 275.191 8.834C275.014 8.582 274.72 8.456 274.309 8.456C273.992 8.456 273.707 8.568 273.455 8.792C273.203 9.00667 273.04 9.33333 272.965 9.772ZM278.923 14V7.056H280.603L280.743 8.274H280.799C281.051 7.80733 281.354 7.462 281.709 7.238C282.064 7.00467 282.418 6.888 282.773 6.888C282.969 6.888 283.132 6.902 283.263 6.93C283.394 6.94867 283.506 6.98133 283.599 7.028L283.263 8.806C283.142 8.76867 283.02 8.74067 282.899 8.722C282.787 8.70333 282.656 8.694 282.507 8.694C282.246 8.694 281.97 8.792 281.681 8.988C281.401 9.17467 281.168 9.50133 280.981 9.968V14H278.923ZM286.716 14.168C286.258 14.168 285.787 14.0793 285.302 13.902C284.826 13.7247 284.41 13.4913 284.056 13.202L284.98 11.914C285.297 12.1473 285.6 12.3293 285.89 12.46C286.188 12.5813 286.482 12.642 286.772 12.642C287.08 12.642 287.304 12.5907 287.444 12.488C287.584 12.376 287.654 12.2313 287.654 12.054C287.654 11.8953 287.584 11.7647 287.444 11.662C287.313 11.5593 287.14 11.466 286.926 11.382C286.711 11.2887 286.482 11.1953 286.24 11.102C285.96 10.99 285.68 10.85 285.4 10.682C285.129 10.514 284.9 10.2993 284.714 10.038C284.527 9.76733 284.434 9.44067 284.434 9.058C284.434 8.414 284.676 7.89133 285.162 7.49C285.656 7.08867 286.3 6.888 287.094 6.888C287.626 6.888 288.092 6.98133 288.494 7.168C288.904 7.34533 289.254 7.546 289.544 7.77L288.62 9.002C288.377 8.81533 288.134 8.67067 287.892 8.568C287.649 8.46533 287.406 8.414 287.164 8.414C286.632 8.414 286.366 8.596 286.366 8.96C286.366 9.184 286.496 9.35667 286.758 9.478C287.028 9.59 287.341 9.71133 287.696 9.842C287.994 9.94467 288.284 10.08 288.564 10.248C288.853 10.4067 289.091 10.6213 289.278 10.892C289.474 11.1533 289.572 11.4987 289.572 11.928C289.572 12.5533 289.329 13.0853 288.844 13.524C288.358 13.9533 287.649 14.168 286.716 14.168ZM294.141 14.168C293.553 14.168 292.998 14.028 292.475 13.748C291.962 13.4587 291.546 13.0433 291.229 12.502C290.912 11.9513 290.753 11.2933 290.753 10.528C290.753 9.75333 290.912 9.09533 291.229 8.554C291.546 8.01267 291.962 7.602 292.475 7.322C292.998 7.03267 293.553 6.888 294.141 6.888C294.729 6.888 295.28 7.03267 295.793 7.322C296.306 7.602 296.722 8.01267 297.039 8.554C297.356 9.09533 297.515 9.75333 297.515 10.528C297.515 11.2933 297.356 11.9513 297.039 12.502C296.722 13.0433 296.306 13.4587 295.793 13.748C295.28 14.028 294.729 14.168 294.141 14.168ZM294.141 12.502C294.561 12.502 294.878 12.3247 295.093 11.97C295.308 11.606 295.415 11.1253 295.415 10.528C295.415 9.92133 295.308 9.44067 295.093 9.086C294.878 8.73133 294.561 8.554 294.141 8.554C293.712 8.554 293.39 8.73133 293.175 9.086C292.97 9.44067 292.867 9.92133 292.867 10.528C292.867 11.1253 292.97 11.606 293.175 11.97C293.39 12.3247 293.712 12.502 294.141 12.502ZM299.204 14V7.056H300.884L301.024 7.938H301.08C301.379 7.658 301.706 7.41533 302.06 7.21C302.424 6.99533 302.84 6.888 303.306 6.888C304.062 6.888 304.608 7.14 304.944 7.644C305.29 8.13867 305.462 8.82 305.462 9.688V14H303.404V9.954C303.404 9.45 303.334 9.10467 303.194 8.918C303.064 8.73133 302.849 8.638 302.55 8.638C302.289 8.638 302.065 8.69867 301.878 8.82C301.692 8.932 301.486 9.09533 301.262 9.31V14H299.204ZM309.246 14.168C308.612 14.168 308.108 13.9673 307.734 13.566C307.361 13.1553 307.174 12.656 307.174 12.068C307.174 11.34 307.482 10.7707 308.098 10.36C308.714 9.94933 309.708 9.674 311.08 9.534C311.062 9.226 310.968 8.98333 310.8 8.806C310.642 8.61933 310.371 8.526 309.988 8.526C309.699 8.526 309.405 8.582 309.106 8.694C308.808 8.806 308.49 8.96 308.154 9.156L307.412 7.798C307.851 7.52733 308.318 7.308 308.812 7.14C309.316 6.972 309.839 6.888 310.38 6.888C311.267 6.888 311.948 7.14467 312.424 7.658C312.9 8.17133 313.138 8.96 313.138 10.024V14H311.458L311.318 13.286H311.262C310.973 13.5473 310.66 13.762 310.324 13.93C309.998 14.0887 309.638 14.168 309.246 14.168ZM309.946 12.572C310.18 12.572 310.38 12.5207 310.548 12.418C310.726 12.306 310.903 12.1613 311.08 11.984V10.766C310.352 10.8593 309.848 11.0087 309.568 11.214C309.288 11.41 309.148 11.6433 309.148 11.914C309.148 12.138 309.218 12.306 309.358 12.418C309.508 12.5207 309.704 12.572 309.946 12.572ZM317.049 14.168C316.34 14.168 315.845 13.958 315.565 13.538C315.294 13.1087 315.159 12.544 315.159 11.844V4.186H317.217V11.928C317.217 12.1427 317.254 12.292 317.329 12.376C317.413 12.46 317.497 12.502 317.581 12.502C317.628 12.502 317.665 12.502 317.693 12.502C317.73 12.4927 317.777 12.4833 317.833 12.474L318.085 14C317.973 14.0467 317.828 14.084 317.651 14.112C317.483 14.1493 317.282 14.168 317.049 14.168ZM322.696 14V4.872H324.754V14H322.696ZM327.019 14V7.056H328.699L328.839 7.938H328.895C329.193 7.658 329.52 7.41533 329.875 7.21C330.239 6.99533 330.654 6.888 331.121 6.888C331.877 6.888 332.423 7.14 332.759 7.644C333.104 8.13867 333.277 8.82 333.277 9.688V14H331.219V9.954C331.219 9.45 331.149 9.10467 331.009 8.918C330.878 8.73133 330.663 8.638 330.365 8.638C330.103 8.638 329.879 8.69867 329.693 8.82C329.506 8.932 329.301 9.09533 329.077 9.31V14H327.019ZM335.66 14V8.666H334.736V7.14L335.66 7.07V6.692C335.66 6.19733 335.744 5.74933 335.912 5.348C336.08 4.94667 336.351 4.62467 336.724 4.382C337.098 4.13933 337.597 4.018 338.222 4.018C338.512 4.018 338.778 4.046 339.02 4.102C339.263 4.158 339.459 4.214 339.608 4.27L339.23 5.782C339.109 5.73533 338.988 5.70267 338.866 5.684C338.745 5.656 338.628 5.642 338.516 5.642C338.264 5.642 338.068 5.72133 337.928 5.88C337.788 6.02933 337.718 6.28133 337.718 6.636V7.056H338.964V8.666H337.718V14H335.66ZM343.207 14.168C342.619 14.168 342.064 14.028 341.541 13.748C341.028 13.4587 340.612 13.0433 340.295 12.502C339.978 11.9513 339.819 11.2933 339.819 10.528C339.819 9.75333 339.978 9.09533 340.295 8.554C340.612 8.01267 341.028 7.602 341.541 7.322C342.064 7.03267 342.619 6.888 343.207 6.888C343.795 6.888 344.346 7.03267 344.859 7.322C345.372 7.602 345.788 8.01267 346.105 8.554C346.422 9.09533 346.581 9.75333 346.581 10.528C346.581 11.2933 346.422 11.9513 346.105 12.502C345.788 13.0433 345.372 13.4587 344.859 13.748C344.346 14.028 343.795 14.168 343.207 14.168ZM343.207 12.502C343.627 12.502 343.944 12.3247 344.159 11.97C344.374 11.606 344.481 11.1253 344.481 10.528C344.481 9.92133 344.374 9.44067 344.159 9.086C343.944 8.73133 343.627 8.554 343.207 8.554C342.778 8.554 342.456 8.73133 342.241 9.086C342.036 9.44067 341.933 9.92133 341.933 10.528C341.933 11.1253 342.036 11.606 342.241 11.97C342.456 12.3247 342.778 12.502 343.207 12.502Z" fill="#3D5CAC"/>
</svg>
