<svg width="292" height="43" viewBox="0 0 292 43" fill="none" xmlns="http://www.w3.org/2000/svg">
<path d="M42.5117 31.5C42.5117 30.064 42.5143 29.4766 42.5706 29.0009C43.0326 25.0981 46.1098 22.0208 50.0127 21.5589C50.4883 21.5026 51.0757 21.5 52.5117 21.5H76.2656C77.7016 21.5 78.289 21.5026 78.7647 21.5589C82.6675 22.0208 85.7448 25.0981 86.2067 29.0009C86.263 29.4766 86.2656 30.064 86.2656 31.5C86.2656 32.936 86.263 33.5234 86.2067 33.9991C85.7448 37.9019 82.6675 40.9792 78.7647 41.4411C78.289 41.4974 77.7016 41.5 76.2656 41.5H52.5117C51.0757 41.5 50.4883 41.4974 50.0126 41.4411C46.1098 40.9792 43.0326 37.9019 42.5706 33.9991C42.5143 33.5234 42.5117 32.936 42.5117 31.5Z" fill="#3D5CAC" stroke="#3D5CAC" stroke-width="3"/>
<path d="M61.615 36V34.25H63.547V29.28H61.881V27.936C62.847 27.754 63.491 27.516 64.121 27.11H65.717V34.25H67.369V36H61.615Z" fill="#3D5CAC"/>
<path d="M61.615 36V34.25H63.547V29.28H61.881V27.936C62.847 27.754 63.491 27.516 64.121 27.11H65.717V34.25H67.369V36H61.615Z" fill="white"/>
<path d="M124.031 31.5C124.031 30.064 124.034 29.4766 124.09 29.0009C124.552 25.0981 127.629 22.0208 131.532 21.5589C132.008 21.5026 132.595 21.5 134.031 21.5H157.785C159.221 21.5 159.809 21.5026 160.284 21.5589C164.187 22.0208 167.264 25.0981 167.726 29.0009C167.783 29.4766 167.785 30.064 167.785 31.5C167.785 32.936 167.783 33.5234 167.726 33.9991C167.264 37.9019 164.187 40.9792 160.284 41.4411C159.809 41.4974 159.221 41.5 157.785 41.5H134.031C132.595 41.5 132.008 41.4974 131.532 41.4411C127.629 40.9792 124.552 37.9019 124.09 33.9991C124.034 33.5234 124.031 32.936 124.031 31.5Z" fill="#3D5CAC" stroke="#3D5CAC" stroke-width="3"/>
<path d="M142.701 36V34.67C144.885 32.738 146.509 31.156 146.509 29.924C146.509 29.084 146.047 28.65 145.305 28.65C144.689 28.65 144.199 29.07 143.765 29.532L142.645 28.412C143.513 27.432 144.339 26.942 145.599 26.942C147.363 26.942 148.581 28.076 148.581 29.784C148.581 31.38 147.125 32.822 145.627 34.278C146.089 34.236 146.705 34.18 147.111 34.18H149.015V36H142.701Z" fill="#3D5CAC"/>
<path d="M142.701 36V34.67C144.885 32.738 146.509 31.156 146.509 29.924C146.509 29.084 146.047 28.65 145.305 28.65C144.689 28.65 144.199 29.07 143.765 29.532L142.645 28.412C143.513 27.432 144.339 26.942 145.599 26.942C147.363 26.942 148.581 28.076 148.581 29.784C148.581 31.38 147.125 32.822 145.627 34.278C146.089 34.236 146.705 34.18 147.111 34.18H149.015V36H142.701Z" fill="white"/>
<path d="M205.551 31.5C205.551 30.064 205.553 29.4766 205.61 29.0009C206.072 25.0981 209.149 22.0208 213.052 21.5589C213.527 21.5026 214.115 21.5 215.551 21.5H239.305C240.741 21.5 241.328 21.5026 241.804 21.5589C245.707 22.0208 248.784 25.0981 249.246 29.0009C249.302 29.4766 249.305 30.064 249.305 31.5C249.305 32.936 249.302 33.5234 249.246 33.9991C248.784 37.9019 245.707 40.9792 241.804 41.4411C241.328 41.4974 240.741 41.5 239.305 41.5H215.551C214.115 41.5 213.527 41.4974 213.052 41.4411C209.149 40.9792 206.072 37.9019 205.61 33.9991C205.553 33.5234 205.551 32.936 205.551 31.5Z" fill="#3D5CAC" stroke="#3D5CAC" stroke-width="3"/>
<path d="M227.118 36.168C225.676 36.168 224.654 35.664 223.996 34.908L224.99 33.536C225.536 34.054 226.194 34.418 226.894 34.418C227.748 34.418 228.294 34.068 228.294 33.424C228.294 32.682 227.874 32.234 225.97 32.234V30.708C227.524 30.708 228.014 30.246 228.014 29.574C228.014 28.972 227.636 28.65 226.964 28.65C226.348 28.65 225.886 28.916 225.34 29.406L224.248 28.09C225.074 27.376 225.984 26.942 227.062 26.942C228.952 26.942 230.184 27.824 230.184 29.406C230.184 30.302 229.666 30.96 228.714 31.366V31.422C229.736 31.716 230.464 32.43 230.464 33.578C230.464 35.244 228.924 36.168 227.118 36.168Z" fill="white"/>
<path d="M47.2074 14V4.886H49.4614L51.7014 9.254C52.0234 9.87 52.3174 10.598 52.5974 11.312H52.6534C52.5414 10.332 52.3734 9.03 52.3734 7.952V4.886H54.4314V14H52.1914L49.9374 9.632C49.6294 9.016 49.3354 8.288 49.0554 7.574H48.9994C49.1114 8.582 49.2794 9.842 49.2794 10.934V14H47.2074ZM58.4213 14.168C57.1473 14.168 56.3493 13.216 56.3493 12.054C56.3493 10.584 57.4833 9.786 60.2273 9.506C60.1713 8.932 59.8773 8.596 59.1633 8.596C58.6033 8.596 58.0433 8.792 57.3433 9.184L56.5873 7.784C57.4973 7.224 58.4913 6.874 59.5833 6.874C61.3753 6.874 62.3833 7.868 62.3833 10.052V14H60.6193L60.4653 13.3H60.4093C59.8353 13.818 59.2053 14.168 58.4213 14.168ZM59.1633 12.488C59.5973 12.488 59.8913 12.278 60.2273 11.942V10.836C58.8413 11.018 58.4213 11.396 58.4213 11.886C58.4213 12.292 58.6873 12.488 59.1633 12.488ZM64.3611 14V7.042H66.1251L66.2791 7.91H66.3351C66.8951 7.35 67.5111 6.874 68.4351 6.874C69.4011 6.874 70.0031 7.28 70.3531 8.022C70.9551 7.406 71.5991 6.874 72.5231 6.874C74.0351 6.874 74.7071 7.952 74.7071 9.688V14H72.5511V9.968C72.5511 9.002 72.2851 8.708 71.7391 8.708C71.4031 8.708 71.0391 8.918 70.6191 9.338V14H68.4491V9.968C68.4491 9.002 68.1971 8.708 67.6371 8.708C67.3151 8.708 66.9371 8.918 66.5171 9.338V14H64.3611ZM79.8357 14.168C77.8477 14.168 76.3077 12.838 76.3077 10.514C76.3077 8.26 77.9317 6.874 79.5977 6.874C81.6137 6.874 82.5937 8.33 82.5937 10.22C82.5937 10.612 82.5517 10.976 82.5097 11.172H78.4077C78.6037 12.11 79.2617 12.516 80.1437 12.516C80.6477 12.516 81.1517 12.362 81.6417 12.082L82.3417 13.384C81.6137 13.902 80.6617 14.168 79.8357 14.168ZM78.3797 9.716H80.7457C80.7457 9.03 80.4377 8.512 79.6537 8.512C79.0377 8.512 78.5197 8.904 78.3797 9.716Z" fill="#3D5CAC"/>
<path d="M124.378 14V4.886H127.584C129.586 4.886 131.224 5.6 131.224 7.84C131.224 10.024 129.558 10.976 127.64 10.976H126.562V14H124.378ZM126.562 9.254H127.514C128.592 9.254 129.096 8.75 129.096 7.84C129.096 6.93 128.522 6.608 127.458 6.608H126.562V9.254ZM132.885 14V7.042H134.649L134.803 8.246H134.859C135.363 7.308 136.133 6.874 136.833 6.874C137.239 6.874 137.477 6.916 137.673 7.014L137.267 8.848C137.015 8.792 136.861 8.764 136.553 8.764C136.035 8.764 135.405 9.1 135.041 10.024V14H132.885ZM141.712 14.168C139.948 14.168 138.31 12.824 138.31 10.514C138.31 8.204 139.948 6.874 141.712 6.874C143.49 6.874 145.128 8.204 145.128 10.514C145.128 12.824 143.49 14.168 141.712 14.168ZM141.712 12.418C142.524 12.418 142.902 11.676 142.902 10.514C142.902 9.366 142.524 8.61 141.712 8.61C140.9 8.61 140.522 9.366 140.522 10.514C140.522 11.676 140.9 12.418 141.712 12.418ZM147.07 14V8.736H146.146V7.112L147.07 7.056V6.762C147.07 5.292 147.756 4.046 149.702 4.046C150.304 4.046 150.808 4.172 151.116 4.298L150.71 5.838C150.472 5.768 150.248 5.74 150.01 5.74C149.534 5.74 149.24 6.006 149.24 6.692V7.042H150.472V8.736H149.24V14H147.07ZM151.84 14V7.042H153.996V14H151.84ZM152.918 6.062C152.204 6.062 151.7 5.628 151.7 4.942C151.7 4.27 152.204 3.836 152.918 3.836C153.632 3.836 154.136 4.27 154.136 4.942C154.136 5.628 153.632 6.062 152.918 6.062ZM158.018 14.168C156.534 14.168 156.044 13.202 156.044 11.746V4.214H158.2V11.83C158.2 12.278 158.424 12.418 158.592 12.418C158.676 12.418 158.732 12.418 158.844 12.39L159.096 13.986C158.858 14.084 158.494 14.168 158.018 14.168ZM163.52 14.168C161.532 14.168 159.992 12.838 159.992 10.514C159.992 8.26 161.616 6.874 163.282 6.874C165.298 6.874 166.278 8.33 166.278 10.22C166.278 10.612 166.236 10.976 166.194 11.172H162.092C162.288 12.11 162.946 12.516 163.828 12.516C164.332 12.516 164.836 12.362 165.326 12.082L166.026 13.384C165.298 13.902 164.346 14.168 163.52 14.168ZM162.064 9.716H164.43C164.43 9.03 164.122 8.512 163.338 8.512C162.722 8.512 162.204 8.904 162.064 9.716Z" fill="#3D5CAC"/>
<path d="M199.474 14V4.886H202.68C204.682 4.886 206.32 5.6 206.32 7.84C206.32 10.024 204.654 10.976 202.736 10.976H201.658V14H199.474ZM201.658 9.254H202.61C203.688 9.254 204.192 8.75 204.192 7.84C204.192 6.93 203.618 6.608 202.554 6.608H201.658V9.254ZM209.293 14.168C208.019 14.168 207.221 13.216 207.221 12.054C207.221 10.584 208.355 9.786 211.099 9.506C211.043 8.932 210.749 8.596 210.035 8.596C209.475 8.596 208.915 8.792 208.215 9.184L207.459 7.784C208.369 7.224 209.363 6.874 210.455 6.874C212.247 6.874 213.255 7.868 213.255 10.052V14H211.491L211.337 13.3H211.281C210.707 13.818 210.077 14.168 209.293 14.168ZM210.035 12.488C210.469 12.488 210.763 12.278 211.099 11.942V10.836C209.713 11.018 209.293 11.396 209.293 11.886C209.293 12.292 209.559 12.488 210.035 12.488ZM216.087 16.688C215.639 16.688 215.359 16.632 215.079 16.52L215.457 14.924C215.681 14.98 215.779 14.994 215.919 14.994C216.591 14.994 216.927 14.644 217.095 14.14L217.193 13.804L214.519 7.042H216.689L217.641 9.926C217.837 10.57 217.991 11.214 218.173 11.9H218.229C218.383 11.242 218.523 10.584 218.705 9.926L219.503 7.042H221.575L219.181 14.014C218.495 15.806 217.753 16.688 216.087 16.688ZM222.91 14V7.042H224.674L224.828 7.91H224.884C225.444 7.35 226.06 6.874 226.984 6.874C227.95 6.874 228.552 7.28 228.902 8.022C229.504 7.406 230.148 6.874 231.072 6.874C232.584 6.874 233.256 7.952 233.256 9.688V14H231.1V9.968C231.1 9.002 230.834 8.708 230.288 8.708C229.952 8.708 229.588 8.918 229.168 9.338V14H226.998V9.968C226.998 9.002 226.746 8.708 226.186 8.708C225.864 8.708 225.486 8.918 225.066 9.338V14H222.91ZM238.384 14.168C236.396 14.168 234.856 12.838 234.856 10.514C234.856 8.26 236.48 6.874 238.146 6.874C240.162 6.874 241.142 8.33 241.142 10.22C241.142 10.612 241.1 10.976 241.058 11.172H236.956C237.152 12.11 237.81 12.516 238.692 12.516C239.196 12.516 239.7 12.362 240.19 12.082L240.89 13.384C240.162 13.902 239.21 14.168 238.384 14.168ZM236.928 9.716H239.294C239.294 9.03 238.986 8.512 238.202 8.512C237.586 8.512 237.068 8.904 236.928 9.716ZM242.802 14V7.042H244.566L244.72 7.91H244.776C245.35 7.35 246.05 6.874 247.002 6.874C248.514 6.874 249.158 7.952 249.158 9.688V14H246.988V9.968C246.988 9.002 246.736 8.708 246.176 8.708C245.686 8.708 245.392 8.946 244.958 9.338V14H242.802ZM253.864 14.168C252.128 14.168 251.414 13.062 251.414 11.424V8.736H250.476V7.112L251.54 7.042L251.792 4.914H253.584V7.042H255.222V8.736H253.584V11.396C253.584 12.18 253.948 12.474 254.466 12.474C254.69 12.474 254.928 12.446 255.11 12.376L255.446 13.888C255.082 14.028 254.55 14.168 253.864 14.168Z" fill="#3D5CAC"/>
</svg>
