<svg width="215" height="40" viewBox="0 0 215 40" fill="none" xmlns="http://www.w3.org/2000/svg">
<path d="M2.08398 28.5C2.08398 27.064 2.08661 26.4766 2.1429 26.0009C2.60483 22.0981 5.6821 19.0208 9.58492 18.5589C10.0606 18.5026 10.648 18.5 12.084 18.5H35.8379C37.2739 18.5 37.8613 18.5026 38.3369 18.5589C42.2398 19.0208 45.317 22.0981 45.779 26.0009C45.8353 26.4766 45.8379 27.064 45.8379 28.5C45.8379 29.936 45.8353 30.5234 45.779 30.9991C45.317 34.9019 42.2398 37.9792 38.3369 38.4411C37.8613 38.4974 37.2739 38.5 35.8379 38.5H12.084C10.648 38.5 10.0606 38.4974 9.58492 38.4411C5.6821 37.9792 2.60483 34.9019 2.1429 30.9991C2.08661 30.5234 2.08398 29.936 2.08398 28.5Z" fill="#3D5CAC" stroke="#3D5CAC" strokeWidth="3"/>
<path d="M21.2426 33V31.334H23.1746V26.196H21.5086V24.922C21.994 24.8287 22.4046 24.7167 22.7406 24.586C23.0766 24.4553 23.4033 24.2967 23.7206 24.11H25.2326V31.334H26.8986V33H21.2426Z" fill="#3D5CAC"/>
<path d="M21.2426 33V31.334H23.1746V26.196H21.5086V24.922C21.994 24.8287 22.4046 24.7167 22.7406 24.586C23.0766 24.4553 23.4033 24.2967 23.7206 24.11H25.2326V31.334H26.8986V33H21.2426Z" fill="white"/>
<path d="M83.6035 28.5C83.6035 27.064 83.6061 26.4766 83.6624 26.0009C84.1244 22.0981 87.2016 19.0208 91.1044 18.5589C91.5801 18.5026 92.1675 18.5 93.6035 18.5H117.357C118.793 18.5 119.381 18.5026 119.856 18.5589C123.759 19.0208 126.837 22.0981 127.298 26.0009C127.355 26.4766 127.357 27.064 127.357 28.5C127.357 29.936 127.355 30.5234 127.298 30.9991C126.837 34.9019 123.759 37.9792 119.856 38.4411C119.381 38.4974 118.793 38.5 117.357 38.5H93.6035C92.1675 38.5 91.5801 38.4974 91.1044 38.4411C87.2016 37.9792 84.1244 34.9019 83.6624 30.9991C83.6061 30.5234 83.6035 29.936 83.6035 28.5Z" stroke="#3D5CAC" strokeWidth="3"/>
<path d="M102.3 33V31.824C103.056 31.1053 103.723 30.4567 104.302 29.878C104.89 29.29 105.347 28.7533 105.674 28.268C106.001 27.7733 106.164 27.316 106.164 26.896C106.164 26.4573 106.047 26.126 105.814 25.902C105.59 25.6687 105.287 25.552 104.904 25.552C104.587 25.552 104.297 25.6453 104.036 25.832C103.784 26.0093 103.546 26.2193 103.322 26.462L102.202 25.356C102.641 24.8893 103.089 24.5393 103.546 24.306C104.003 24.0633 104.549 23.942 105.184 23.942C105.772 23.942 106.285 24.0587 106.724 24.292C107.163 24.5253 107.503 24.8567 107.746 25.286C107.998 25.706 108.124 26.2007 108.124 26.77C108.124 27.2647 107.984 27.7733 107.704 28.296C107.433 28.8093 107.083 29.3273 106.654 29.85C106.225 30.3633 105.767 30.872 105.282 31.376C105.506 31.348 105.758 31.3247 106.038 31.306C106.318 31.278 106.561 31.264 106.766 31.264H108.558V33H102.3Z" fill="#3D5CAC"/>
<path d="M102.3 33V31.824C103.056 31.1053 103.723 30.4567 104.302 29.878C104.89 29.29 105.347 28.7533 105.674 28.268C106.001 27.7733 106.164 27.316 106.164 26.896C106.164 26.4573 106.047 26.126 105.814 25.902C105.59 25.6687 105.287 25.552 104.904 25.552C104.587 25.552 104.297 25.6453 104.036 25.832C103.784 26.0093 103.546 26.2193 103.322 26.462L102.202 25.356C102.641 24.8893 103.089 24.5393 103.546 24.306C104.003 24.0633 104.549 23.942 105.184 23.942C105.772 23.942 106.285 24.0587 106.724 24.292C107.163 24.5253 107.503 24.8567 107.746 25.286C107.998 25.706 108.124 26.2007 108.124 26.77C108.124 27.2647 107.984 27.7733 107.704 28.296C107.433 28.8093 107.083 29.3273 106.654 29.85C106.225 30.3633 105.767 30.872 105.282 31.376C105.506 31.348 105.758 31.3247 106.038 31.306C106.318 31.278 106.561 31.264 106.766 31.264H108.558V33H102.3Z" fill="#3D5CAC"/>
<path d="M165.123 28.5C165.123 27.064 165.126 26.4766 165.182 26.0009C165.644 22.0981 168.721 19.0208 172.624 18.5589C173.1 18.5026 173.687 18.5 175.123 18.5H198.877C200.313 18.5 200.9 18.5026 201.376 18.5589C205.279 19.0208 208.356 22.0981 208.818 26.0009C208.874 26.4766 208.877 27.064 208.877 28.5C208.877 29.936 208.874 30.5234 208.818 30.9991C208.356 34.9019 205.279 37.9792 201.376 38.4411C200.9 38.4974 200.313 38.5 198.877 38.5H175.123C173.687 38.5 173.1 38.4974 172.624 38.4411C168.721 37.9792 165.644 34.9019 165.182 30.9991C165.126 30.5234 165.123 29.936 165.123 28.5Z" stroke="#3D5CAC" strokeWidth="3"/>
<path d="M186.704 33.168C185.985 33.168 185.369 33.0513 184.856 32.818C184.352 32.5847 183.936 32.2813 183.61 31.908L184.562 30.606C184.832 30.8673 185.131 31.082 185.458 31.25C185.784 31.418 186.134 31.502 186.508 31.502C186.946 31.502 187.296 31.4133 187.558 31.236C187.819 31.0493 187.95 30.788 187.95 30.452C187.95 30.1907 187.884 29.9667 187.754 29.78C187.623 29.584 187.385 29.4347 187.04 29.332C186.694 29.2293 186.2 29.178 185.556 29.178V27.722C186.358 27.722 186.909 27.6147 187.208 27.4C187.506 27.176 187.656 26.8867 187.656 26.532C187.656 26.224 187.562 25.986 187.376 25.818C187.189 25.6407 186.918 25.552 186.564 25.552C186.246 25.552 185.957 25.622 185.696 25.762C185.444 25.902 185.178 26.0933 184.898 26.336L183.862 25.076C184.272 24.7213 184.706 24.446 185.164 24.25C185.621 24.0447 186.12 23.942 186.662 23.942C187.576 23.942 188.314 24.1567 188.874 24.586C189.443 25.006 189.728 25.6033 189.728 26.378C189.728 26.8353 189.597 27.2273 189.336 27.554C189.084 27.8807 188.72 28.1467 188.244 28.352V28.408C188.757 28.5573 189.177 28.814 189.504 29.178C189.84 29.5327 190.008 29.9993 190.008 30.578C190.008 31.1287 189.854 31.6 189.546 31.992C189.247 32.3747 188.846 32.6687 188.342 32.874C187.847 33.07 187.301 33.168 186.704 33.168Z" fill="#3D5CAC"/>
<path d="M47.1875 27.5H82.6066" stroke="#3D5CAC" strokeWidth="3"/>
<path d="M128.59 27.5H164.009" stroke="#3D5CAC" strokeWidth="3"/>
<path d="M6.88286 11V1.872H8.99686L11.3769 6.408L12.2729 8.424H12.3289C12.2915 7.93867 12.2402 7.39733 12.1749 6.8C12.1095 6.20267 12.0769 5.63333 12.0769 5.092V1.872H14.0369V11H11.9229L9.54286 6.45L8.64686 4.462H8.59086C8.63753 4.966 8.68886 5.50733 8.74486 6.086C8.8102 6.66467 8.84286 7.22467 8.84286 7.766V11H6.88286ZM18.0554 11.168C17.4207 11.168 16.9167 10.9673 16.5434 10.566C16.1701 10.1553 15.9834 9.656 15.9834 9.068C15.9834 8.34 16.2914 7.77067 16.9074 7.36C17.5234 6.94933 18.5174 6.674 19.8894 6.534C19.8707 6.226 19.7774 5.98333 19.6094 5.806C19.4507 5.61933 19.1801 5.526 18.7974 5.526C18.5081 5.526 18.2141 5.582 17.9154 5.694C17.6167 5.806 17.2994 5.96 16.9634 6.156L16.2214 4.798C16.6601 4.52733 17.1267 4.308 17.6214 4.14C18.1254 3.972 18.6481 3.888 19.1894 3.888C20.0761 3.888 20.7574 4.14467 21.2334 4.658C21.7094 5.17133 21.9474 5.96 21.9474 7.024V11H20.2674L20.1274 10.286H20.0714C19.7821 10.5473 19.4694 10.762 19.1334 10.93C18.8067 11.0887 18.4474 11.168 18.0554 11.168ZM18.7554 9.572C18.9887 9.572 19.1894 9.52067 19.3574 9.418C19.5347 9.306 19.7121 9.16133 19.8894 8.984V7.766C19.1614 7.85933 18.6574 8.00867 18.3774 8.214C18.0974 8.41 17.9574 8.64333 17.9574 8.914C17.9574 9.138 18.0274 9.306 18.1674 9.418C18.3167 9.52067 18.5127 9.572 18.7554 9.572ZM23.9682 11V4.056H25.6482L25.7882 4.952H25.8442C26.1336 4.66267 26.4416 4.41533 26.7682 4.21C27.0949 3.99533 27.4869 3.888 27.9442 3.888C28.4389 3.888 28.8356 3.99067 29.1342 4.196C29.4422 4.392 29.6849 4.67667 29.8622 5.05C30.1702 4.73267 30.4969 4.462 30.8422 4.238C31.1876 4.00467 31.5889 3.888 32.0462 3.888C32.7929 3.888 33.3389 4.14 33.6842 4.644C34.0389 5.13867 34.2162 5.82 34.2162 6.688V11H32.1582V6.954C32.1582 6.45 32.0882 6.10467 31.9482 5.918C31.8176 5.73133 31.6029 5.638 31.3042 5.638C30.9589 5.638 30.5622 5.862 30.1142 6.31V11H28.0562V6.954C28.0562 6.45 27.9862 6.10467 27.8462 5.918C27.7156 5.73133 27.5009 5.638 27.2022 5.638C26.8569 5.638 26.4649 5.862 26.0262 6.31V11H23.9682ZM39.3601 11.168C38.6975 11.168 38.1001 11.0233 37.5681 10.734C37.0361 10.4447 36.6161 10.0293 36.3081 9.488C36.0001 8.94667 35.8461 8.29333 35.8461 7.528C35.8461 6.772 36.0001 6.12333 36.3081 5.582C36.6255 5.04067 37.0361 4.62533 37.5401 4.336C38.0441 4.03733 38.5715 3.888 39.1221 3.888C39.7848 3.888 40.3308 4.03733 40.7601 4.336C41.1988 4.62533 41.5255 5.022 41.7401 5.526C41.9641 6.02067 42.0761 6.58533 42.0761 7.22C42.0761 7.39733 42.0668 7.57467 42.0481 7.752C42.0295 7.92 42.0108 8.046 41.9921 8.13H37.8341C37.9275 8.634 38.1375 9.00733 38.4641 9.25C38.7908 9.48333 39.1828 9.6 39.6401 9.6C40.1348 9.6 40.6341 9.446 41.1381 9.138L41.8241 10.384C41.4695 10.6267 41.0728 10.818 40.6341 10.958C40.1955 11.098 39.7708 11.168 39.3601 11.168ZM37.8201 6.772H40.3261C40.3261 6.38933 40.2328 6.07667 40.0461 5.834C39.8688 5.582 39.5748 5.456 39.1641 5.456C38.8468 5.456 38.5621 5.568 38.3101 5.792C38.0581 6.00667 37.8948 6.33333 37.8201 6.772Z" fill="#3D5CAC"/>
<path d="M84.1767 11V1.872H87.3127C87.9847 1.872 88.5914 1.96533 89.1327 2.152C89.6834 2.32933 90.1221 2.63267 90.4487 3.062C90.7754 3.49133 90.9387 4.07467 90.9387 4.812C90.9387 5.52133 90.7754 6.10467 90.4487 6.562C90.1221 7.01933 89.6881 7.36 89.1467 7.584C88.6054 7.79867 88.0127 7.906 87.3687 7.906H86.2347V11H84.1767ZM86.2347 6.268H87.2427C88.3627 6.268 88.9227 5.78267 88.9227 4.812C88.9227 4.336 88.7734 4 88.4747 3.804C88.1761 3.608 87.7467 3.51 87.1867 3.51H86.2347V6.268ZM92.6286 11V4.056H94.3086L94.4486 5.274H94.5046C94.7566 4.80733 95.0599 4.462 95.4146 4.238C95.7692 4.00467 96.1239 3.888 96.4786 3.888C96.6746 3.888 96.8379 3.902 96.9686 3.93C97.0992 3.94867 97.2112 3.98133 97.3046 4.028L96.9686 5.806C96.8472 5.76867 96.7259 5.74067 96.6046 5.722C96.4926 5.70333 96.3619 5.694 96.2126 5.694C95.9512 5.694 95.6759 5.792 95.3866 5.988C95.1066 6.17467 94.8732 6.50133 94.6866 6.968V11H92.6286ZM101.332 11.168C100.744 11.168 100.189 11.028 99.666 10.748C99.1526 10.4587 98.7373 10.0433 98.42 9.502C98.1026 8.95133 97.944 8.29333 97.944 7.528C97.944 6.75333 98.1026 6.09533 98.42 5.554C98.7373 5.01267 99.1526 4.602 99.666 4.322C100.189 4.03267 100.744 3.888 101.332 3.888C101.92 3.888 102.471 4.03267 102.984 4.322C103.497 4.602 103.913 5.01267 104.23 5.554C104.547 6.09533 104.706 6.75333 104.706 7.528C104.706 8.29333 104.547 8.95133 104.23 9.502C103.913 10.0433 103.497 10.4587 102.984 10.748C102.471 11.028 101.92 11.168 101.332 11.168ZM101.332 9.502C101.752 9.502 102.069 9.32467 102.284 8.97C102.499 8.606 102.606 8.12533 102.606 7.528C102.606 6.92133 102.499 6.44067 102.284 6.086C102.069 5.73133 101.752 5.554 101.332 5.554C100.903 5.554 100.581 5.73133 100.366 6.086C100.161 6.44067 100.058 6.92133 100.058 7.528C100.058 8.12533 100.161 8.606 100.366 8.97C100.581 9.32467 100.903 9.502 101.332 9.502ZM106.677 11V5.666H105.753V4.14L106.677 4.07V3.692C106.677 3.19733 106.761 2.74933 106.929 2.348C107.097 1.94667 107.368 1.62467 107.741 1.382C108.115 1.13933 108.614 1.018 109.239 1.018C109.529 1.018 109.795 1.046 110.037 1.102C110.28 1.158 110.476 1.214 110.625 1.27L110.247 2.782C110.126 2.73533 110.005 2.70267 109.883 2.684C109.762 2.656 109.645 2.642 109.533 2.642C109.281 2.642 109.085 2.72133 108.945 2.88C108.805 3.02933 108.735 3.28133 108.735 3.636V4.056H109.981V5.666H108.735V11H106.677ZM111.379 11V4.056H113.437V11H111.379ZM112.401 3.034C112.055 3.034 111.775 2.936 111.561 2.74C111.346 2.544 111.239 2.28267 111.239 1.956C111.239 1.62933 111.346 1.368 111.561 1.172C111.775 0.975999 112.055 0.877999 112.401 0.877999C112.746 0.877999 113.026 0.975999 113.241 1.172C113.455 1.368 113.563 1.62933 113.563 1.956C113.563 2.28267 113.455 2.544 113.241 2.74C113.026 2.936 112.746 3.034 112.401 3.034ZM117.418 11.168C116.709 11.168 116.214 10.958 115.934 10.538C115.663 10.1087 115.528 9.544 115.528 8.844V1.186H117.586V8.928C117.586 9.14267 117.623 9.292 117.698 9.376C117.782 9.46 117.866 9.502 117.95 9.502C117.997 9.502 118.034 9.502 118.062 9.502C118.099 9.49267 118.146 9.48333 118.202 9.474L118.454 11C118.342 11.0467 118.197 11.084 118.02 11.112C117.852 11.1493 117.651 11.168 117.418 11.168ZM122.922 11.168C122.259 11.168 121.662 11.0233 121.13 10.734C120.598 10.4447 120.178 10.0293 119.87 9.488C119.562 8.94667 119.408 8.29333 119.408 7.528C119.408 6.772 119.562 6.12333 119.87 5.582C120.187 5.04067 120.598 4.62533 121.102 4.336C121.606 4.03733 122.133 3.888 122.684 3.888C123.346 3.888 123.892 4.03733 124.322 4.336C124.76 4.62533 125.087 5.022 125.302 5.526C125.526 6.02067 125.638 6.58533 125.638 7.22C125.638 7.39733 125.628 7.57467 125.61 7.752C125.591 7.92 125.572 8.046 125.554 8.13H121.396C121.489 8.634 121.699 9.00733 122.026 9.25C122.352 9.48333 122.744 9.6 123.202 9.6C123.696 9.6 124.196 9.446 124.7 9.138L125.386 10.384C125.031 10.6267 124.634 10.818 124.196 10.958C123.757 11.098 123.332 11.168 122.922 11.168ZM121.382 6.772H123.888C123.888 6.38933 123.794 6.07667 123.608 5.834C123.43 5.582 123.136 5.456 122.726 5.456C122.408 5.456 122.124 5.568 121.872 5.792C121.62 6.00667 121.456 6.33333 121.382 6.772Z" fill="#3D5CAC"/>
<path d="M159.279 11V1.872H162.415C163.087 1.872 163.694 1.96533 164.235 2.152C164.786 2.32933 165.225 2.63267 165.551 3.062C165.878 3.49133 166.041 4.07467 166.041 4.812C166.041 5.52133 165.878 6.10467 165.551 6.562C165.225 7.01933 164.791 7.36 164.249 7.584C163.708 7.79867 163.115 7.906 162.471 7.906H161.337V11H159.279ZM161.337 6.268H162.345C163.465 6.268 164.025 5.78267 164.025 4.812C164.025 4.336 163.876 4 163.577 3.804C163.279 3.608 162.849 3.51 162.289 3.51H161.337V6.268ZM169.003 11.168C168.368 11.168 167.864 10.9673 167.491 10.566C167.117 10.1553 166.931 9.656 166.931 9.068C166.931 8.34 167.239 7.77067 167.855 7.36C168.471 6.94933 169.465 6.674 170.837 6.534C170.818 6.226 170.725 5.98333 170.557 5.806C170.398 5.61933 170.127 5.526 169.745 5.526C169.455 5.526 169.161 5.582 168.863 5.694C168.564 5.806 168.247 5.96 167.911 6.156L167.169 4.798C167.607 4.52733 168.074 4.308 168.569 4.14C169.073 3.972 169.595 3.888 170.137 3.888C171.023 3.888 171.705 4.14467 172.181 4.658C172.657 5.17133 172.895 5.96 172.895 7.024V11H171.215L171.075 10.286H171.019C170.729 10.5473 170.417 10.762 170.081 10.93C169.754 11.0887 169.395 11.168 169.003 11.168ZM169.703 9.572C169.936 9.572 170.137 9.52067 170.305 9.418C170.482 9.306 170.659 9.16133 170.837 8.984V7.766C170.109 7.85933 169.605 8.00867 169.325 8.214C169.045 8.41 168.905 8.64333 168.905 8.914C168.905 9.138 168.975 9.306 169.115 9.418C169.264 9.52067 169.46 9.572 169.703 9.572ZM175.685 13.716C175.48 13.716 175.298 13.702 175.139 13.674C174.99 13.646 174.845 13.6133 174.705 13.576L175.069 12.008C175.135 12.0173 175.209 12.0313 175.293 12.05C175.377 12.078 175.457 12.092 175.531 12.092C175.877 12.092 176.143 12.008 176.329 11.84C176.516 11.672 176.656 11.4527 176.749 11.182L176.847 10.818L174.173 4.056H176.245L177.239 7.038C177.342 7.35533 177.435 7.67733 177.519 8.004C177.603 8.33067 177.692 8.66667 177.785 9.012H177.841C177.916 8.68533 177.991 8.35867 178.065 8.032C178.149 7.696 178.233 7.36467 178.317 7.038L179.157 4.056H181.131L178.723 11.07C178.509 11.6487 178.271 12.134 178.009 12.526C177.748 12.9273 177.431 13.226 177.057 13.422C176.693 13.618 176.236 13.716 175.685 13.716ZM182.496 11V4.056H184.176L184.316 4.952H184.372C184.662 4.66267 184.97 4.41533 185.296 4.21C185.623 3.99533 186.015 3.888 186.472 3.888C186.967 3.888 187.364 3.99067 187.662 4.196C187.97 4.392 188.213 4.67667 188.39 5.05C188.698 4.73267 189.025 4.462 189.37 4.238C189.716 4.00467 190.117 3.888 190.574 3.888C191.321 3.888 191.867 4.14 192.212 4.644C192.567 5.13867 192.744 5.82 192.744 6.688V11H190.686V6.954C190.686 6.45 190.616 6.10467 190.476 5.918C190.346 5.73133 190.131 5.638 189.832 5.638C189.487 5.638 189.09 5.862 188.642 6.31V11H186.584V6.954C186.584 6.45 186.514 6.10467 186.374 5.918C186.244 5.73133 186.029 5.638 185.73 5.638C185.385 5.638 184.993 5.862 184.554 6.31V11H182.496ZM197.888 11.168C197.225 11.168 196.628 11.0233 196.096 10.734C195.564 10.4447 195.144 10.0293 194.836 9.488C194.528 8.94667 194.374 8.29333 194.374 7.528C194.374 6.772 194.528 6.12333 194.836 5.582C195.153 5.04067 195.564 4.62533 196.068 4.336C196.572 4.03733 197.099 3.888 197.65 3.888C198.313 3.888 198.859 4.03733 199.288 4.336C199.727 4.62533 200.053 5.022 200.268 5.526C200.492 6.02067 200.604 6.58533 200.604 7.22C200.604 7.39733 200.595 7.57467 200.576 7.752C200.557 7.92 200.539 8.046 200.52 8.13H196.362C196.455 8.634 196.665 9.00733 196.992 9.25C197.319 9.48333 197.711 9.6 198.168 9.6C198.663 9.6 199.162 9.446 199.666 9.138L200.352 10.384C199.997 10.6267 199.601 10.818 199.162 10.958C198.723 11.098 198.299 11.168 197.888 11.168ZM196.348 6.772H198.854C198.854 6.38933 198.761 6.07667 198.574 5.834C198.397 5.582 198.103 5.456 197.692 5.456C197.375 5.456 197.09 5.568 196.838 5.792C196.586 6.00667 196.423 6.33333 196.348 6.772ZM202.306 11V4.056H203.986L204.126 4.938H204.182C204.481 4.658 204.808 4.41533 205.162 4.21C205.526 3.99533 205.942 3.888 206.408 3.888C207.164 3.888 207.71 4.14 208.046 4.644C208.392 5.13867 208.564 5.82 208.564 6.688V11H206.506V6.954C206.506 6.45 206.436 6.10467 206.296 5.918C206.166 5.73133 205.951 5.638 205.652 5.638C205.391 5.638 205.167 5.69867 204.98 5.82C204.794 5.932 204.588 6.09533 204.364 6.31V11H202.306ZM213.272 11.168C212.413 11.168 211.797 10.9207 211.424 10.426C211.06 9.93133 210.878 9.28267 210.878 8.48V5.666H209.926V4.14L210.99 4.056L211.228 2.208H212.936V4.056H214.602V5.666H212.936V8.452C212.936 8.844 213.015 9.12867 213.174 9.306C213.342 9.474 213.561 9.558 213.832 9.558C213.944 9.558 214.056 9.544 214.168 9.516C214.289 9.488 214.397 9.45533 214.49 9.418L214.812 10.916C214.635 10.972 214.415 11.028 214.154 11.084C213.902 11.14 213.608 11.168 213.272 11.168Z" fill="#3D5CAC"/>
</svg>
