<svg width="210" height="43" viewBox="0 0 210 43" fill="none" xmlns="http://www.w3.org/2000/svg">
<path d="M87 32H122.419" stroke="#3D5CAC" stroke-width="3"/>
<path d="M52.5117 21.5H76.2656C77.7016 21.5 78.289 21.5026 78.7647 21.5589C82.6675 22.0208 85.7448 25.0981 86.2067 29.0009C86.263 29.4766 86.2656 30.064 86.2656 31.5C86.2656 32.936 86.263 33.5234 86.2067 33.9991C85.7448 37.9019 82.6675 40.9792 78.7647 41.4411C78.289 41.4974 77.7016 41.5 76.2656 41.5H52.5117C51.0757 41.5 50.4883 41.4974 50.0127 41.4411C46.1098 40.9792 43.0326 37.9019 42.5706 33.9991C42.5143 33.5234 42.5117 32.936 42.5117 31.5C42.5117 30.064 42.5143 29.4766 42.5706 29.0009C43.0326 25.0981 46.1098 22.0208 50.0127 21.5589C50.4883 21.5026 51.0757 21.5 52.5117 21.5Z" fill="#3D5CAC" stroke="#3D5CAC" stroke-width="3"/>
<path d="M61.6704 36V34.334H63.6024V29.196H61.9364V27.922C62.4217 27.8287 62.8324 27.7167 63.1684 27.586C63.5044 27.4553 63.831 27.2967 64.1484 27.11H65.6604V34.334H67.3264V36H61.6704Z" fill="#3D5CAC"/>
<path d="M61.6704 36V34.334H63.6024V29.196H61.9364V27.922C62.4217 27.8287 62.8324 27.7167 63.1684 27.586C63.5044 27.4553 63.831 27.2967 64.1484 27.11H65.6604V34.334H67.3264V36H61.6704Z" fill="white"/>
<path d="M134.031 21.5H157.785C159.221 21.5 159.809 21.5026 160.284 21.5589C164.187 22.0208 167.264 25.0981 167.726 29.0009C167.783 29.4766 167.785 30.064 167.785 31.5C167.785 32.936 167.783 33.5234 167.726 33.9991C167.264 37.9019 164.187 40.9792 160.284 41.4411C159.809 41.4974 159.221 41.5 157.785 41.5H134.031C132.595 41.5 132.008 41.4974 131.532 41.4411C127.629 40.9792 124.552 37.9019 124.09 33.9991C124.034 33.5234 124.031 32.936 124.031 31.5C124.031 30.064 124.034 29.4766 124.09 29.0009C124.552 25.0981 127.629 22.0208 131.532 21.5589C132.008 21.5026 132.595 21.5 134.031 21.5Z" stroke="#3D5CAC" stroke-width="3"/>
<path d="M142.728 36V34.824C143.484 34.1053 144.151 33.4567 144.73 32.878C145.318 32.29 145.775 31.7533 146.102 31.268C146.429 30.7733 146.592 30.316 146.592 29.896C146.592 29.4573 146.475 29.126 146.242 28.902C146.018 28.6687 145.715 28.552 145.332 28.552C145.015 28.552 144.725 28.6453 144.464 28.832C144.212 29.0093 143.974 29.2193 143.75 29.462L142.63 28.356C143.069 27.8893 143.517 27.5393 143.974 27.306C144.431 27.0633 144.977 26.942 145.612 26.942C146.2 26.942 146.713 27.0587 147.152 27.292C147.591 27.5253 147.931 27.8567 148.174 28.286C148.426 28.706 148.552 29.2007 148.552 29.77C148.552 30.2647 148.412 30.7733 148.132 31.296C147.861 31.8093 147.511 32.3273 147.082 32.85C146.653 33.3633 146.195 33.872 145.71 34.376C145.934 34.348 146.186 34.3247 146.466 34.306C146.746 34.278 146.989 34.264 147.194 34.264H148.986V36H142.728Z" fill="#3D5CAC"/>
<path d="M142.728 36V34.824C143.484 34.1053 144.151 33.4567 144.73 32.878C145.318 32.29 145.775 31.7533 146.102 31.268C146.429 30.7733 146.592 30.316 146.592 29.896C146.592 29.4573 146.475 29.126 146.242 28.902C146.018 28.6687 145.715 28.552 145.332 28.552C145.015 28.552 144.725 28.6453 144.464 28.832C144.212 29.0093 143.974 29.2193 143.75 29.462L142.63 28.356C143.069 27.8893 143.517 27.5393 143.974 27.306C144.431 27.0633 144.977 26.942 145.612 26.942C146.2 26.942 146.713 27.0587 147.152 27.292C147.591 27.5253 147.931 27.8567 148.174 28.286C148.426 28.706 148.552 29.2007 148.552 29.77C148.552 30.2647 148.412 30.7733 148.132 31.296C147.861 31.8093 147.511 32.3273 147.082 32.85C146.653 33.3633 146.195 33.872 145.71 34.376C145.934 34.348 146.186 34.3247 146.466 34.306C146.746 34.278 146.989 34.264 147.194 34.264H148.986V36H142.728Z" fill="#3D5CAC"/>
<path d="M47.3106 14V4.872H49.4246L51.8046 9.408L52.7006 11.424H52.7566C52.7193 10.9387 52.6679 10.3973 52.6026 9.8C52.5373 9.20267 52.5046 8.63333 52.5046 8.092V4.872H54.4646V14H52.3506L49.9706 9.45L49.0746 7.462H49.0186C49.0653 7.966 49.1166 8.50733 49.1726 9.086C49.2379 9.66467 49.2706 10.2247 49.2706 10.766V14H47.3106ZM58.4831 14.168C57.8485 14.168 57.3445 13.9673 56.9711 13.566C56.5978 13.1553 56.4111 12.656 56.4111 12.068C56.4111 11.34 56.7191 10.7707 57.3351 10.36C57.9511 9.94933 58.9451 9.674 60.3171 9.534C60.2985 9.226 60.2051 8.98333 60.0371 8.806C59.8785 8.61933 59.6078 8.526 59.2251 8.526C58.9358 8.526 58.6418 8.582 58.3431 8.694C58.0445 8.806 57.7271 8.96 57.3911 9.156L56.6491 7.798C57.0878 7.52733 57.5545 7.308 58.0491 7.14C58.5531 6.972 59.0758 6.888 59.6171 6.888C60.5038 6.888 61.1851 7.14467 61.6611 7.658C62.1371 8.17133 62.3751 8.96 62.3751 10.024V14H60.6951L60.5551 13.286H60.4991C60.2098 13.5473 59.8971 13.762 59.5611 13.93C59.2345 14.0887 58.8751 14.168 58.4831 14.168ZM59.1831 12.572C59.4165 12.572 59.6171 12.5207 59.7851 12.418C59.9625 12.306 60.1398 12.1613 60.3171 11.984V10.766C59.5891 10.8593 59.0851 11.0087 58.8051 11.214C58.5251 11.41 58.3851 11.6433 58.3851 11.914C58.3851 12.138 58.4551 12.306 58.5951 12.418C58.7445 12.5207 58.9405 12.572 59.1831 12.572ZM64.396 14V7.056H66.076L66.216 7.952H66.272C66.5613 7.66267 66.8693 7.41533 67.196 7.21C67.5226 6.99533 67.9146 6.888 68.372 6.888C68.8666 6.888 69.2633 6.99067 69.562 7.196C69.87 7.392 70.1126 7.67667 70.29 8.05C70.598 7.73267 70.9246 7.462 71.27 7.238C71.6153 7.00467 72.0166 6.888 72.474 6.888C73.2206 6.888 73.7666 7.14 74.112 7.644C74.4666 8.13867 74.644 8.82 74.644 9.688V14H72.586V9.954C72.586 9.45 72.516 9.10467 72.376 8.918C72.2453 8.73133 72.0306 8.638 71.732 8.638C71.3866 8.638 70.99 8.862 70.542 9.31V14H68.484V9.954C68.484 9.45 68.414 9.10467 68.274 8.918C68.1433 8.73133 67.9286 8.638 67.63 8.638C67.2846 8.638 66.8926 8.862 66.454 9.31V14H64.396ZM79.7879 14.168C79.1252 14.168 78.5279 14.0233 77.9959 13.734C77.4639 13.4447 77.0439 13.0293 76.7359 12.488C76.4279 11.9467 76.2739 11.2933 76.2739 10.528C76.2739 9.772 76.4279 9.12333 76.7359 8.582C77.0532 8.04067 77.4639 7.62533 77.9679 7.336C78.4719 7.03733 78.9992 6.888 79.5499 6.888C80.2125 6.888 80.7585 7.03733 81.1879 7.336C81.6265 7.62533 81.9532 8.022 82.1679 8.526C82.3919 9.02067 82.5039 9.58533 82.5039 10.22C82.5039 10.3973 82.4945 10.5747 82.4759 10.752C82.4572 10.92 82.4385 11.046 82.4199 11.13H78.2619C78.3552 11.634 78.5652 12.0073 78.8919 12.25C79.2185 12.4833 79.6105 12.6 80.0679 12.6C80.5625 12.6 81.0619 12.446 81.5659 12.138L82.2519 13.384C81.8972 13.6267 81.5005 13.818 81.0619 13.958C80.6232 14.098 80.1985 14.168 79.7879 14.168ZM78.2479 9.772H80.7539C80.7539 9.38933 80.6605 9.07667 80.4739 8.834C80.2965 8.582 80.0025 8.456 79.5919 8.456C79.2745 8.456 78.9899 8.568 78.7379 8.792C78.4859 9.00667 78.3225 9.33333 78.2479 9.772Z" fill="#3D5CAC"/>
<path d="M124.604 14V4.872H127.74C128.412 4.872 129.019 4.96533 129.56 5.152C130.111 5.32933 130.55 5.63267 130.876 6.062C131.203 6.49133 131.366 7.07467 131.366 7.812C131.366 8.52133 131.203 9.10467 130.876 9.562C130.55 10.0193 130.116 10.36 129.574 10.584C129.033 10.7987 128.44 10.906 127.796 10.906H126.662V14H124.604ZM126.662 9.268H127.67C128.79 9.268 129.35 8.78267 129.35 7.812C129.35 7.336 129.201 7 128.902 6.804C128.604 6.608 128.174 6.51 127.614 6.51H126.662V9.268ZM133.056 14V7.056H134.736L134.876 8.274H134.932C135.184 7.80733 135.488 7.462 135.842 7.238C136.197 7.00467 136.552 6.888 136.906 6.888C137.102 6.888 137.266 6.902 137.396 6.93C137.527 6.94867 137.639 6.98133 137.732 7.028L137.396 8.806C137.275 8.76867 137.154 8.74067 137.032 8.722C136.92 8.70333 136.79 8.694 136.64 8.694C136.379 8.694 136.104 8.792 135.814 8.988C135.534 9.17467 135.301 9.50133 135.114 9.968V14H133.056ZM141.76 14.168C141.172 14.168 140.616 14.028 140.094 13.748C139.58 13.4587 139.165 13.0433 138.848 12.502C138.53 11.9513 138.372 11.2933 138.372 10.528C138.372 9.75333 138.53 9.09533 138.848 8.554C139.165 8.01267 139.58 7.602 140.094 7.322C140.616 7.03267 141.172 6.888 141.76 6.888C142.348 6.888 142.898 7.03267 143.412 7.322C143.925 7.602 144.34 8.01267 144.658 8.554C144.975 9.09533 145.134 9.75333 145.134 10.528C145.134 11.2933 144.975 11.9513 144.658 12.502C144.34 13.0433 143.925 13.4587 143.412 13.748C142.898 14.028 142.348 14.168 141.76 14.168ZM141.76 12.502C142.18 12.502 142.497 12.3247 142.712 11.97C142.926 11.606 143.034 11.1253 143.034 10.528C143.034 9.92133 142.926 9.44067 142.712 9.086C142.497 8.73133 142.18 8.554 141.76 8.554C141.33 8.554 141.008 8.73133 140.794 9.086C140.588 9.44067 140.486 9.92133 140.486 10.528C140.486 11.1253 140.588 11.606 140.794 11.97C141.008 12.3247 141.33 12.502 141.76 12.502ZM147.105 14V8.666H146.181V7.14L147.105 7.07V6.692C147.105 6.19733 147.189 5.74933 147.357 5.348C147.525 4.94667 147.796 4.62467 148.169 4.382C148.542 4.13933 149.042 4.018 149.667 4.018C149.956 4.018 150.222 4.046 150.465 4.102C150.708 4.158 150.904 4.214 151.053 4.27L150.675 5.782C150.554 5.73533 150.432 5.70267 150.311 5.684C150.19 5.656 150.073 5.642 149.961 5.642C149.709 5.642 149.513 5.72133 149.373 5.88C149.233 6.02933 149.163 6.28133 149.163 6.636V7.056H150.409V8.666H149.163V14H147.105ZM151.806 14V7.056H153.864V14H151.806ZM152.828 6.034C152.483 6.034 152.203 5.936 151.988 5.74C151.774 5.544 151.666 5.28267 151.666 4.956C151.666 4.62933 151.774 4.368 151.988 4.172C152.203 3.976 152.483 3.878 152.828 3.878C153.174 3.878 153.454 3.976 153.668 4.172C153.883 4.368 153.99 4.62933 153.99 4.956C153.99 5.28267 153.883 5.544 153.668 5.74C153.454 5.936 153.174 6.034 152.828 6.034ZM157.846 14.168C157.136 14.168 156.642 13.958 156.362 13.538C156.091 13.1087 155.956 12.544 155.956 11.844V4.186H158.014V11.928C158.014 12.1427 158.051 12.292 158.126 12.376C158.21 12.46 158.294 12.502 158.378 12.502C158.424 12.502 158.462 12.502 158.49 12.502C158.527 12.4927 158.574 12.4833 158.63 12.474L158.882 14C158.77 14.0467 158.625 14.084 158.448 14.112C158.28 14.1493 158.079 14.168 157.846 14.168ZM163.349 14.168C162.687 14.168 162.089 14.0233 161.557 13.734C161.025 13.4447 160.605 13.0293 160.297 12.488C159.989 11.9467 159.835 11.2933 159.835 10.528C159.835 9.772 159.989 9.12333 160.297 8.582C160.615 8.04067 161.025 7.62533 161.529 7.336C162.033 7.03733 162.561 6.888 163.111 6.888C163.774 6.888 164.32 7.03733 164.749 7.336C165.188 7.62533 165.515 8.022 165.729 8.526C165.953 9.02067 166.065 9.58533 166.065 10.22C166.065 10.3973 166.056 10.5747 166.037 10.752C166.019 10.92 166 11.046 165.981 11.13H161.823C161.917 11.634 162.127 12.0073 162.453 12.25C162.78 12.4833 163.172 12.6 163.629 12.6C164.124 12.6 164.623 12.446 165.127 12.138L165.813 13.384C165.459 13.6267 165.062 13.818 164.623 13.958C164.185 14.098 163.76 14.168 163.349 14.168ZM161.809 9.772H164.315C164.315 9.38933 164.222 9.07667 164.035 8.834C163.858 8.582 163.564 8.456 163.153 8.456C162.836 8.456 162.551 8.568 162.299 8.792C162.047 9.00667 161.884 9.33333 161.809 9.772Z" fill="#3D5CAC"/>
</svg>
